<svg xmlns="http://www.w3.org/2000/svg" width="571.166" height="284.374" viewBox="0 0 571.166 284.374">
  <path id="Caminho_290" data-name="Caminho 290" d="M538,736.13a51.407,51.407,0,0,0,51.347,51.349h468.471a51.348,51.348,0,0,0,0-102.7H658.465c-.155,0-15.413.155-20.432,0-1.26-.038-2.592-.1-3.971-.171-7.634-.371-17.659-.86-24.979,3.059-4.208-1.792-9.578-2.736-16.144-2.88v-.006l-2.755-.124c-10.616-1.009-15.122-8.168-15.758-14.9a18.746,18.746,0,0,1,15.257-20.383h468.136a51.347,51.347,0,0,0,.083-102.694l-.01,0c-8.665-.213-15.785-1.511-21.3-3.87,4.949-3.627,7.108-8.207,9.187-13.646,4.684-12.25.5-18.855-2.408-21.7a16.293,16.293,0,0,0-17.366-3.126,14.135,14.135,0,0,0-8.968,13.147c-.006.228-.032.542-.062.931-.292,3.827-1.062,13.992,6.5,22.349.381.42.776.831,1.185,1.228-9.505,2.964-25.611,4.69-54.1,4.69H589.347a2.945,2.945,0,1,0,0,5.89H970.552c32.221,0,49.658-2.2,59.764-6.335,6.756,3.926,15.938,6.051,27.43,6.334h.072a45.458,45.458,0,1,1,0,90.915H589.444l-5.429-.317a44.925,44.925,0,0,1-13.484-3.749,45.471,45.471,0,0,1-14.384-72.443,2.945,2.945,0,0,0-4.3-4.025,51.318,51.318,0,0,0,25.844,85.084l-.032.577a25.331,25.331,0,0,0-9.1,21.7,22.084,22.084,0,0,0,8.869,15.88A51.427,51.427,0,0,0,538,736.13Zm492.76-196.652a21.14,21.14,0,0,1-2.92-2.667c-5.862-6.481-5.251-14.521-4.991-17.954.038-.518.069-.938.077-1.243a8.206,8.206,0,0,1,5.3-7.824A10.783,10.783,0,0,1,1032.3,509a9.971,9.971,0,0,1,6.956,2.668c3.243,3.173,3.606,8.638,1.025,15.39C1038.428,531.9,1036.8,536.168,1030.76,539.478ZM605.51,702.642a13.235,13.235,0,0,1,4-8.081,12.081,12.081,0,0,1,2.434,2.11c2.443,2.8,3.243,6.618,2.443,11.676a3.8,3.8,0,0,1-2.5,2.872,4.754,4.754,0,0,1-4.628-.613C605.535,709.211,604.914,706.384,605.51,702.642Zm-16.163-11.969h.063a50.951,50.951,0,0,1,14.309,1.378,20.009,20.009,0,0,0-4.027,9.667c-1.266,7.971,1.873,11.857,3.857,13.464A10.574,10.574,0,0,0,614,716.715a9.6,9.6,0,0,0,6.207-7.451c1.073-6.791-.214-12.333-3.824-16.468a17.52,17.52,0,0,0-1.219-1.262c4.929-1.467,11.377-1.393,18.615-1.04,1.417.069,2.783.136,4.078.177,5.138.16,20.042.006,20.643,0h399.324a45.458,45.458,0,1,1,0,90.915H589.347a45.458,45.458,0,0,1,0-90.915Z" transform="translate(-538 -503.104)" fill="#127e7b"/>
</svg>
