<svg xmlns="http://www.w3.org/2000/svg" xmlns:xlink="http://www.w3.org/1999/xlink" width="1920" height="213" viewBox="0 0 1920 213">
  <defs>
    <style>
      .cls-1 {
        fill: #fff;
        stroke: #707070;
      }

      .cls-2 {
        clip-path: url(#clip-path);
      }

      .cls-3 {
        fill: none;
        stroke: #127e7b;
        stroke-miterlimit: 10;
        stroke-width: 6px;
      }
    </style>
    <clipPath id="clip-path">
      <rect id="Rectangle_64" data-name="Rectangle 64" class="cls-1" width="1920" height="213" transform="translate(0 1152)"/>
    </clipPath>
  </defs>
  <g id="linha-quebra" class="cls-2" transform="translate(0 -1152)">
    <path id="Elementos_site_Prancheta_1_cópia_2" data-name="Elementos site_Prancheta 1 cópia 2" class="cls-3" d="M2.94,1150.924s23.2-347.58,437.078-233.8,587.655,153.318,685.605-22.861c18.956-55.123-25.28-80.617-63.192-66.653-57.557,21.176-7.809,119.984,44.757,153.226,61.615,38.969,187.555,42.169,275.4-15.312,82.148-53.714,200.861-26.245,370.716,18.6,109.005,28.786,183.038-4.2,186.928,30.9,1.853,16.583-41.771,25.8-49.228-43.715s12.25-125.328-19.752-125.328c-27.378,0-40.071,31.1-36.6,45.032,1.317,5.267,10.535,7.365,14.5-.122,4.686-8.835-27.286-46.931-59.716-22.968-31.42,23.289-2.3,109.648,118.391,97.016s285.827-43.7,481.559,16.843c292.779,90.57,770.908,94.628,745.689-354.195s14.7-605,120.015-615.354" transform="translate(-517.987 333.576)"/>
  </g>
</svg>
