<svg xmlns="http://www.w3.org/2000/svg" width="752.029" height="154.854" viewBox="0 0 752.029 154.854">
  <g id="Group_25" data-name="Group 25" transform="translate(-36.957 -202.936)">
    <path id="Path_110" data-name="Path 110" d="M122.592,279.287c1.211-1.167,2.076-2.676,3.319-3.869a20.688,20.688,0,0,1,17.739-5.935c8.458,1.069,14.159,5.8,17.292,13.514a19.874,19.874,0,0,1-.856,17.019,50.531,50.531,0,0,1-14.712,17.361,58.418,58.418,0,0,1-19.027,9.644,2.9,2.9,0,0,0-2.031,1.417,2.023,2.023,0,0,1-2.525.965,64.516,64.516,0,0,1-13.756-4.711,55.124,55.124,0,0,1-23.548-20.469c-2.893-4.552-4.874-9.412-4.417-14.978a22.429,22.429,0,0,1,10.359-17.655,21.388,21.388,0,0,1,11.873-3.626,21.716,21.716,0,0,1,13.223,4.042,21.1,21.1,0,0,1,6.16,6.543,2.576,2.576,0,0,0,.478.555A1.586,1.586,0,0,0,122.592,279.287ZM93.41,273.943a2.882,2.882,0,0,0-1.89.69,18.537,18.537,0,0,0-6.354,7.545,19.2,19.2,0,0,0-.612,15.28c1.866,4.977,5.159,9.111,8.778,12.929,7.329,7.731,16.425,12.476,26.582,15.341a2.091,2.091,0,0,0,2.124-.271,38.753,38.753,0,0,0,2.184-7.2c.8-3,.84-6.09,1.218-9.14a48.69,48.69,0,0,0-.411-11.791,45.673,45.673,0,0,0-5.072-15.554,20.134,20.134,0,0,0-15.186-10.561,14,14,0,0,0-8.016,1.061c-.094,1.317.782,2.085,1.112,3.059a4.377,4.377,0,0,0,3.066,2.906c3.682,1.218,7.321,2.573,10.955,3.929,1.342.5,1.776,1.284,1.44,2.2-.322.874-1.26,1.257-2.523.737-1.485-.612-3.05-.947-4.547-1.529-1.536-.6-3.047-1.578-5.057-1.32a47.012,47.012,0,0,1,2.636,5.634c.966,3.028,3.143,4.363,5.98,5.04.3.071.6.152.891.252,2.153.733,4.314,1.445,6.451,2.225a1.592,1.592,0,0,1,1.209,2c-.256.945-1.035,1.129-1.908,1.086a5,5,0,0,1-1.413-.4c-2.345-.817-4.706-1.592-7.254-2.447,1.069,2.872,2.453,5.286,3.573,7.82a2.019,2.019,0,0,0,1.416,1.065c2.34.777,4.688,1.537,7.094,2.083a2.962,2.962,0,0,1,2.358,2.021c-.31,1.205-1.177,1.419-2.168,1.324a13.316,13.316,0,0,1-3.042-.767,3.684,3.684,0,0,0-2.589-.4,2.049,2.049,0,0,0,.3,1.679c.73,1.5,1.49,2.978,2.265,4.449a4.542,4.542,0,0,1,.634,2.475,1.349,1.349,0,0,1-.931,1.262,1.209,1.209,0,0,1-1.471-.476,10.919,10.919,0,0,1-1.1-1.711q-4.25-8.83-8.459-17.68c-.156-.328-.235-.72-.813-.759-.362.16-.487.555-.609.977-.633,2.188-1.3,4.366-1.915,6.558a2.417,2.417,0,0,1-1.913,1.975c-1.409-.98-1.621-1.4-1.22-2.719.7-2.294,1.4-4.59,2.169-6.861,1.613-4.739,1.632-4.732-.614-9.212-.47-.937-.888-1.9-1.392-2.817-.355-.646-.446-1.491-1.237-1.989a34.675,34.675,0,0,0-1.419,4.92,25.451,25.451,0,0,1-1.121,3.7,1.415,1.415,0,0,1-1.608.985,1.5,1.5,0,0,1-1.275-1.586,3.6,3.6,0,0,1,.079-1.1,85.2,85.2,0,0,1,2.373-8.336C96.445,279.181,95.3,276.558,93.41,273.943Z" transform="translate(-8.197 -12.383)" fill="#127e7b"/>
    <path id="Path_111" data-name="Path 111" d="M344.114,324.993c-.118-2.719,1.384-4.362,3.311-5.759a13.041,13.041,0,0,0,3.62-4.151c1.975-3.453,4.539-6.136,8.523-7.171a1.432,1.432,0,0,0,1.052-.593,11.077,11.077,0,0,0-2.791-2.99c-1.906-1.751-3.905-3.4-5.77-5.194-2.536-2.438-5.275-4.659-7.75-7.145-3.35-3.365-7.213-6.2-10.305-9.807-4.22-4.929-7.451-10.511-7.536-17.114a14.1,14.1,0,0,1,18.064-13.862c6.158,1.685,10.562,5.673,14.393,10.479a37.875,37.875,0,0,1,6.007,10.576,5.745,5.745,0,0,0,.341.651c.749-.2.716-.847.9-1.316a38.658,38.658,0,0,1,11.51-15.847,23.052,23.052,0,0,1,7.861-4.36,14.268,14.268,0,0,1,18.526,16.3,28.467,28.467,0,0,1-7.238,14.344c-4.9,5.48-10.7,10.01-16.051,15.022-2.833,2.655-5.652,5.326-8.479,7.987-.839.79-1.685,1.571-2.5,2.333.076.147.094.236.131.245,4.47,1.1,7.258,4.193,9.5,7.955a14.147,14.147,0,0,0,3.867,4.187,7.283,7.283,0,0,1,2.977,4.985c2.311,1.05,4.724,1.834,6.925,3.073,1.556.876,1.613,1.474.189,2.906-2.584-1.018-5.066-2.585-7.917-3.04a5.4,5.4,0,0,0-1.091,2.449,45.019,45.019,0,0,1,5.27,3.223c.427.354.913.637,1.323,1.007.538.486.9,1.1.419,1.793a1.325,1.325,0,0,1-1.974.23c-1.362-.847-2.693-1.744-4.035-2.621a4.738,4.738,0,0,0-2.58-.984c-2.08,2.762-4.7,4.931-8.555,4.65-3.536-.257-6.368-2.142-9.134-4.308-1.435.827-2.586,1.988-4.062,2.617-.453.193-.866.478-1.321.661-4.908,1.987-7.941,1.286-11.587-2.681a1.552,1.552,0,0,1-.3-.506c-1.417-.3-1.957.548-2.678.955-.966.546-1.874,1.192-2.818,1.777-.827.512-1.68,1.292-2.607.234-.617-.7-.217-1.537,1.176-2.5a36.566,36.566,0,0,1,4.054-2.593,1.435,1.435,0,0,0,.861-.823,5.111,5.111,0,0,0-1.142-2.241,15.678,15.678,0,0,0-5.143,1.9c-.918.432-1.889,1.271-2.739-.043-.473-.732.1-1.635,1.551-2.33C340.181,326.685,342.056,325.9,344.114,324.993ZM401.6,264.5a11.805,11.805,0,0,0-4.172-8.424c-3.775-3.454-10.267-3.106-14.233-.718-8.073,4.862-13.034,12.058-15.66,20.989-.209.711-.342,1.445-.585,2.143-.275.793-.734,1.5-1.7,1.426s-1.271-.81-1.453-1.66a36.194,36.194,0,0,0-11.562-19.605c-2.948-2.665-6.243-4.671-10.445-5.093a11.34,11.34,0,0,0-12.043,8.242c-1.023,4.415.176,8.421,2.14,12.306,2.68,5.3,7.08,9.1,11.348,13.013q5.386,4.94,10.759,9.9c3.354,3.089,6.715,6.172,10.05,9.283a1.624,1.624,0,0,0,2.566.015q7.057-6.542,14.158-13.038c3.224-2.965,6.367-6.024,9.7-8.858a33.742,33.742,0,0,0,7.085-8C399.73,272.862,401.479,269.124,401.6,264.5Zm-18.731,59.391a3.274,3.274,0,0,0-1.63-2.147,18.005,18.005,0,0,1-4.39-4.955c-.631-.914-1.282-1.814-1.923-2.72a8.007,8.007,0,0,0-5.293-3.432,29.562,29.562,0,0,0-2.917-.494c-5.533-.415-10.29.813-13.156,6.171a17.516,17.516,0,0,1-5.011,5.631,3.677,3.677,0,0,0-1.5,2.106c.424.275.725.1,1.023.1,1.6-.028,3.207-.076,4.81-.056a1.253,1.253,0,0,1,.14,2.5c-.729.1-1.476.079-2.215.112a3.947,3.947,0,0,0-2.711.7,1.556,1.556,0,0,0,.772,1.638,4.772,4.772,0,0,0,1.818-.371c1.266-.271,2.525-.606,3.806-.767a1.484,1.484,0,0,1,1.813,1.205c.151.977-.524,1.441-1.405,1.614-.483.1-.984.114-1.46.238-.92.24-1.966.158-2.784.958a4.812,4.812,0,0,0,4.53,2.775,12.579,12.579,0,0,0,8.251-4.177c.518-2.17-2.1-2.492-1.885-4.274,1.273-1.485,2.326.019,3.263.223,1.3.034,1.835-1.645,3.242-.957.606,1.231-.028,2.009-.982,2.764-1.078.853-1.245,1.605-.449,2.281,2.171,1.845,4.439,3.569,7.349,4.1a5.353,5.353,0,0,0,5.719-3.1,15.065,15.065,0,0,0-3.554-.874,1.353,1.353,0,0,1-1.19-1.6c.122-.9.769-1.215,1.6-1.195.365.008.725.151,1.091.185,1.28.118,2.48.728,3.817.679.427-.5.893-.914.547-1.693-1.065-.592-2.263-.27-3.405-.377-.837-.079-1.7-.224-1.737-1.272-.045-1.189.86-1.32,1.783-1.369A25.092,25.092,0,0,0,382.869,323.892Z" transform="translate(-55.13 -9.087)" fill="#127e7b"/>
    <path id="Path_112" data-name="Path 112" d="M850.851,281.362a13.084,13.084,0,0,0,.181-3.182c.048-3.542,1.806-5.45,5.36-5.783a2.506,2.506,0,0,0,1.314-.291c.527-.717.273-1.611.3-2.451.059-2.163.053-2.178,2.231-2.563a2.565,2.565,0,0,0,.512-.214,2.483,2.483,0,0,0,.027-2.277c-3.3-1.018-2.655-.725-2.759-4-.01-.308-.007-.618,0-.926.053-1.844.332-2.153,2.172-2.171q4.352-.041,8.7,0c1.911.018,2.216.338,2.227,2.319.021,3.4,0,6.791.011,10.186a4.634,4.634,0,0,0,.282,2.168c2.083.382,4.543.115,5.873,2.536,1.141,2.079.6,4.355.9,6.376a3.952,3.952,0,0,0,1.758,1.266c9,4.934,14.651,12.492,16.5,22.5,2.255,12.193-1.315,22.677-10.561,31.1a5.119,5.119,0,0,1-3.687,1.376q-17.687-.067-35.375,0a5.321,5.321,0,0,1-3.8-1.532c-7.479-6.7-11.413-15.162-11.129-25.074.351-12.336,5.991-21.933,16.88-28.168C849.461,282.163,850.152,281.764,850.851,281.362ZM891.856,299.5a3,3,0,0,0-1.936-.381q-25.363-.007-50.727,0c-1.875,0-2.233.227-2.784,2.039-3.688,12.111-1.24,22.751,7.646,31.86A5.042,5.042,0,0,0,848,334.6c10.059-.053,20.118-.027,30.178-.027,5.469,0,5.469,0,9.113-4.13q.368-.417.706-.857c5.335-6.936,7.065-14.808,5.889-23.361A21.726,21.726,0,0,0,891.856,299.5Zm-1.879-3.17c0-.353.043-.5-.007-.585-.24-.431-.49-.857-.763-1.266a30.1,30.1,0,0,0-10.737-9.708,6.7,6.7,0,0,0-3.348-.891q-10.645.024-21.289,0a6.406,6.406,0,0,0-3.183.8,30.974,30.974,0,0,0-7.64,5.787,27.376,27.376,0,0,0-4.314,5.865ZM874.824,280.8a9.706,9.706,0,0,0,.216-3.645,1.729,1.729,0,0,0-1.93-1.78q-8.507.01-17.012.006a1.864,1.864,0,0,0-2,1.78,6.551,6.551,0,0,0,.275,3.637C861.164,280.9,867.964,280.9,874.824,280.8Zm-13.917-20.132c.087.2.1.29.136.308a3.407,3.407,0,0,0,.669.267c1.9.416,1.99.513,2.02,2.417.016,1.049,0,2.1,0,3.148,0,2.707-.006,2.706-2.559,3.251-.1.022-.182.155-.341.3a1.831,1.831,0,0,0,.44,1.958,43.623,43.623,0,0,0,6.926-.081V260.465C865.728,260.03,862.228,260.134,860.906,260.666Z" transform="translate(-151.371 -10.388)" fill="#127e7b"/>
    <path id="Path_113" data-name="Path 113" d="M616.987,282.515a4.586,4.586,0,0,0-.261,2.036c-.006,4.261.019,8.522-.018,12.783a6.379,6.379,0,0,0,.865,3.345q8.656,15.1,17.267,30.221c2.494,4.383,1.9,9.206-1.469,12.4a7.1,7.1,0,0,1-5.009,2.074c-13.463.014-26.926.034-40.389-.011-3.631-.012-6.761-2.9-7.629-6.707a9.665,9.665,0,0,1,.971-7.156q4.963-8.786,9.943-17.563c2.525-4.456,5.039-8.918,7.6-13.355a5.333,5.333,0,0,0,.778-2.8q-.043-6.762,0-13.524a2.49,2.49,0,0,0-1.036-2.4,2.141,2.141,0,0,1-.846-1.955c.007-2.285-.034-4.571.011-6.855.033-1.672.576-2.234,2.251-2.243q8.151-.051,16.3,0c1.688.01,2.227.559,2.26,2.23.045,2.345-.038,4.695.031,7.039A2.642,2.642,0,0,1,616.987,282.515Zm-15.652-4.141c1.73.668,2.056,1.971,2.037,3.605-.063,5.31-.045,10.621-.009,15.931a7.092,7.092,0,0,1-.933,3.708q-5.76,10.034-11.472,20.094c-2.2,3.86-4.439,7.7-6.562,11.6a5.637,5.637,0,0,0,5.461,8.613c5.557.014,11.115.007,16.672.007q9.91,0,19.821-.006a5.75,5.75,0,0,0,5.394-9.136q-8.906-15.7-17.855-31.374a6.661,6.661,0,0,1-.917-3.505c.029-4.508.019-9.015,0-13.523,0-.718.187-1.493-.335-2.084a2.062,2.062,0,0,0-1.294-.28c-.925-.014-1.855.029-2.778-.032-1.268-.085-2.21-.892-2.17-1.843.049-1.16.917-1.5,1.865-1.725a15.659,15.659,0,0,1,2.767-.154c1.272-.072,2.579.24,3.874-.282a5.074,5.074,0,0,0-.047-3.378c-2.013-.57-12.079-.468-13.458.126A9.487,9.487,0,0,0,601.335,278.374Z" transform="translate(-103.419 -12.92)" fill="#127e7b"/>
    <path id="Path_114" data-name="Path 114" d="M38.044,300.9c1.64.491,2.034.877,1.953,2.791a51.153,51.153,0,0,0,1.129,11.567,70.116,70.116,0,0,0,7.463,20.976,71.251,71.251,0,0,0,28.07,28.215,68.685,68.685,0,0,0,20.588,7.466,67.2,67.2,0,0,0,15.23,1.341,70.815,70.815,0,0,0,52.539-25.321,69.039,69.039,0,0,0,15.542-33.268,79.462,79.462,0,0,0,1.049-11.557c.03-1.347.65-2.093,1.633-2.041,1.287.069,1.67,1.03,1.638,2.069a56.95,56.95,0,0,1-.512,8.293c-.511,2.839-.841,5.712-1.584,8.529a76.923,76.923,0,0,1-10.634,23.856A74.215,74.215,0,0,1,134.216,372.6a63.676,63.676,0,0,1-22.348,3.412c-4.806-.125-9.629.138-14.389-.8a85.956,85.956,0,0,1-12.425-3.476,68.715,68.715,0,0,1-12.621-6.107,77.25,77.25,0,0,1-11.8-8.859A75.986,75.986,0,0,1,48.01,341.6a71.762,71.762,0,0,1-7.6-16.2,76.6,76.6,0,0,1-2.769-11.469,54.309,54.309,0,0,1-.626-11.434A1.6,1.6,0,0,1,38.044,300.9Z" transform="translate(0 -18.655)" fill="#127e7b"/>
    <path id="Path_115" data-name="Path 115" d="M598.135,376.267A70.667,70.667,0,0,1,559.267,365.8a73.466,73.466,0,0,1-30.329-35.143,70.318,70.318,0,0,1-5.776-27.527,8.569,8.569,0,0,1,.152-1.835,1.172,1.172,0,0,1,1.2-.975,1.192,1.192,0,0,1,1.194.987,10.1,10.1,0,0,1,.155,1.835,71.918,71.918,0,0,0,13.72,40.775,70.743,70.743,0,0,0,34.307,25.671,70.823,70.823,0,0,0,62.27-7.543,71.335,71.335,0,0,0,23.865-25.865,73.814,73.814,0,0,0,7.425-20.458,75.866,75.866,0,0,0,1.356-12.862c.062-1.784.53-2.7,1.455-2.519,1.419.276,1.28,1.472,1.272,2.511a72.684,72.684,0,0,1-8.71,34.081,74.5,74.5,0,0,1-42.228,35.7A65.97,65.97,0,0,1,598.135,376.267Z" transform="translate(-92.585 -18.544)" fill="#127e7b"/>
    <path id="Path_116" data-name="Path 116" d="M850.588,379.343a58.15,58.15,0,0,1-19.84-2.582A75.845,75.845,0,0,1,808.222,365.8a73.382,73.382,0,0,1-20.3-21.8,72.177,72.177,0,0,1-9.659-25.069,2.3,2.3,0,0,1,.141-1.794,1.247,1.247,0,0,1,1.3-.513,1.393,1.393,0,0,1,1.194,1.248c.366,1.878.827,3.73,1.3,5.584a70.581,70.581,0,0,0,6.6,16.449,72.013,72.013,0,0,0,63.744,37.015,71.906,71.906,0,0,0,35.738-10.155,70.709,70.709,0,0,0,20.953-19.053,69.958,69.958,0,0,0,11.728-25.162c.345-1.439.812-2.843,1.02-4.321.181-1.286.848-1.839,1.789-1.6,1.124.285,1.124,1.12.957,2.053a74.524,74.524,0,0,1-52.324,57.97C864.047,379.04,860.623,379.529,850.588,379.343Z" transform="translate(-141.14 -21.64)" fill="#127e7b"/>
    <path id="Path_117" data-name="Path 117" d="M284.15,286.468a63.869,63.869,0,0,1,3.216-22.242A71.412,71.412,0,0,1,299.88,240.87c1.55-1.924,3.293-3.671,4.818-5.61a8.451,8.451,0,0,1,2.052-1.857c.772-.5,1.613-.891,2.332-.075.7.8.35,1.635-.331,2.3-1.064,1.034-1.973,2.208-2.989,3.279a69.678,69.678,0,0,0-15.86,27.661c-2.783,8.849-3.08,17.853-2.56,26.918.412,7.187,2.539,14.061,5.236,20.724.761,1.881,1.768,3.663,2.667,5.487.4.822.686,1.648-.232,2.31-.766.551-1.728.2-2.454-.878a12.543,12.543,0,0,1-.929-1.6,74.281,74.281,0,0,1-7.133-24.193C284.18,292.375,284.189,289.424,284.15,286.468Z" transform="translate(-47.061 -5.698)" fill="#127e7b"/>
    <path id="Path_118" data-name="Path 118" d="M458.719,287.234a73.64,73.64,0,0,1-2.164,17.582,78.8,78.8,0,0,1-5.711,15.422,8.011,8.011,0,0,1-.446.81c-.448.669-1.04,1.123-1.869.765a1.437,1.437,0,0,1-.787-2,23.738,23.738,0,0,1,1.08-2.557c3.595-7.154,5.359-14.836,6.446-22.692,1.453-10.5-.241-20.718-3.54-30.628a63.325,63.325,0,0,0-9.193-17.668c-1.948-2.636-4.011-5.154-6.2-7.583-1.082-1.2-1.247-2.047-.5-2.7.789-.683,1.889-.47,2.9.653a83.275,83.275,0,0,1,7.572,9.57,67.228,67.228,0,0,1,7.4,14.258c2.476,6.8,4.414,13.732,4.709,21.039C458.5,283.414,458.75,285.317,458.719,287.234Z" transform="translate(-75.869 -6.219)" fill="#127e7b"/>
    <path id="Path_119" data-name="Path 119" d="M612.16,239.135a3.616,3.616,0,0,0,1.76-.8,5.957,5.957,0,0,1,8.428,7.649,6.511,6.511,0,0,1-1.133,1.9,47.8,47.8,0,0,1-7.884,7.239,1.66,1.66,0,0,1-2.179-.049,40.859,40.859,0,0,1-7.35-6.726c-1.379-1.64-2.61-3.468-2.053-5.875a6.012,6.012,0,0,1,8.72-4.238C611.074,238.524,611.655,238.865,612.16,239.135Z" transform="translate(-107.523 -6.582)" fill="#127e7b"/>
    <path id="Path_120" data-name="Path 120" d="M822.011,274.647c-2.353-1.728-2.9-2.918-2.263-4.811s1.7-2.466,4.816-2.445c.568-2.119,1.712-3.75,4.352-3.387,1.639.226,2.333.961,3.3,3.661,1.988.062,3.963.356,4.538,2.785.469,1.98-.153,3.072-2.52,4.61.419,1.862.951,3.773-1.022,5.18-2.032,1.449-3.713.552-5.33-.909-1.724,1.329-3.5,2.041-5.391.482C821.061,278.634,820.938,277.136,822.011,274.647Zm8.889-2.013a2.5,2.5,0,0,0-2.761-2.712,2.757,2.757,0,1,0,2.761,2.712Z" transform="translate(-149.015 -11.619)" fill="#127e7b"/>
    <path id="Path_121" data-name="Path 121" d="M91.378,217.047c-.246,1.792,1.354,2.866,1.351,4.4-1.656,1.475-2.425,1.341-3.284-.589q-1.768-3.973-3.492-7.966c-.6-1.384-.42-1.775.95-2.416,1.06-.5,2.123-.972,3.226-1.373,1.925-.7,3.428-.478,4.6.784,1.214,1.308,1.351,2.667.472,4.534a7.028,7.028,0,0,0-.253.788,14.865,14.865,0,0,0,3.756,2.859,37.373,37.373,0,0,0,.992-4.353c.128-2.405,1.058-4.684,1.2-7.1.045-.75.58-1.161,1.324-1.353a1.69,1.69,0,0,1,1.978.58q2.176,2.879,4.355,5.758a25.377,25.377,0,0,1,2.767,3.949,4.7,4.7,0,0,1-2.18,1.191c-1.354-.292-1.476-2.277-2.979-2.051a8.787,8.787,0,0,0-3.438.759,1.907,1.907,0,0,0-.474,1.141c-.17,1.241-.966,1.753-2.056,2.317-2.729,1.414-4.99,1.276-6.977-1.212C92.834,217.219,92.737,217.3,91.378,217.047Zm-2.334-4.653c.257.945.479,1.679,1.209,2.089,2.344-1.016,2.349-1.024,2.038-2.6C91.181,211.422,90.2,211.879,89.044,212.395Zm15.869-.376a2.7,2.7,0,0,0-1.647-2.281,2.685,2.685,0,0,0,.054,2.364A1.241,1.241,0,0,0,104.913,212.019Z" transform="translate(-9.268 -0.425)" fill="#127e7b"/>
    <path id="Path_122" data-name="Path 122" d="M891.324,207.219a13.726,13.726,0,0,1,4.511,1.269c2.878,1.481,3,4.295.284,6.065-.253.164-.49.354-.791.573a13.1,13.1,0,0,0,1.463,4.461c2.946-2.408,5.214-5.391,8.236-7.461,1.873.462,2.066.61,2.009,2.3-.1,2.955-.292,5.906-.446,8.859a1.584,1.584,0,0,1-.454,1.15c-1.908-.357-1.908-.357-1.967-3.191a9.94,9.94,0,0,0-3.131-1.672,2,2,0,0,0-1.341.688,1.89,1.89,0,0,1-2.513.357,2.278,2.278,0,0,0-.849-.346c-1.945-.187-2.674-1.481-3.057-3.182-.192-.853-.191-1.87-1.273-2.332-1.164.868-.837,2.438-1.647,3.4-.763.311-1.337-.046-2.136-.42A107.488,107.488,0,0,1,891.324,207.219Zm1.052,5.18a1.88,1.88,0,0,0,2.566.206,1.278,1.278,0,0,0,.451-1.477c-.333-1.056-1.24-1.2-2.178-1.318A7.725,7.725,0,0,0,892.376,212.4Zm10.017,5.479a1.963,1.963,0,0,0,2.039.614,3.271,3.271,0,0,0-.018-2.818A6.971,6.971,0,0,0,902.393,217.878Z" transform="translate(-162.1 -0.816)" fill="#127e7b"/>
    <path id="Path_123" data-name="Path 123" d="M929.243,235.968a10.9,10.9,0,0,0-.462,3.895c.787.542,1.409.105,2.026-.091,2.29-.728,4.561-1.509,6.853-2.229,1.819-.571,2.058-.446,3.139,1.425-1.7,3.373-3.641,6.691-5.559,10.046-1.637-1.1-1.637-1.1-.615-4.041a13.092,13.092,0,0,0-2.2-2.973c-.988-.3-1.718.482-2.789.362a22.223,22.223,0,0,1-2.762-2.661c-.578-.555-.421-1.327-.36-2.091.1-1.226.763-2.481.021-3.79-1.475.329-1.795,1.881-2.927,2.528-.784-.159-1.275-.645-1.788-1.654,2.509-2.439,4.648-5.335,7.361-7.79a13.935,13.935,0,0,1,3.534,3.143c1.9,2.361.88,4.924-2.125,5.454A1.959,1.959,0,0,0,929.243,235.968Zm-1.277-3.808c.588.9,1.22,1.427,2.215,1.126a1.333,1.333,0,0,0,1.045-1.171c.049-1.058-.642-1.622-1.542-2.06A6.275,6.275,0,0,0,927.966,232.16Zm7.855,10.821a8.206,8.206,0,0,0,1.768-2.949,10.478,10.478,0,0,0-3.212,1.154A7.529,7.529,0,0,0,935.821,242.981Z" transform="translate(-168.498 -4.564)" fill="#127e7b"/>
    <path id="Path_124" data-name="Path 124" d="M206.053,268.621c-1.885-2.337-1.873-2.417-.471-4.637,1.174-1.86,2.3-3.752,3.675-6.012-2.688.6-4.486,2.217-6.688,2.78-1.056-.4-1.345-1.2-1.292-2.51,3.618-1.574,7.077-3.768,10.947-4.905,1.523,1.645,1.585,3.119.5,4.717-.829,1.221-1.593,2.486-2.381,3.735a5.09,5.09,0,0,0-.838,2.1l6.265-2.841a2.609,2.609,0,0,1,1.258,2.511A100.8,100.8,0,0,1,206.053,268.621Z" transform="translate(-31.289 -9.598)" fill="#127e7b"/>
    <path id="Path_125" data-name="Path 125" d="M39.995,259.034c.64-2.825,1.278-3.409,3.735-3.473,2.03-.053,4.078.068,6.112-.976a13.9,13.9,0,0,0-2.922-1.713c-1-.542-2.169-.912-2.824-1.932a2.331,2.331,0,0,1,1.5-2.063L55.949,254.3c-.289,2.516-.661,2.931-2.782,3.249a35.759,35.759,0,0,1-6.614.65c-.332-.012-.75-.147-1.027.33,1.97,1.448,4.371,2.145,6.316,3.5-.091,2.48-.8,2.864-2.805,1.775C46.065,262.186,43.055,260.642,39.995,259.034Z" transform="translate(-0.578 -8.748)" fill="#127e7b"/>
    <path id="Path_126" data-name="Path 126" d="M138.255,208.682c-.627-3.337-.219-4.495,1.83-5.342a4.646,4.646,0,0,1,4.863,1.368c1.116,1.666.689,2.988-1.665,5.171a.784.784,0,0,0,.116.7,2.516,2.516,0,0,0,.376.361c2.064-1.07,2.064-1.07,3.823-.446.1,1.491-1.707,1.858-1.936,3.12.079,1.085,1.257,1.739,1.062,2.976a2.82,2.82,0,0,1-3.51-.811c-3.46.939-6.189.227-7.15-1.773C135.178,212.162,135.89,210.379,138.255,208.682Zm3.453,4.461c-.727-.768-.823-1.648-1.651-2.034-.9.174-1.348.784-1.023,1.583C139.5,213.83,140.46,213.546,141.708,213.142Zm.6-7.005c-.687-.408-1.229-.456-1.368.432a.657.657,0,0,0,.628.76C142.1,207.2,142.4,206.888,142.311,206.137Z" transform="translate(-18.802 -0.034)" fill="#127e7b"/>
    <path id="Path_127" data-name="Path 127" d="M842.83,253.53c.177,1.493.342,2.9-1.163,3.841-1.363.851-2.323-.065-3.439-.673-1.314.69-2.719,1.316-4.082.148-1.121-.96-.878-2.2-.373-3.486-1.048-1.044-2.136-2.17-1.375-3.816a2.756,2.756,0,0,1,3.227-1.63c.552-1.342,1.293-2.533,2.857-2.554,1.629-.022,2.24,1.3,2.795,2.522C845.533,249,845.565,251.512,842.83,253.53Zm-2.52-1.79a1.916,1.916,0,0,0-1.936-1.989,2.047,2.047,0,0,0-2.022,1.939,2.182,2.182,0,0,0,1.966,2.045A2.1,2.1,0,0,0,840.31,251.74Z" transform="translate(-151.422 -8.079)" fill="#127e7b"/>
    <path id="Path_128" data-name="Path 128" d="M196.3,233.33a2.431,2.431,0,0,1-2.29.047c-.9-1.969-2.085-3.859-4.657-3.675-1.652.118-3.331,2.176-3.525,3.86-.215,1.866.612,3.034,2.967,4.167a2.424,2.424,0,0,0,1.3-1.207c.071-.8-.862-1.039-.944-1.831a1.815,1.815,0,0,1,1.318-1.472c1.67.359,2.625,1.691,3.74,3.123a25.356,25.356,0,0,1-4.59,4.853c-3.4-1.053-5.793-3.023-6.836-6.445a4.687,4.687,0,0,1,.632-3.718c1.391-2.551,3.352-4.254,6.449-4.131,3.08.122,4.836,2.145,6.284,4.533A2.107,2.107,0,0,1,196.3,233.33Z" transform="translate(-27.738 -4.562)" fill="#127e7b"/>
    <path id="Path_129" data-name="Path 129" d="M169.614,226.336c2.463-3.641,4.49-7.2,7.087-10.542a54.018,54.018,0,0,1,6.358,4.1c.587.411.505,1.085.09,1.657a1.206,1.206,0,0,1-1.787.317c-1.206-.741-2.395-1.511-3.584-2.264a2.327,2.327,0,0,0-1.152,1.535c.956,1.367,2.777,1.732,3.8,3.043a1.555,1.555,0,0,1-1.184,2.017c-1.563-.511-2.651-1.975-4.248-2.348a2.577,2.577,0,0,0-1.282,1.716c1.327,1.4,3.45,1.882,4.47,3.532.057.918-.47,1.352-1.112,2.044Z" transform="translate(-25.261 -2.448)" fill="#127e7b"/>
    <path id="Path_130" data-name="Path 130" d="M660.6,221.744c-1.3.831-2.57,1.7-3.894,2.486-1.605.952-2.389.5-2.447-1.405-.043-1.4-.008-2.795-.008-4.486-1.724,1.63-1.878,3.931-3.463,5.176a1.609,1.609,0,0,1-1.65-.875c1.435-3.169,3.383-6.187,5.014-9.291,2.063.495,2.332.779,2.361,2.5.031,1.82.007,3.641.007,5.763a38.754,38.754,0,0,0,5.036-3.025,2.041,2.041,0,0,1,3.059.484c-1.312,3.3-3.37,6.274-4.862,9.258a1.15,1.15,0,0,1-1.181-.124,1.179,1.179,0,0,1-.678-.831c.5-1.94,2.182-3.52,2.709-5.628Z" transform="translate(-116.573 -1.983)" fill="#127e7b"/>
    <path id="Path_131" data-name="Path 131" d="M357.749,386.075a9.75,9.75,0,0,0-1.461,2.565,1.719,1.719,0,0,1-2.747.889,12.4,12.4,0,0,1-.695-4.5c-.993,1.235-.741,2.778-1.672,3.837a1.977,1.977,0,0,1-2.174-.325c.58-3.1,1.873-5.948,2.835-8.881a3.583,3.583,0,0,1,2.647.45c.6,1.605.443,3.353.852,5.229,1.106-1.506,1.516-3.175,2.536-4.428a4.5,4.5,0,0,1,2.727.226c.461,3.283-.35,6.373-.691,9.371a1.685,1.685,0,0,1-2.168-.13v-4.309l.065-.108C357.834,385.9,357.792,385.985,357.749,386.075Z" transform="translate(-59.42 -33.635)" fill="#127e7b"/>
    <path id="Path_132" data-name="Path 132" d="M70.178,221.209a2.528,2.528,0,0,1,1.991-1.619c1.653,1.382,2.482,3.359,3.731,5.006a9.673,9.673,0,0,0,1.579,1.8,1.955,1.955,0,0,0,3.3-1.307,3.763,3.763,0,0,0-.764-2.774c-1.2-1.713-2.33-3.47-3.469-5.179,1.027-2.008,2.148-2.176,3.171-.435,1.064,1.81,2.461,3.389,3.454,5.246a5.215,5.215,0,0,1-8.691,5.737C72.917,225.624,71.606,223.4,70.178,221.209Z" transform="translate(-6.326 -2.393)" fill="#127e7b"/>
    <path id="Path_133" data-name="Path 133" d="M193.129,247.472a2.754,2.754,0,0,1-1.511-2.319c4.1-1.575,8.531-1.878,12.586-3.062a3.1,3.1,0,0,1,1.652,2.013c-2.116,3.7-4.26,7.577-6.778,11.234-2.024-1.344-2.029-1.385-.784-4.652C196.406,247.166,196.327,247.115,193.129,247.472Zm8.273-1.848c-.78.392-1.958-.3-2.449,1.059.412.41.447,1.124,1.19,1.273A3.126,3.126,0,0,0,201.4,245.624Z" transform="translate(-29.451 -7.456)" fill="#127e7b"/>
    <path id="Path_134" data-name="Path 134" d="M66.539,241.615c-.716,2.235-.918,2.41-2.867,2.077a2.078,2.078,0,0,0-1.995.623,15.228,15.228,0,0,0-2.043,2.621c.08,1.047,1.255,1.763.921,2.9a2.74,2.74,0,0,1-1.363,1.624c-.867-.133-1.1-.835-1.408-1.4-1.6-2.909-3.169-5.834-4.745-8.756a1.975,1.975,0,0,1-.056-2.256,1.861,1.861,0,0,1,2.16-.657c3.533,1.031,7.194,1.582,10.658,2.861C66.026,241.341,66.234,241.466,66.539,241.615Zm-10,.347c.388.921.682,1.749,1.658,2.149a2.34,2.34,0,0,0,1.106-1.746C58.38,242.244,57.615,241.7,56.534,241.962Z" transform="translate(-2.989 -6.733)" fill="#127e7b"/>
    <path id="Path_135" data-name="Path 135" d="M162.958,222.421c-2.15-.967-2.058-.963-1.968-3,.121-2.713.079-5.432.108-8.149a16.549,16.549,0,0,1,.036-1.666c.145-1.275.719-1.612,1.878-1.113a12.194,12.194,0,0,1,1.236.722c.55,2.693-.534,5.4-.321,8.349a60.69,60.69,0,0,0,4.735-4.552c1.418-1.367,1.616-1.4,3.533-.367a1.135,1.135,0,0,1-.429,1.31C168.846,216.777,165.909,219.587,162.958,222.421Z" transform="translate(-23.612 -1.015)" fill="#127e7b"/>
    <path id="Path_136" data-name="Path 136" d="M772.852,286.652a1.5,1.5,0,0,1,.279-1.872c3.475.011,6.99.87,10.494,1.1a1.777,1.777,0,0,1-.839,2.523c-1.424.866-2.868,1.7-4.279,2.588-.551.347-1.261.54-1.607,1.528,1.929.454,3.981.012,5.709.852.446.565.388,1.086-.048,1.971-3.4.067-6.83-.889-10.283-1.184-.738-1.3-.191-1.972.769-2.548,1.694-1.013,3.37-2.054,5.052-3.087.253-.155.564-.256.656-.7C776.913,286.944,774.735,287.607,772.852,286.652Z" transform="translate(-139.957 -15.585)" fill="#127e7b"/>
    <path id="Path_137" data-name="Path 137" d="M948,248.5a2.085,2.085,0,0,1,.559,2.723c-.854,2.1-1.7,4.2-2.66,6.588,2.251-.721,3.775-2.26,5.669-2.838a1.639,1.639,0,0,1,1.069,1.661c-2.884,2.039-6.133,3.6-9.224,5.429a2.022,2.022,0,0,1-.6-2.731c.833-2.1,1.668-4.2,2.594-6.532-2.263.585-3.8,2.111-5.657,2.793-.766-.314-.943-.874-1.091-1.693A92.515,92.515,0,0,1,948,248.5Z" transform="translate(-171.705 -8.677)" fill="#127e7b"/>
    <path id="Path_138" data-name="Path 138" d="M530.121,263.886c1.826,1.363,3.954,1.684,5.465,3a1.656,1.656,0,0,1-.956,1.692c-3.2-1.341-6.409-2.83-9.476-4.465,0-1.455.81-1.866,1.87-2.088,1.749-.366,3.49-.771,5.228-1.185.448-.107.992-.078,1.289-.7-1.738-1.018-3.708-1.6-5.3-2.782a1.8,1.8,0,0,1,.823-1.8c3.219,1.415,6.507,2.855,9.562,4.51.02,1.4-.764,1.707-1.628,1.982C534.827,262.748,532.518,262.908,530.121,263.886Z" transform="translate(-92.964 -10.022)" fill="#127e7b"/>
    <path id="Path_139" data-name="Path 139" d="M786.561,274.745c.014,3.473-2.226,5.868-5.481,5.859-3.239-.01-6.066-2.6-6.021-5.518.049-3.2,2.651-6.059,5.64-5.967C783.751,269.211,786.838,271.508,786.561,274.745Zm-5.948-3.057a3.228,3.228,0,0,0-3.268,3.256c.009,1.663,1.83,3.2,3.855,3.256a3.216,3.216,0,0,0,3.25-3.284A3.666,3.666,0,0,0,780.613,271.688Z" transform="translate(-140.552 -12.602)" fill="#127e7b"/>
    <path id="Path_140" data-name="Path 140" d="M545.347,248.972a5.763,5.763,0,0,1-5.512,5.794,5.9,5.9,0,0,1-5.868-5.525c-.041-3.148,2.564-6.068,5.48-6.143A5.917,5.917,0,0,1,545.347,248.972Zm-5.17,3.437a3.224,3.224,0,0,0,2.866-3.48,3.83,3.83,0,0,0-4-3.316,3.356,3.356,0,0,0-2.872,3.3A4.357,4.357,0,0,0,540.177,252.409Z" transform="translate(-94.642 -7.648)" fill="#127e7b"/>
    <path id="Path_141" data-name="Path 141" d="M550.448,228.162c.137-.785.687-1.163,1.572-1.737,2.362,2.685,4.983,5.142,7.147,7.937-.108.924-.7,1.245-1.3,1.633-1.4-.559-2-2.051-3.349-2.729a11.792,11.792,0,0,0-3.1,2.526c.506,1.477,1.923,2.262,2.558,3.544a2.06,2.06,0,0,1-1.647,1.516l-7.115-7.656a2.9,2.9,0,0,1,1.5-1.766c1.334.555,1.912,1.984,3.058,2.93a23.531,23.531,0,0,0,3.34-2.761C552.437,230.136,550.931,229.53,550.448,228.162Z" transform="translate(-96.784 -4.473)" fill="#127e7b"/>
    <path id="Path_142" data-name="Path 142" d="M627.841,205.628a1.806,1.806,0,0,1,2.089.215c.44,1.39-.627,2.689-.415,4.2a10.662,10.662,0,0,0,3.888.793c1.278-1.106.457-2.953,1.512-4.067a1.741,1.741,0,0,1,1.728.38c.316,1.515-.957,8.424-1.952,10.605a2.335,2.335,0,0,1-1.974-.365c-.215-1.4.688-2.725.406-4.269a11.592,11.592,0,0,0-3.8-.88c-1.1,1.154-.624,2.789-1.363,3.984-.767.494-1.41.266-2.258-.311A87.954,87.954,0,0,1,627.841,205.628Z" transform="translate(-112.112 -0.469)" fill="#127e7b"/>
    <path id="Path_143" data-name="Path 143" d="M797.572,244.452c1.732.634,3.423.442,5.13.83a2.653,2.653,0,0,1-2.675,2.081,11.952,11.952,0,0,0-3.936.2c.346,1.521,2.181,1.629,2.617,2.966a2.148,2.148,0,0,1-1.316,1.586c-2.99-1.709-5.439-4.256-8.183-6.089-.483-.806-.015-1.244.306-1.65a23.559,23.559,0,0,1,2.291-2.647c2.177-2.038,4.865-1.143,5.551,1.8Zm-5.554.495a5.313,5.313,0,0,0,2.141,1.479c.785-.592,1.444-1.214,1.082-2.308a1.28,1.28,0,0,0-1.374-1.015A2.121,2.121,0,0,0,792.019,244.947Z" transform="translate(-143.207 -7.178)" fill="#127e7b"/>
    <path id="Path_144" data-name="Path 144" d="M429.472,360.408a3.752,3.752,0,0,1,1.754-1.881c1.584.051,3.084.861,4.9,1.236-.458-.937-1.213-1.269-1.764-1.8-1.243-1.187-1.154-1.813.554-2.89a78.7,78.7,0,0,1,6.578,6.477c-.887,1.7-1.386,1.983-2.942,1.572-1.291-.341-2.554-.78-4.006-1.23.815,1.611,2.421,2.187,3.2,3.471a1.965,1.965,0,0,1-1.678,1.579A75.921,75.921,0,0,1,429.472,360.408Z" transform="translate(-74.744 -28.971)" fill="#127e7b"/>
    <path id="Path_145" data-name="Path 145" d="M604.619,215.517a1.807,1.807,0,0,1-2.139.338c-.653-1.208-.434-2.755-1.3-4.027-1.318.147-2.671-.006-3.851.725-.6,1.473.6,2.82.144,4.209a1.833,1.833,0,0,1-2.135.183,87.322,87.322,0,0,1-1.695-10.164,1.508,1.508,0,0,1,2.011-.5c.8,1.133.442,2.652,1.262,3.917,1.331-.076,2.74.13,3.965-.747.448-1.4-.582-2.685-.211-4.024a1.826,1.826,0,0,1,2.126-.266C603.713,208.515,604.046,212.093,604.619,215.517Z" transform="translate(-106.006 -0.383)" fill="#127e7b"/>
    <path id="Path_146" data-name="Path 146" d="M577.9,218.538c1.3,1.159,2.9,1.618,4.046,2.738-1.2,1.282-1.745,1.419-3.034.725-.7-.379-1.375-.819-2.039-1.265a1.656,1.656,0,0,0-1.763-.33c-.143,1.388,1.057,2.336,1.169,3.669-.361.753-1.073.831-2.033,1-1.456-3.27-3.188-6.353-4.458-9.772a10.779,10.779,0,0,1,5.246-2.364c2.01-.312,3.689,1.758,3.314,3.889C578.254,217.367,578.072,217.891,577.9,218.538Zm-3.78-.022c1.843-.785,2.335-1.513,1.775-2.481-.5-.859-1.519-.872-2.867-.009A3.515,3.515,0,0,0,574.119,218.516Z" transform="translate(-101.463 -1.899)" fill="#127e7b"/>
    <path id="Path_147" data-name="Path 147" d="M336.987,384.121c-1.955-.261-2.6-1.1-2.523-2.588a21.808,21.808,0,0,0-.136-3.664c-.953,1.228-1.233,2.8-2.277,3.884a2.366,2.366,0,0,1-2.009-.941c1.03-2.927,2.645-5.64,3.938-8.444,2.3.521,2.665.928,2.731,2.81.028.8.034,1.6.069,2.4,0,.1.121.187.245.363.9-.876.818-2.315,1.767-3.088.781-.189,1.356.073,2.065.861Z" transform="translate(-55.81 -32.264)" fill="#127e7b"/>
    <path id="Path_148" data-name="Path 148" d="M301.483,350.356c-1.456.506-2.242,1.928-3.584,2.459-.895-.2-1.235-.814-1.576-1.788l7.337-5.57c1.9,1.116,2.046,1.482,1.38,3.166-.4,1.011-.826,2.011-1.308,3.179,1.357-.5,2.108-1.579,3.169-2.016a1.686,1.686,0,0,1,1.426,1.314c0,.635-.438.9-.829,1.2-1.764,1.344-3.532,2.683-5.287,4.04-.558.432-1.134.887-1.816.372a1.752,1.752,0,0,1-.714-2.116c.309-.8.734-1.561,1.069-2.355C301.006,351.637,301.513,351.13,301.483,350.356Z" transform="translate(-49.389 -27.139)" fill="#127e7b"/>
    <path id="Path_149" data-name="Path 149" d="M924.138,224.361a1.45,1.45,0,0,1-1.248.765c-.876-.282-1.087-1.074-1.546-1.631a3.262,3.262,0,0,0-5.363.072c-1.5,1.877-1.546,4.815,2.088,5.779a1.123,1.123,0,0,0,.757-.936c.021-.626-.777-.831-.708-1.463.944-1.379,1.514-1.236,3.681.98a10.994,10.994,0,0,1-2.218,3.573c-2.889.756-6.49-2.03-6.858-4.962-.373-2.973,1.642-6.065,4.269-6.528A5.91,5.91,0,0,1,924.138,224.361Z" transform="translate(-166.758 -3.228)" fill="#127e7b"/>
    <path id="Path_150" data-name="Path 150" d="M405.43,220.216c-.844.12-1.37-.243-1.962-1.044a80.729,80.729,0,0,1,3.547-8.652,13.9,13.9,0,0,1,5.193,2.528c1.29,1.091.907,3.361-.585,4.326a12.4,12.4,0,0,1-1.56.726c-.379,1.355.7,2.7.257,4.089-2-.232-2.374-.555-2.591-2.27a5.255,5.255,0,0,0-.682-2.416C406.144,218.189,406.26,219.435,405.43,220.216Zm2.615-5.123c.786.509,1.46.776,2.028-.146a1.356,1.356,0,0,0-1.227-1.3A1.588,1.588,0,0,0,408.045,215.093Z" transform="translate(-69.792 -1.444)" fill="#127e7b"/>
    <path id="Path_151" data-name="Path 151" d="M311.067,366.5a4.931,4.931,0,0,1-4.8-4.691c0-2.583,2.8-5.291,5.383-5.4,2.468-.108,4.679,2.349,4.818,4.711C316.62,363.629,313.642,366.488,311.067,366.5Zm.939-7.716a5.521,5.521,0,0,0-3.152,2.722,1.544,1.544,0,0,0,.262,2.012,1.585,1.585,0,0,0,1.995.454,5.358,5.358,0,0,0,2.716-2.878A1.828,1.828,0,0,0,312.006,358.787Z" transform="translate(-51.284 -29.224)" fill="#127e7b"/>
    <path id="Path_152" data-name="Path 152" d="M335.455,218.9c1.086,1.126,2.686,1.135,3.416,2.387-1.344,1.41-1.675,1.467-3.165.69a6.931,6.931,0,0,0-2.3-1c-.028,1.04.8,1.839.691,2.829a1.414,1.414,0,0,1-1.587.946,27.671,27.671,0,0,1-4.259-8.36,7.306,7.306,0,0,1,3.871-2.227c2.587-.643,4.343,1.295,3.61,3.861C335.653,218.306,335.554,218.59,335.455,218.9Zm-3.544-.525c.83-.24,1.586-.482,1.236-1.481-.2-.571-.792-.556-1.262-.29C331.044,217.079,331.235,217.659,331.912,218.372Z" transform="translate(-55.47 -2.113)" fill="#127e7b"/>
    <path id="Path_153" data-name="Path 153" d="M783.3,255.827a2.831,2.831,0,0,1,1.056-1.859,106.583,106.583,0,0,1,11.192,1.358,1.784,1.784,0,0,1-.833,2.039c-3.042.07-3.244.23-4.309,3.394.1.864.981,1.251,1.249,2.09a1.752,1.752,0,0,1-.811,1.669C789.537,263.971,784.51,258.189,783.3,255.827Zm3.36.682c.656.852,1,1.97,2.187,2.456.432-.592.941-1.041.718-1.873C788.736,256.512,787.711,256.635,786.66,256.509Z" transform="translate(-142.121 -9.718)" fill="#127e7b"/>
    <path id="Path_154" data-name="Path 154" d="M443.524,346.142a1.756,1.756,0,0,1,.367,1.762,14.445,14.445,0,0,0-1.584,1.452,1.731,1.731,0,0,0,.182,2.629,6.837,6.837,0,0,0,2.262,1.574,1.7,1.7,0,0,0,2-.546c.426-.523.61-1.085-.038-1.562-.7-.239-.981.5-1.613.557a2.13,2.13,0,0,1-1.393-.758,8.069,8.069,0,0,1,2.379-3.269c1.577.466,2.576,1.669,3.748,2.437.062,2.821-2.332,5.687-4.756,5.873-2.214.17-5.211-2.289-5.584-4.582A5.057,5.057,0,0,1,443.524,346.142Z" transform="translate(-76.641 -27.27)" fill="#127e7b"/>
    <path id="Path_155" data-name="Path 155" d="M569.847,228.063l-2.192-1.238a7.633,7.633,0,0,0-3.153,2.212c-.175,1.307,1.048,3.161-1.388,3.553-.709-.251-.735-.932-.86-1.509-.585-2.71-1.137-5.43-1.7-8.145-.357-1.713-.237-1.92,1.76-2.794,3.165,2.007,6.3,4.228,9.326,6.592A2.43,2.43,0,0,1,569.847,228.063Zm-4.248-2.685a7.739,7.739,0,0,0-2.614-2.026,5.405,5.405,0,0,0,1.07,3.184A2.41,2.41,0,0,0,565.6,225.378Z" transform="translate(-99.675 -3.276)" fill="#127e7b"/>
    <path id="Path_156" data-name="Path 156" d="M683.107,252.35c-2.005-1.278-.727-2.588-.33-3.866-.369-1.307-1.4-2.129-2.119-3.166-1.459.037-3.216,1.351-3.906-1.12,1.013-.882,2.349-1,3.524-1.417,2.086-.745,4.244-1.289,6.364-1.942a1.612,1.612,0,0,1,1.956.6,1.545,1.545,0,0,1,.2,1.879c-1.7,2.86-3.389,5.727-5.1,8.581C683.58,252.085,683.322,252.188,683.107,252.35Zm2.658-8.836c-.937.56-2.145.285-2.931,1.153a2.163,2.163,0,0,0,1.4,1.612A6.281,6.281,0,0,0,685.765,243.514Z" transform="translate(-121.832 -7.197)" fill="#127e7b"/>
    <path id="Path_157" data-name="Path 157" d="M65.592,224.794a2.265,2.265,0,0,1,1.418,1.344c-.112,1.411-1.628,1.652-1.971,3.049,1.834,2.451,4.519,4.4,6.309,7.052a3.1,3.1,0,0,1-1.791,1.7l-6.719-6.709c-1.351.22-1.679,1.559-2.756,1.767-1.759-.9-1.892-1.536-.582-2.807,1.5-1.46,3.008-2.922,4.528-4.364A2.916,2.916,0,0,1,65.592,224.794Z" transform="translate(-4.126 -4.162)" fill="#127e7b"/>
    <path id="Path_158" data-name="Path 158" d="M860.178,215.534c-1.961,1.016-2.512-.593-3.345-1.741l-3.646.308c-.948,1.136-.534,3.7-3.216,2.95-.138-1.783.732-3.352.945-5.04A47.916,47.916,0,0,1,852,207.156c.2-.866.456-1.663,1.566-1.766a1.818,1.818,0,0,1,1.9,1.132c1.356,2.41,2.77,4.789,4.135,7.194A2.589,2.589,0,0,1,860.178,215.534Zm-4.5-3.782a6.762,6.762,0,0,0-1.626-2.853c-.391,1.087-.855,1.937-.379,2.887A2.078,2.078,0,0,0,855.676,211.752Z" transform="translate(-154.814 -0.465)" fill="#127e7b"/>
    <path id="Path_159" data-name="Path 159" d="M960.1,283.151c-1-1.164-.525-2.813-1.416-4a1.6,1.6,0,0,0-2,.4c-.246,1.051.453,2.037.235,3.119a1.147,1.147,0,0,1-1.443.459c-.828-.747-.543-1.992-1.213-2.851a1.689,1.689,0,0,0-1.937.141c-.741,1.456.557,2.813.33,4.243-.334.583-.842.7-1.683.6a43.757,43.757,0,0,1-1.557-6.821,104.119,104.119,0,0,1,10.75-2.46,39.173,39.173,0,0,1,1.483,6.392A1.384,1.384,0,0,1,960.1,283.151Z" transform="translate(-173.752 -13.91)" fill="#127e7b"/>
    <path id="Path_160" data-name="Path 160" d="M346.441,208.248a32.9,32.9,0,0,1,2.339,7.11c.308,1.669-1.04,3.072-3.2,3.718-1.924.574-3.292.137-4.084-1.467a30.206,30.206,0,0,1-2.316-6.468,1.593,1.593,0,0,1,2.09-.908c1.212,1.826,1.5,4.173,2.605,6.134a1.668,1.668,0,0,0,2.188-.244c.191-2.456-1.289-4.579-1.921-6.809C344.723,208.333,345.573,208.518,346.441,208.248Z" transform="translate(-57.55 -1.012)" fill="#127e7b"/>
    <path id="Path_161" data-name="Path 161" d="M414.644,372.022a3.816,3.816,0,0,1-.227,1.88c-.862.852-2.629.2-3.242,1.8.784.665,1.626.323,2.435.189,1.822-.3,2.982.138,3.662,1.41.723,1.355.426,2.672-.889,3.977-1.384,1.371-2.94,2.23-4.913,1.771a1.1,1.1,0,0,1-.186-1.613c1.154-.587,2.707-.641,3.579-2.029-.666-1-1.524-.593-2.332-.457-1.989.338-3.071-.1-3.767-1.523a3.332,3.332,0,0,1,1.472-4.29,7.184,7.184,0,0,1,4.419-1.1Z" transform="translate(-70.742 -32.196)" fill="#127e7b"/>
    <path id="Path_162" data-name="Path 162" d="M642.418,218.171c1.282.686,2.723.776,3.781,1.741a1.3,1.3,0,0,1-.508,1.582,22.049,22.049,0,0,1-6.324-2.395,107.334,107.334,0,0,1,3.45-10.19,24.989,24.989,0,0,1,6.367,2.121,1.272,1.272,0,0,1-.329,1.584c-1.557.362-2.694-1.048-4.13-.823a2.948,2.948,0,0,0-.85,1.858c.842.734,2.023.74,2.8,1.523a1.015,1.015,0,0,1-.323,1.451c-1.128.188-2.1-.574-3.17-.666A2.966,2.966,0,0,0,642.418,218.171Z" transform="translate(-114.713 -1.137)" fill="#127e7b"/>
    <path id="Path_163" data-name="Path 163" d="M325.942,378.911c-2.1-.667-2.106-.678-1.949-3.046a3.636,3.636,0,0,0-2.027-1.448c-.657.028-.983.738-1.918.825a2.246,2.246,0,0,1-1.575-1.035c.138-.942.886-1.368,1.487-1.831,1.66-1.279,3.362-2.5,5.086-3.7,1.5-1.035,1.86-.95,3.394.61A54.851,54.851,0,0,1,325.942,378.911Zm-.507-7.385c-1.331.763-1.331.763-.831,1.592C325.174,372.84,325.3,372.317,325.435,371.526Z" transform="translate(-53.607 -31.43)" fill="#127e7b"/>
    <path id="Path_164" data-name="Path 164" d="M118.783,215.612a3.9,3.9,0,0,1-.856-2.832,32.227,32.227,0,0,0-.6-7.523c-.446-1.725.165-2.234,2.268-2.322a2.652,2.652,0,0,1,.928,2.453c.041,1.724.015,3.451.116,5.171a3.983,3.983,0,0,0,.643,2.285,5.88,5.88,0,0,0,2.719-.27c1.822-.267,2.231.078,2.237,2.22A17.445,17.445,0,0,1,118.783,215.612Z" transform="translate(-15.277 0)" fill="#127e7b"/>
    <path id="Path_165" data-name="Path 165" d="M838.893,217.449a1.559,1.559,0,0,1,1.482.59c.177,1.024-1.287,2.563-3.122,3.3a5.189,5.189,0,0,1-6.419-2.17,6.05,6.05,0,0,1,.655-7.491,5,5,0,0,1,6.026-.959c.122.988-.327,1.492-1.324,1.534-.185.008-.371-.006-.555.01a3.43,3.43,0,0,0-3.371,2.618,4.9,4.9,0,0,0,1.766,4.057,3.663,3.663,0,0,0,4.2-.855C838.45,217.872,838.67,217.663,838.893,217.449Z" transform="translate(-150.983 -1.362)" fill="#127e7b"/>
    <path id="Path_166" data-name="Path 166" d="M622.083,214.094a5.321,5.321,0,0,1-7.476.363c-2.272-2.013-2.286-6.309-.029-8.52a5.512,5.512,0,0,1,7.88.167c-.031.633-.425.978-1.052,1.244a14.261,14.261,0,0,0-2.766-.687,2.71,2.71,0,0,0-2.78,1.732,4.164,4.164,0,0,0,.385,4.226,2.784,2.784,0,0,0,3.347.857C620.553,213.139,621.458,212.635,622.083,214.094Z" transform="translate(-109.672 -0.272)" fill="#127e7b"/>
    <path id="Path_167" data-name="Path 167" d="M585.076,211.835a1.676,1.676,0,0,0,1.6.8c.612.062,1.225.122,1.832.219a2.945,2.945,0,0,1,2.707,2.4,3.425,3.425,0,0,1-1.411,3.748,4.458,4.458,0,0,1-4.02.789c-1.128-.363-1.5-.979-.857-1.97.684-.468,1.287-.1,1.885-.079,1,.031,1.993-.105,2.075-1.3.088-1.281-1-1.147-1.853-1.2a10.266,10.266,0,0,1-1.655-.117,3.237,3.237,0,0,1-2.544-2.418,3.066,3.066,0,0,1,1.109-3.31,4.741,4.741,0,0,1,3.618-1.078c.663.06,1.409.329,1.324,1.233-.074.792-.72.891-1.378.9C586.458,210.483,585.392,210.5,585.076,211.835Z" transform="translate(-103.925 -1.021)" fill="#127e7b"/>
    <path id="Path_168" data-name="Path 168" d="M952.981,288.373a1.4,1.4,0,0,1,1.462.75c.05,1.108-1.014,2.247-.24,3.474a1.231,1.231,0,0,0,1.194.614c1.247-.544.985-1.918,1.325-2.963a3.18,3.18,0,0,1,2.392-2.331,3.055,3.055,0,0,1,3.028.967,4.417,4.417,0,0,1-.027,5.715,1.291,1.291,0,0,1-1.377-.8c-.211-1.154.958-2.637-.568-3.594-.872.057-1.084.661-1.273,1.248s-.3,1.2-.474,1.788a3.208,3.208,0,0,1-5.565,1.294A4.529,4.529,0,0,1,952.981,288.373Z" transform="translate(-174.19 -16.166)" fill="#127e7b"/>
    <path id="Path_169" data-name="Path 169" d="M950.125,274.147a5.282,5.282,0,0,1-3.195-6.919,6.138,6.138,0,0,1,7.9-3.2c2.192.95,4.449,4.771,2.749,7.18-.982.257-1.593-.074-1.676-1.213-.022-.308,0-.619-.033-.925a2.909,2.909,0,0,0-3.159-2.908,3.582,3.582,0,0,0-3.809,3.052,3.391,3.391,0,0,0,1.2,2.791A1.281,1.281,0,0,1,950.125,274.147Z" transform="translate(-173.213 -11.548)" fill="#127e7b"/>
    <path id="Path_170" data-name="Path 170" d="M373.864,391.568a3.431,3.431,0,0,1-2.432.051c-.614-1.428-1.443-2.5-3.216-1.93-1.589,2.24-1.589,2.24-3.356,1.67-.225-.369-.057-.7.083-1.048.951-2.332,1.906-4.663,2.846-7,.342-.851.756-1.53,1.859-1.425a1.969,1.969,0,0,1,1.891,1.673C372.257,386.211,373.065,388.838,373.864,391.568Zm-4.839-4.047c1.154-.759,1.157-.785.312-1.884A2.268,2.268,0,0,0,369.025,387.521Z" transform="translate(-62.419 -34.074)" fill="#127e7b"/>
    <path id="Path_171" data-name="Path 171" d="M352.439,207.181a10.826,10.826,0,0,1,5.681-1.462c.749,1.437.566,1.864-1,2.282-.768.206-1.771.069-1.9,1.286.919.763,1.853-.178,2.707.168,1.1,1.577,1.1,1.577-1.7,2.7a2.075,2.075,0,0,0,.4,1.312c1.1.207,2.145-.537,3.255-.241,1.012,1.43.89,1.947-.684,2.26-1.6.317-3.18.994-4.99.6A60.937,60.937,0,0,1,352.439,207.181Z" transform="translate(-60.075 -0.53)" fill="#127e7b"/>
    <path id="Path_172" data-name="Path 172" d="M681.54,234.8c-.818.616-1.456.451-1.915-.47-.11-.221-.18-.462-.3-.676a3.154,3.154,0,0,0-3.389-1.709,4.122,4.122,0,0,0-3.088,3.311,3.126,3.126,0,0,0,1.964,3.239c1.524.731,1.524.731,1.361,2a4.7,4.7,0,0,1-5.053-2.391c-1.269-2.042-.957-4.546.833-6.664a5.709,5.709,0,0,1,6.414-1.533A5,5,0,0,1,681.54,234.8Z" transform="translate(-120.612 -5.054)" fill="#127e7b"/>
    <path id="Path_173" data-name="Path 173" d="M428.682,229.38c-1.177-.034-1.541-1.092-2.513-1.285-.853.652-.917,1.325-.015,2.037a5.028,5.028,0,0,1,1.7,1.64c-.265.84-.265.84-1.056,1.527a33.988,33.988,0,0,1-4.8-3.582c1.446-3.055,3.712-5.291,5.668-7.923a20.879,20.879,0,0,1,4.713,3.7,1.292,1.292,0,0,1-.988,1.282c-1.341.017-1.828-1.7-3.189-1.269-.219.07-.3.373-.259.7.352.676,1.3.874,1.6,1.758C429.615,228.61,429.175,229.007,428.682,229.38Z" transform="translate(-73.32 -3.591)" fill="#127e7b"/>
    <path id="Path_174" data-name="Path 174" d="M401.8,380.27c1.134.576,1.962-.378,2.992-.087,1.529,2.215-1.439,1.907-1.836,3.2-.019.828.6.952,1.354.808.483-.092.942-.3,1.421-.415,1.366-.328,1.589-.126,1.677,1.615a16.443,16.443,0,0,1-5.755,1.94,58.478,58.478,0,0,1-3.051-9.015,19.032,19.032,0,0,1,5.589-2.063c.75,1.232.508,1.942-.718,2.384C402.731,378.9,401.72,378.977,401.8,380.27Z" transform="translate(-68.866 -33.003)" fill="#127e7b"/>
    <path id="Path_175" data-name="Path 175" d="M690.7,262.5a2.157,2.157,0,0,1,1.694.62c.393.667.082,1.453.3,2.152.239.776.547,1.65,1.561,1.5.994-.151,1.154-.97,1.006-1.855-.04-.242-.093-.484-.115-.729-.2-2.21.929-3.947,2.716-4.189s3.772,1.511,4,3.584a2.849,2.849,0,0,1-.253,1.979,1.011,1.011,0,0,1-1.464-.049c-.36-.566-.181-1.229-.4-1.8-.253-.678-.619-1.261-1.467-1.088-.789.162-.831.817-.783,1.456.033.427.163.848.2,1.276a3.284,3.284,0,0,1-1.943,3.45,3.164,3.164,0,0,1-3.866-.811c-1.545-1.58-1.639-3.485-1.167-5.5Z" transform="translate(-124.442 -10.861)" fill="#127e7b"/>
    <path id="Path_176" data-name="Path 176" d="M418.367,215.866a34.289,34.289,0,0,1,5.1,2.952,1.525,1.525,0,0,1-1.057,1.5c-1.1-.045-1.756-1.009-2.757-1.129-.552.045-.669.436-.755.85,2.053,1.781,2.053,1.781,1.218,3.057-.922.162-1.541-.733-2.442-.716-.542.149-.759.551-.8,1.167.642.963,2.022,1.065,2.69,2.044-.128.96-.128.96-.941,1.7a24.982,24.982,0,0,1-5.113-3.083A51.547,51.547,0,0,1,418.367,215.866Z" transform="translate(-71.704 -2.462)" fill="#127e7b"/>
    <path id="Path_177" data-name="Path 177" d="M880.012,216.174a2.152,2.152,0,0,1-2-.538,72.046,72.046,0,0,1,1.677-10.516,31.5,31.5,0,0,1,5.793.67c.98.191,1,.362.828,1.849-1.427.8-2.839-.4-4.308-.106a2.251,2.251,0,0,0-.452,2.252c.967.657,2.285.325,3.239,1a1.287,1.287,0,0,1-.128,1.654c-1.184.4-2.219-.535-3.346-.165C880.445,213.39,880.845,214.928,880.012,216.174Z" transform="translate(-160.156 -0.416)" fill="#127e7b"/>
    <path id="Path_178" data-name="Path 178" d="M816.419,224.343c1.333-.194,2.038-1.367,3.2-1.584.674.114.921.574,1.079,1.2-.641,1.1-2.067,1.331-2.78,2.472.232,1.257,1.3,2.141,1.789,3.321a2.492,2.492,0,0,1-1.711,1.494c-2.264-2.911-4.068-6.025-6.1-9.128a41.944,41.944,0,0,1,5.448-3.786,1.391,1.391,0,0,1,1.292,1.244c-.7,1.357-2.527,1.455-3.315,2.8A3.763,3.763,0,0,0,816.419,224.343Z" transform="translate(-147.566 -2.931)" fill="#127e7b"/>
    <path id="Path_179" data-name="Path 179" d="M324.061,219.121c.459,1.022.372,1.766-.631,2.23-1.033.477-1.829,1.161-1.584,2.407a4.02,4.02,0,0,0,2.5,3.01c1.115.453,2.009-.215,2.694-1.118a2.652,2.652,0,0,1,.392-.354,1.228,1.228,0,0,1,1.481.419c.424,1.194-1.508,3.132-3.6,3.639-2.5.606-5.4-1.6-5.826-4.431A4.79,4.79,0,0,1,324.061,219.121Z" transform="translate(-53.787 -3.082)" fill="#127e7b"/>
    <path id="Path_180" data-name="Path 180" d="M802.84,229.656a1.675,1.675,0,0,1,.831,1.018c-.313,1.048-1.346,1.513-1.78,2.655l5.91,5.947c-.053,1.022-.657,1.343-1.337,1.837-2.391-1.743-4.112-4.2-6.392-5.975-1.077.3-1.428,1.456-2.44,1.749-.685-.083-1.008-.57-1.329-1.214Z" transform="translate(-144.597 -5.088)" fill="#127e7b"/>
    <path id="Path_181" data-name="Path 181" d="M389.349,205.86c-1.633,2.932-4.825,4.892-4.1,8.407-1.1.761-1.814.688-2.542.07-.52-1.567.576-3.214-.29-4.847a17.444,17.444,0,0,1-1.776-4.693c3.038-1.058,2.838,1.932,3.986,3.219C386.03,206.906,386.5,204.127,389.349,205.86Z" transform="translate(-65.446 -0.312)" fill="#127e7b"/>
    <path id="Path_182" data-name="Path 182" d="M397.18,207.715c2.132-.087,3.9.755,5.737,1.29-.317,1.7-.481,1.83-2.081,1.55-.791-.139-1.6-.457-1.924.732.409.939,2.846.584,1.733,2.465-.821.621-1.636-.062-2.392.173-.611.393-.557,1.077-.762,1.641a3.456,3.456,0,0,1-.653,1.559c-.746.346-1.375.028-2.128-.56A78.726,78.726,0,0,1,397.18,207.715Z" transform="translate(-68.124 -0.909)" fill="#127e7b"/>
    <path id="Path_183" data-name="Path 183" d="M863.915,204.927a2.089,2.089,0,0,1,2.249-.189c.58,2.694-.052,5.495.413,8.219,1.171.848,2.605.058,3.754.679.566.544.49,1.093.028,1.819a21.674,21.674,0,0,1-6.045.031A43.758,43.758,0,0,1,863.915,204.927Z" transform="translate(-157.444 -0.298)" fill="#127e7b"/>
    <path id="Path_184" data-name="Path 184" d="M689.675,260.51c-.478.055-.943.35-1.6-.008-.906-1.562-1.89-3.259-3.055-5.265,2.966-2.2,6.232-3.737,9.174-5.647a1.923,1.923,0,0,1,1.245,1.933c-2.139,1.807-4.786,2.918-7.041,4.537-.155.993.559,1.537.9,2.234s.914,1.375.364,2.228Z" transform="translate(-123.406 -8.884)" fill="#127e7b"/>
    <path id="Path_185" data-name="Path 185" d="M416.11,370.929c.032-.371.04-.785.366-1.01a35.012,35.012,0,0,1,5.751-3.717,1.355,1.355,0,0,1,1.076,1.451c-.265.828-1.237.823-1.693,1.6,1.155,2.051,2.671,3.984,3.635,6.124a1.876,1.876,0,0,1-1.714,1.269c-1.767-1.521-2.395-3.969-4.124-5.448-.812-.273-1.34.412-2.161.387-.388-.027-.715-.448-1.146-.671Z" transform="translate(-72.198 -31.09)" fill="#127e7b"/>
    <path id="Path_186" data-name="Path 186" d="M395.143,389.043a2,2,0,0,1-1.947.425c-1.324-2.054-1.151-4.67-2.035-6.725-.8-.5-1.414.032-2.075-.2-.534-.343-.727-.869-.514-1.772a43.173,43.173,0,0,1,7.111-1.483c.359,1.664.359,1.664-1.6,2.655a14.832,14.832,0,0,0,.608,3.6A9.379,9.379,0,0,1,395.143,389.043Z" transform="translate(-66.939 -33.582)" fill="#127e7b"/>
    <path id="Path_187" data-name="Path 187" d="M370.168,212.715c.1.944-.122,1.677-1.137,1.783-1.453.152-2.918.192-4.614.293a32.415,32.415,0,0,1-.882-9.382,1.779,1.779,0,0,1,2.273-.148,38.425,38.425,0,0,1,.739,6.577C367.654,212.766,368.992,211.893,370.168,212.715Z" transform="translate(-62.171 -0.378)" fill="#127e7b"/>
    <path id="Path_188" data-name="Path 188" d="M377.7,382.54a2.016,2.016,0,0,1,2.205-.173c.708,2.15.119,4.588,1,6.8.893.688,2.069.008,3,.563.454,1.422.325,1.846-.846,1.95a15.8,15.8,0,0,1-4.9-.13C378.133,388.545,377.391,385.561,377.7,382.54Z" transform="translate(-64.872 -34.121)" fill="#127e7b"/>
    <path id="Path_189" data-name="Path 189" d="M372.492,206.612l-1.844-.41c-.517-.932-.4-1.667.725-1.716a37.356,37.356,0,0,1,6.411.083c.495,1.928-1.008,1.7-1.929,2.021-.861,1.367-.631,2.87-.666,4.329-.016.677,0,1.355-.021,2.032-.023.733-.217,1.388-1.112,1.4s-1.144-.606-1.156-1.356c-.023-1.416-.01-2.834-.026-4.249A3.69,3.69,0,0,0,372.492,206.612Z" transform="translate(-63.486 -0.277)" fill="#127e7b"/>
    <path id="Path_190" data-name="Path 190" d="M808.287,225.66c2.355,2.682,4.572,5.433,6.668,8.189-.087.925-.7,1.218-1.469,1.764-2.549-2.656-4.7-5.57-6.917-8.268A2.321,2.321,0,0,1,808.287,225.66Z" transform="translate(-146.552 -4.327)" fill="#127e7b"/>
    <path id="Path_191" data-name="Path 191" d="M670.341,223.287a2.04,2.04,0,0,1,1.8,1.439,92.706,92.706,0,0,1-6.212,8.387A2.093,2.093,0,0,1,664,231.925,103.9,103.9,0,0,1,670.341,223.287Z" transform="translate(-119.403 -3.875)" fill="#127e7b"/>
    <path id="Path_192" data-name="Path 192" d="M822.313,216.382a2.943,2.943,0,0,1,1.99-1.164c1.937,2.929,3.382,6.222,5.132,9.342a2.189,2.189,0,0,1-1.984,1.238C825.44,222.874,824.113,219.521,822.313,216.382Z" transform="translate(-149.55 -2.339)" fill="#127e7b"/>
    <path id="Path_193" data-name="Path 193" d="M842.214,208.455a2.013,2.013,0,0,1,2.328-.573l2.644,9.8a2.064,2.064,0,0,1-2.191.99C843.929,215.327,843.008,211.882,842.214,208.455Z" transform="translate(-153.34 -0.915)" fill="#127e7b"/>
    <path id="Path_194" data-name="Path 194" d="M342.617,385.992c1.072-2.931,1.52-6,3.037-8.568a2.394,2.394,0,0,1,2.2.576c-.378,3.195-2.127,5.929-2.881,8.858A1.743,1.743,0,0,1,342.617,385.992Z" transform="translate(-58.205 -33.212)" fill="#127e7b"/>
    <path id="Path_195" data-name="Path 195" d="M424.749,365.154a2.615,2.615,0,0,1,1.939-1.529c2.3,2.114,3.875,4.869,5.837,7.2a2.46,2.46,0,0,1-1.859,1.5C428.353,370.294,426.9,367.438,424.749,365.154Z" transform="translate(-73.844 -30.599)" fill="#127e7b"/>
    <path id="Path_196" data-name="Path 196" d="M219.449,290.2c-.728,1.834-1.334,2.289-2.734,2.076a1.759,1.759,0,0,1-1.607-1.912,2.3,2.3,0,0,1,1.592-2.415C217.691,287.734,218.687,288.549,219.449,290.2Z" transform="translate(-33.924 -16.182)" fill="#127e7b"/>
    <path id="Path_197" data-name="Path 197" d="M41.1,290.285A1.958,1.958,0,0,1,38.8,292.3c-1.385-.049-1.856-.615-1.807-2.173a2.094,2.094,0,0,1,1.966-2.214A2.468,2.468,0,0,1,41.1,290.285Z" transform="translate(-0.006 -16.182)" fill="#127e7b"/>
    <path id="Path_198" data-name="Path 198" d="M704.176,286.424a1.921,1.921,0,0,1-1.969-1.968,2.164,2.164,0,0,1,2.093-2.117,2.223,2.223,0,0,1,2.005,2.035A2.045,2.045,0,0,1,704.176,286.424Z" transform="translate(-126.679 -15.12)" fill="#127e7b"/>
    <path id="Path_199" data-name="Path 199" d="M958.044,309.36a2.143,2.143,0,0,1-2.162-1.867,2.066,2.066,0,0,1,2.127-2.082,2.222,2.222,0,0,1,2.077,1.992A2.032,2.032,0,0,1,958.044,309.36Z" transform="translate(-174.984 -19.514)" fill="#127e7b"/>
    <path id="Path_200" data-name="Path 200" d="M526.965,284.342a1.842,1.842,0,0,1-1.836,2.086,1.81,1.81,0,0,1-1.985-1.926,1.886,1.886,0,0,1,1.8-2.132A2.043,2.043,0,0,1,526.965,284.342Z" transform="translate(-92.581 -15.126)" fill="#127e7b"/>
    <path id="Path_201" data-name="Path 201" d="M780.057,307.421a1.812,1.812,0,0,1-1.975,1.938,2,2,0,0,1-1.982-2.006,1.939,1.939,0,0,1,2.034-1.943A1.849,1.849,0,0,1,780.057,307.421Z" transform="translate(-140.75 -19.513)" fill="#127e7b"/>
    <path id="Path_202" data-name="Path 202" d="M850.053,257.353a1.992,1.992,0,0,1,1.987,1.188c-.185,1.048-.815,1.305-1.706.809C849.461,258.865,849.38,258.174,850.053,257.353Z" transform="translate(-154.747 -10.362)" fill="#127e7b"/>
    <path id="Path_203" data-name="Path 203" d="M852.067,275.66a1.79,1.79,0,0,1-1.928,1.29,1.015,1.015,0,0,1-.027-1.806C850.856,274.552,851.577,274.547,852.067,275.66Z" transform="translate(-154.741 -13.675)" fill="#127e7b"/>
    <path id="Path_204" data-name="Path 204" d="M856.239,261.524c-.991.925-1.752.661-2.33-.119a.813.813,0,0,1,.467-1.334C855.4,259.842,855.941,260.467,856.239,261.524Z" transform="translate(-155.53 -10.871)" fill="#127e7b"/>
    <path id="Path_205" data-name="Path 205" d="M856.117,272.861c.05,1.027-.59,1.424-1.464,1.536a.8.8,0,0,1-.835-.61.917.917,0,0,1,.39-1.133C854.883,272.209,855.555,271.991,856.117,272.861Z" transform="translate(-155.537 -13.202)" fill="#127e7b"/>
    <path id="Path_206" data-name="Path 206" d="M855.706,267.539c-1.306.766-1.306.766-2.54.16a.911.911,0,0,1,.747-1.341A1.4,1.4,0,0,1,855.706,267.539Z" transform="translate(-155.408 -12.069)" fill="#127e7b"/>
    <path id="Path_207" data-name="Path 207" d="M848.349,267.253c.219-.936.887-1.036,1.668-.869a.906.906,0,0,1,.776.878.8.8,0,0,1-.74.871C849.295,268.247,848.585,268.208,848.349,267.253Z" transform="translate(-154.508 -12.069)" fill="#127e7b"/>
    <path id="Path_208" data-name="Path 208" d="M859.992,270.918a1.114,1.114,0,0,1-1.127,1.014.809.809,0,0,1-.949-.882A1,1,0,0,1,859,270.026.91.91,0,0,1,859.992,270.918Z" transform="translate(-156.33 -12.775)" fill="#127e7b"/>
    <path id="Path_209" data-name="Path 209" d="M859.971,267.334a1.017,1.017,0,0,1-1.2.82c-.547-.039-.933-.339-.857-.93a.96.96,0,0,1,1.172-.851A.9.9,0,0,1,859.971,267.334Z" transform="translate(-156.327 -12.078)" fill="#127e7b"/>
    <path id="Path_210" data-name="Path 210" d="M860,263.578a.9.9,0,0,1-.976.885.947.947,0,0,1-1.045-.831.821.821,0,0,1,.853-.971A1.024,1.024,0,0,1,860,263.578Z" transform="translate(-156.339 -11.372)" fill="#127e7b"/>
    <path id="Path_211" data-name="Path 211" d="M367.408,287.382c.683-.569.767-1.485,1.129-2.238a112.876,112.876,0,0,1,8.516-15.166,46.234,46.234,0,0,1,6.638-7.935,14.473,14.473,0,0,1,5.751-3.266c5.429-1.61,10.111,2.92,8.985,8.662a21.938,21.938,0,0,1-2.645,6.493c-2.808,4.985-6.559,9.248-10.383,13.444A95.3,95.3,0,0,1,376,296.8c-2.183,1.811-4.34,3.65-6.677,5.269a2.455,2.455,0,0,1-3.2-.057,73.3,73.3,0,0,1-6.876-5.614q-7.609-7.03-14.541-14.746a66.862,66.862,0,0,1-5.961-6.819c-1.71-2.511-3.165-5.179-3.206-8.345a6.347,6.347,0,0,1,4.591-6.242,11.509,11.509,0,0,1,10.969,2.119,35.3,35.3,0,0,1,8.334,9.823,86.89,86.89,0,0,1,7.067,14.043C366.666,286.664,366.747,287.208,367.408,287.382Z" transform="translate(-56.856 -10.571)" fill="#127e7b"/>
    <path id="Path_212" data-name="Path 212" d="M379.787,336.122a2.441,2.441,0,0,1-1.979-1.926,2.084,2.084,0,0,1,1.966-1.861,1.894,1.894,0,1,1,.012,3.787Z" transform="translate(-64.906 -24.641)" fill="#127e7b"/>
    <path id="Path_213" data-name="Path 213" d="M369.573,334.3a1.823,1.823,0,0,1-1.923,1.813,1.688,1.688,0,0,1-1.5-1.96,1.723,1.723,0,0,1,1.877-1.8A1.746,1.746,0,0,1,369.573,334.3Z" transform="translate(-62.685 -24.643)" fill="#127e7b"/>
    <path id="Path_214" data-name="Path 214" d="M900.459,324.842a24.19,24.19,0,0,1-6.825,15.824,7.428,7.428,0,0,1-.814.748,1.193,1.193,0,0,1-1.533.109,1.327,1.327,0,0,1-.407-1.66,6.052,6.052,0,0,1,1.268-1.8,19.841,19.841,0,0,0,5.334-13.017,7.4,7.4,0,0,1,.148-1.28c.172-.847.566-1.593,1.553-1.5s1.239.885,1.276,1.753C900.469,324.265,900.459,324.511,900.459,324.842Z" transform="translate(-162.582 -22.722)" fill="#127e7b"/>
    <path id="Path_215" data-name="Path 215" d="M629.744,346.881h-39.3a2.155,2.155,0,0,1,.251-2.425q5.862-10.3,11.707-20.6a2.132,2.132,0,0,1,2.044-1.275q5.65.036,11.3,0a2.144,2.144,0,0,1,2.039,1.29c3.837,6.762,7.714,13.5,11.561,20.259C629.8,344.913,630.381,345.717,629.744,346.881Z" transform="translate(-105.344 -22.783)" fill="#127e7b"/>
  </g>
</svg>
