<svg xmlns="http://www.w3.org/2000/svg" width="3450.25" height="422.043" viewBox="0 0 3450.25 422.043">
  <defs>
    <style>
      .cls-1 {
        fill: #127e7b;
      }
    </style>
  </defs>
  <path id="servicos-img" class="cls-1" d="M3465.329,447.233c-33.374-6.585-89.53-8.184-167.542,21.582-138.178,52.722-317.444,28.449-337.429,25.507-7.484-1.1-16.123-4.653-18.844-5.827v-.025l-.824-.336-.062-.028v0l-.065-.025c-.465-.185-.93-.372-1.377-.592a304.657,304.657,0,0,0-35.3-15.15,101.324,101.324,0,0,0-27.437-5.719c-7.6-.456-15.584.734-24.4,3.632a104.389,104.389,0,0,0-26.032,13.166c-5,3.39-10.013,6.941-14.859,10.377-3.623,2.565-7.367,5.219-11.078,7.786-3.1,2.141-6.508,4.191-10.432,4.677-7.016.867-11.974-2.485-17.222-7.812.06-.193.12-.378.177-.554a15.569,15.569,0,0,0,.445-1.541c.144-.657.3-1.312.449-1.967a48.057,48.057,0,0,0,1.092-5.74c.32-3.026-1.157-4.192-2.455-4.637a5.052,5.052,0,0,0-5.469,1.981,7.43,7.43,0,0,0-1.184,7.592c.529,1.315,1.176,2.561,1.861,3.877.279.533.559,1.076.84,1.635-1.888,4.218-4.513,7.087-8.025,8.768a52.161,52.161,0,0,1-24.809,4.854,66.356,66.356,0,0,1-24.744-5.955c-10.459-4.57-21.042-9.483-31.458-14.6-5.055-2.483-9.978-5.469-14.74-8.358l-1.978-1.2a13.349,13.349,0,0,1-2.686-2.4c-.3-.32-.595-.633-.89-.924.35-.95.7-1.861,1.05-2.751a55.64,55.64,0,0,0,2.1-6.068,97.155,97.155,0,0,0,2.861-27.067c-.048-2.19-.322-5.292-2.1-7.2,0-1.437.024-2.828.044-4.187.049-3.141.1-6.109-.111-9.068-.209-3.016-.658-5.957-1.136-9.071-.168-1.1-.339-2.217-.5-3.344.326.117.586.21.845.307,1.516.567,3.024,1.165,4.532,1.763a108.043,108.043,0,0,0,10.194,3.653c8.642,2.456,17.394,4.556,26.345,6.671,4,.945,8.133,1.6,12.127,2.238l1.122.179a6.417,6.417,0,0,0,2.258-.2c.337-.07.682-.142,1.033-.19l.484-.066-.081-.481c-.383-2.318-1.974-2.85-3.216-3.266-4.177-1.4-8.494-2.849-12.816-4.024-9.287-2.527-18.751-5.009-27.9-7.411l-5.929-1.556c-.541-.142-1.082-.291-1.625-.438a45.635,45.635,0,0,0-6.324-1.41,7.56,7.56,0,0,1-3.887-1.38c-3.728-2.85-6.741-5.2-9.483-7.4-3.526-2.831-7.523-6.041-12.526-7.036a70.541,70.541,0,0,0-10.322-1.217,18.153,18.153,0,0,1-8.6-2.288c-.429-.25-.856-.51-1.285-.766a28.3,28.3,0,0,0-5.468-2.777c-5.14-1.72-10.451-3.192-15.587-4.615l-.793-.22c-5.343-1.481-7.144-3.5-7.709-8.642-.337-3.081-.571-6.231-.8-9.277-.181-2.445-.369-4.977-.609-7.462-.44-4.518-.91-9.033-1.378-13.55-.706-6.8-1.437-13.821-2.045-20.74l-.117-1.329c-.508-5.7-1.032-11.6-.111-17.149l5.336-5.359c6.943-6.976,13.5-13.564,20.249-20.265a8.292,8.292,0,0,1,2.442-1.434l.5-.228c.747-.345,1.511-.658,2.276-.972a36.918,36.918,0,0,0,3.619-1.638,5.263,5.263,0,0,0,1.6-1.633c.169-.237.337-.467.508-.666l.229-.266-.187-.3c-1.42-2.263-3.113-2.076-4.289-1.521-1.046.5-2.059,1.081-3.04,1.649-.774.446-1.548.894-2.341,1.3l-.356.182a15.253,15.253,0,0,1-3.546,1.472c-1.829.405-3.719.717-5.544,1.016-1.274.209-2.546.419-3.814.66a16.158,16.158,0,0,0-12.869,10.728c-.954,2.55-1.784,5.1-2.586,7.576-.12.37-.237.736-.356,1.1l-3.333-26.16c.888-1.076,1.776-2.113,2.651-3.134a80.729,80.729,0,0,0,5.561-6.979c4.645-6.807,9.912-14.522,17.546-19.958a2.069,2.069,0,0,0,.233-.21,3.213,3.213,0,0,0,1.084-4.213l-.09-.127c-1.736-1.725-3.871-1.894-5.936-2.057a21.8,21.8,0,0,1-2.224-.252c8.192-8.128,12.354-11.391,16.687-13.1.177.114.354.236.535.359a9.5,9.5,0,0,0,1.918,1.1,8.143,8.143,0,0,0,3.4.684,3.826,3.826,0,0,0,3.552-3.561c-.025-1.7-1.519-2.931-3.631-2.986a33.93,33.93,0,0,0-3.941.195c-.577.051-1.172.1-1.791.144a25.811,25.811,0,0,0-11.76-3.531c-7.8-.638-13.528,1.657-17.549,6.986a7.183,7.183,0,0,0-.623,8.34,50.161,50.161,0,0,1,2.166,4.914c.253.631.51,1.271.777,1.915-.646.233-1.279.457-1.9.679-1.686.6-3.306,1.176-4.906,1.8-5.306,2.067-7.943,5.552-8.058,10.651a8.988,8.988,0,0,1-.171,1.361q-.741-.757-1.458-1.5c-1.535-1.587-2.985-3.089-4.558-4.5-3.021-2.717-6.35-5.547-10.469-8.9a4.058,4.058,0,0,0-5.558-.2l-.221.165.035.274c.045.361.073.745.1,1.143a11.518,11.518,0,0,0,.494,3.039,21.955,21.955,0,0,0,2.583,5.085c4.466,6.466,8.647,12.379,12.787,18.078a32.656,32.656,0,0,1,6,13.207c.514,2.7.945,5.468,1.361,8.142l.412,2.626c.123.787.225,1.576.326,2.368-.231-.285-.445-.584-.662-.889-.163-.229-.324-.457-.5-.679-.981-1.282-1.949-2.573-2.918-3.866-2.518-3.361-5.124-6.837-7.922-10.06-3.871-4.453-7.96-7.291-12.5-8.671-.47-.142-.942-.271-1.413-.4-2.257-.611-4.387-1.187-5.726-3.3a1.5,1.5,0,0,0-.638-.492c-.692-.353-1.385-.711-2.075-1.067-1.674-.864-3.406-1.758-5.137-2.581a18.772,18.772,0,0,0-17.907.476,14.672,14.672,0,0,0-7.65,16.035c.878,4.955,3.083,9.323,5.661,14.112,1.182,2.2,2.358,4.4,3.453,6.46l1.155,2.17c-.481.878-.949,1.714-1.4,2.519-1.087,1.942-2.113,3.774-3.021,5.636a8.292,8.292,0,0,0-.682,6.064,4.342,4.342,0,0,0,3.627,3.425c2.116.337,3.774-.324,4.661-1.863a9.638,9.638,0,0,0,1.592-4.335c.051-2.531-.109-5.1-.266-7.581-.06-.972-.122-1.943-.169-2.914a5.59,5.59,0,0,1,1.624-2.193c1.5-1.38,3.024-2.747,4.543-4.115,2.262-2.037,4.6-4.142,6.861-6.261,4.947-4.637,7.519-9.777,7.864-15.709a4.454,4.454,0,0,1,.26-1.081l.014-.043c11.459,6.639,26.3,26.442,27.451,36.409a1.559,1.559,0,0,1-.152-.171c-2.2-2.868-5.286-4.322-9.421-4.447a17.935,17.935,0,0,0-15.414,6.968,91.462,91.462,0,0,0-6.755,10.606c-.563.98-1.125,1.959-1.7,2.929a3.424,3.424,0,0,0-.187,2.1,7.832,7.832,0,0,1,.067.859v.279l1.133.638.248-.188c.222-.168.458-.324.695-.481a6.425,6.425,0,0,0,1.586-1.325,12.022,12.022,0,0,0,1.8-3.319,5.365,5.365,0,0,1,3.5-3.52,27.341,27.341,0,0,1,5.61-1.217c1.147-.12,2.337-.136,3.488-.152a34.053,34.053,0,0,0,4.08-.218c2.694-.362,5.324-.864,8.107-1.394,1.05-.2,2.11-.4,3.191-.6.307,1.166.617,2.352.927,3.547.793,3.043,1.615,6.189,2.49,9.307,2.652,9.429,3.027,19.225,3.2,29.27.046,2.646.01,5.341-.027,7.948a120.521,120.521,0,0,0,.6,17.249,3.078,3.078,0,0,1-.066.82l-.019.12-.32-.2c-.565-.347-1.048-.641-1.519-.951s-.906-.627-1.353-.95a18.586,18.586,0,0,0-2.891-1.834c-3.7-1.75-6.853-1.1-9.651,1.98a26.535,26.535,0,0,0-2.654,3.35,25.671,25.671,0,0,1-13.732,10.486l-.136.046c-.976.331-2.448.829-2.261,2.659l.022.2.16.125a5.238,5.238,0,0,0,4.686,1.388,21.26,21.26,0,0,0,8.514-3.2c1.661-1,3.311-2.029,4.961-3.054,2.2-1.367,4.474-2.782,6.74-4.115a15.849,15.849,0,0,1,6.994-2.613,37.881,37.881,0,0,1,3.379,7.467c2.08,5.852,3.991,11.615,4.552,17.734.5,5.468-1.317,8.508-6.275,10.5a38.859,38.859,0,0,1-5.014,1.573c-5.986,1.515-11.983,2.985-17.98,4.452l-.766.188c-1.641.4-3.287.78-4.98,1.171l-1.532.355c2.478-6.566,1.532-10.208-3.738-15.148-1.252-1.174-2.626-2.247-3.955-3.284-.719-.56-1.437-1.122-2.141-1.7-3.133-2.583-3.309-3.73-1.1-7.228.191-.305.391-.609.589-.913a20.617,20.617,0,0,0,1.855-3.257,5.621,5.621,0,0,0,.1-4.6,5.969,5.969,0,0,0-3.8-3.067,5.2,5.2,0,0,0-2.056-.367c-.712.073-1.432.128-2.152.184a28.653,28.653,0,0,0-6.19.926c-7.175,2.184-13.27,6.308-17.777,9.659a54.72,54.72,0,0,0-12.972,13.612,12.137,12.137,0,0,0-7.188.739c-.511.191-1.024.378-1.538.565-1.228.445-2.5.907-3.719,1.437q-5.674,2.464-11.331,4.957-6.393,2.806-12.792,5.59c-5.292,2.29-11.637,4.552-18.76,3.968a16.436,16.436,0,0,0-4.012.326,3.359,3.359,0,0,0-1.272.6c-.132.089-.263.174-.388.244l-.272.149.027.309c.2,2.265,2,2.339,2.964,2.38a55.552,55.552,0,0,0,6.487-.155c1.477-.112,2.969-.286,4.412-.454,1.125-.133,2.252-.264,3.38-.369,7.374-.682,15.206-1.722,22.536-4.684,3.333-1.348,6.685-2.8,9.926-4.213q2.64-1.144,5.278-2.277a12.254,12.254,0,0,1,1.283-.431c-.024.071-.046.135-.071.2-.736,1.836-1.484,3.667-2.231,5.5-1.761,4.309-3.581,8.768-5.194,13.221a10.908,10.908,0,0,0,.565,9.6,4.581,4.581,0,0,1,.291,2.162c-.024,1.057-.089,2.117-.153,3.176a44.011,44.011,0,0,0-.1,5.8c.353,5,2.434,8.791,6.187,11.263a18.907,18.907,0,0,0,2.395,1.266c.247.114.492.229.739.35-2.009,5.14-.967,9.869,3.1,14.06a38.891,38.891,0,0,0,5.678,4.533l1.2.848a36.078,36.078,0,0,0,3.33,2.018q.411.228.84.472a30.933,30.933,0,0,0-9.466,4.653l-.191.125c-16,10.372-31.495,17.643-47.387,22.224a78.97,78.97,0,0,1-34.465,2.265c-1-.158-2-.3-3.007-.442l-1.315-.188c-.126-.065-.251-.135-.376-.206a4.43,4.43,0,0,0-1.124-.513,59.223,59.223,0,0,1-14.427-5.7c-10.559-5.944-16.407-13.732-17.874-23.8,4.816-8.214,5.557-12.528,2.74-15.881l-.095-.114-.142-.038c-2.3-.633-3.26,1.412-3.577,2.084a19.7,19.7,0,0,0-1.7,4.846c-.321,1.809-.475,3.61-.639,5.517-.063.755-.13,1.521-.207,2.3-2.948,3.279-7.036,5.469-12.849,6.887-9.442,2.306-19.657,2.445-31.224.427-7.513-1.31-13.7-2.758-19.441-5.566C2299,484.3,2291.12,480.2,2283.5,476.229q-6-3.122-12.006-6.22a63.825,63.825,0,0,0-29.515-7.426,79.248,79.248,0,0,0-18.4,2.406c-1.647.408-3.3.84-4.946,1.279v0c.206-2.113.305-4.374.3-6.911,0-.75.06-.861.584-1.081a15.153,15.153,0,0,0,8.283-8.3,32.823,32.823,0,0,0,1.619-4.385c.893-3.312,1.745-6.636,2.6-9.961q.657-2.564,1.32-5.126c2.621-10.092,6.079-20.113,9.423-29.8,1.063-3.084,2.128-6.169,3.168-9.261,3.168-9.413,6.409-19.388,9.633-29.648a34.251,34.251,0,0,0,1.841-12.04c-.2-4.309-2.342-6.792-6.56-7.59a21.339,21.339,0,0,0-3.184-.378c-3.852-.146-7.709-.274-11.565-.35q-13.31-.263-26.625-.5l-9.652-.177q-5.814-.107-11.624-.229c-9.841-.2-20.017-.411-30.03-.476a107.337,107.337,0,0,0-13.879,1.052,11.809,11.809,0,0,0-9.779,7.509c-.908,2.141-1.853,4.453-2.6,6.846-5.829,18.636-10.91,35.007-15.536,50.041-1.636,5.319-3.29,11.023-5.055,17.437-1.241,4.517.258,8.267,4.224,10.562a66.233,66.233,0,0,0,9.7,4.825c9.208,3.469,18.82,4.928,27.838,5.988a391.361,391.361,0,0,0,51.323,2.773,87.3,87.3,0,0,0,12.113-1.207,6.763,6.763,0,0,0,6.023-6.4c.054-.492.114-.983.174-1.473.106-.848.209-1.7.285-2.548l.046-.627c.1-1.448.209-2.366,1.28-2.95a2.021,2.021,0,0,0,.793-1.038c.324-.744.671-1.483,1.016-2.222a41.394,41.394,0,0,0,2.165-5.245c5.761-18.622,11.551-37.578,17.7-57.951a43.2,43.2,0,0,0,1.5-7.764,5.7,5.7,0,0,0-3.957-6.275,16.077,16.077,0,0,0-4.21-1.157l-4.684-.473c-6.052-.617-12.309-1.255-18.489-1.586-9.545-.508-19.439-.813-30.25-.935-7.451-.085-15.023-.033-22.348.019q-6.1.043-12.2.062a10.652,10.652,0,0,0-10.622,7.123c-.18.442-.381.877-.581,1.312-.274.59-.543,1.181-.771,1.787q-1.8,4.8-3.629,9.586c-3.017,7.935-6.137,16.141-9,24.291-2.664,7.592-5.066,15.411-7.388,22.973l-1.6,5.2a38.879,38.879,0,0,0-1.2,6.159l-.059.423a2.05,2.05,0,0,0,.717,1.562,4.135,4.135,0,0,1,.3.372l.509.747,1-.893a10.029,10.029,0,0,0,.907-.851,1.454,1.454,0,0,0,.29-.994c.32-1.331.611-2.671.9-4.012a79.071,79.071,0,0,1,2.23-8.685c4.789-14.09,9.875-28.6,15.549-44.355,1.443-4.012,3.209-8,4.917-11.857l1.244-2.82a5.042,5.042,0,0,1,4.738-3.107c.967-.047,1.934-.1,2.9-.157,2.91-.165,5.919-.331,8.864-.315l3.365.022c10.92.068,22.208.138,33.3.48s22.25,1.008,33.652,1.722a58.337,58.337,0,0,1,9.394,1.549c2.151.5,2.743,1.393,2.439,3.68a37.847,37.847,0,0,1-1.276,5.906c-4.418,14.661-9.665,32.022-15.069,49.609-1.086,3.532-2.339,7.087-3.55,10.526l-1.059,3.013a15.178,15.178,0,0,0-6.845-10.271,28.171,28.171,0,0,0-8.9-3.626l-.385-.1c-2.929-.752-5.957-1.53-8.85-2.505a6.578,6.578,0,0,1-4.506-5.5,22.947,22.947,0,0,1,.275-8.128c.19-1.045.285-1.081.875-1.062a3.248,3.248,0,0,0,2.171-1.048,8.244,8.244,0,0,0,2.882-6.425,4.363,4.363,0,0,0-1.356-2.988,2.126,2.126,0,0,0-2.619-.108l.546-2.061c.725-2.739,1.451-5.479,2.235-8.2.973-3.376.06-6.182-2.64-8.115a32.524,32.524,0,0,0-5.882-3.509c-5.89-2.554-11.586-2.952-16.943-1.181a12.946,12.946,0,0,0-8.483,7.9,5.13,5.13,0,0,0-.052,4.105,5.416,5.416,0,0,0,3.352,2.673,6.612,6.612,0,0,0,2.119.468h0c3.468,0,6.861-.021,10.217-.161,1.432-.06,2.819-.231,4.286-.411.389-.047.78-.1,1.174-.142a9.122,9.122,0,0,0,2.551,4.374l.389.443a3.1,3.1,0,0,1,.823,1.966c-.715,4.759-1.6,10.375-2.768,15.956a14.923,14.923,0,0,1-3.678,7.057,4.393,4.393,0,0,1-3.9,1.31,4.455,4.455,0,0,1-2.7-1.454l.5-.082a5.289,5.289,0,0,0,4.125-2.814,26.219,26.219,0,0,0,1.712-4.665c.484-1.829-.3-3.243-2.212-3.977-.344-.131-.7-.248-1.064-.364l.051-.09a13.813,13.813,0,0,0,.964-1.939c.187-.5.382-1,.574-1.51a37.481,37.481,0,0,0,1.856-5.68c.624-2.928-1.212-5.919-4.365-7.111-2.608-.986-4.733-.133-6.7,2.682-.318.457-.617.931-.915,1.4l-.594.939a6.871,6.871,0,0,0-.465-.813,2.793,2.793,0,0,0-2.252-1.34h0a2.618,2.618,0,0,0-2.151,1.26,10.674,10.674,0,0,0-1.92,7.964,2.962,2.962,0,0,0,1.662,2.339,3.145,3.145,0,0,0,3-.407c.089-.057.174-.119.263-.182l1.82,10.856a77.894,77.894,0,0,0-29.914,7.794c-3.251,1.573-7.228,3.949-9.141,8.386a51.987,51.987,0,0,0-2.855,9.774c-.538,2.535-.676,4.018.057,5.093s2.111,1.473,4.737,1.91c12.232,2.04,22.431,3.729,33.035,5.346,4.463.682,8.948,1.108,13.208,1.47-6.807-.385-13.871-.954-21.273-1.714-9.483-.975-20.6-2.466-31.122-6.137a36.026,36.026,0,0,1-9.711-4.9c-2.013-1.48-2.736-3.135-2.272-5.211l.128-.574c.54-2.42,1.1-4.923,1.831-7.312,6.593-21.5,11.974-38.909,16.934-54.8,1.261-4.04,2.717-8.15,4.327-12.213a7.888,7.888,0,0,1,6.1-5l.21-.041a35.1,35.1,0,0,1,6.417-.856c11.7-.074,23.8-.15,35.856.036,14.678.226,29.6.592,44.032.943l10.1.245a86.561,86.561,0,0,1,9.157.563c2.749.361,3.774,1.557,3.656,4.267a37.352,37.352,0,0,1-1.206,8.818c-2.921,9.94-5.669,18.643-8.392,26.6q-1.18,3.445-2.367,6.883c-5.487,15.911-11.159,32.364-14.97,49.123a41.68,41.68,0,0,1-3.241,8.593,9.484,9.484,0,0,1-5.376,4.669,6.845,6.845,0,0,0-4.746-3.319,20.986,20.986,0,0,0-3.149-.608l-6.022-.606c-7.275-.733-14.8-1.491-22.208-2.14-7.7-.673-15.913-1.363-24.155-1.758-5.794-.277-11.686-.3-17.385-.324l-3.86-.019a11.678,11.678,0,0,0-3.941.714,3.1,3.1,0,0,0-1.923,2.2,3.139,3.139,0,0,0,1.391,2.538,10.7,10.7,0,0,0,3.295,1.459l1.307.337c3.167.813,6.441,1.657,9.717,2.265a346.846,346.846,0,0,0,44.5,5.352c8.692.464,16,.475,23.372-.984.339-.066.682-.125,1.087-.195l-.082,1.336c-.1,1.69-.195,3.309-.344,4.923a2.546,2.546,0,0,1-.405,1.42c-.937.252-1.872.5-2.809.753l-.353.093v.036a29.5,29.5,0,0,1-4.358.435c-9.954.12-20.325.185-31.7.195q-6.965,0-13.939-.043c-6.4-.032-13.023-.065-19.537-.022-4,.025-8.048.332-11.963.63l-1.363.1a8.312,8.312,0,0,0-6.458,3.679,8.316,8.316,0,0,1-4.268,2.978c-3.876,1.363-8.016,1.359-11.931,1.244-1.029-.032-2.057-.114-3.146-.2A83.3,83.3,0,0,0,2118.925,458l.318-.5c1.723-2.725,3.505-5.544,4.233-8.88.6-2.755-.443-4.542-3.111-5.316a29.867,29.867,0,0,0-3.184-.673l-.706-.123c-1.124-.2-1.63-.728-1.687-1.763-.052-.957-.095-1.917-.139-2.876l-.073-1.541c-.144-3.054-1.587-5.177-4.168-6.14a12.4,12.4,0,0,0-3.906-.818,7.958,7.958,0,0,1-5.3-2.2,52.567,52.567,0,0,0-5.208-4.17,8.387,8.387,0,0,0-8.174-.647c-2.7,1.049-4.455,3.107-6.155,5.1l-.323.375c-2.975,3.467-4.183,3.634-7.587,1.081-3.265-2.453-6.444-5.159-9.516-7.775q-1.545-1.315-3.091-2.619c-5.143-4.322-10.975-9.22-17.89-12.411-6.65-3.067-12.62-2.714-18.244,1.092-4.455,3.01-8.166,7.166-11.678,13.078a16.022,16.022,0,0,0-2.336,11.35c.918,5.15,3.789,9.136,6.474,12.354,6.968,8.354,16.079,15.372,27.853,21.452,10.322,5.33,22.121,9.31,37.134,12.523,2.7.576,5.449,1.086,8.111,1.578q1.018.188,2.037.377c-5.735,3.493-11.284,4.74-16.929,3.817a34.781,34.781,0,0,1-13.156-5.461c-5.3-3.372-10.6-6.936-15.737-10.382q-3.152-2.117-6.313-4.227c-9.029-6.012-19.869-12.779-31.8-17.391-8.946-3.456-16.457-4.993-23.577-4.824a3.244,3.244,0,0,1-.5-.032,87.984,87.984,0,0,0-.533-18.166l.152.122c1.167.943,2.247,1.817,3.358,2.654,4.678,3.523,6.978,3.273,10.711-1.143a151.319,151.319,0,0,1,16.559-16.685c3.236-2.8,6.669-5.5,9.988-8.109,1.69-1.328,3.379-2.656,5.052-4,3.948-3.181,4.447-6.109,1.722-10.108a98.164,98.164,0,0,0-7.494-9.59,50.641,50.641,0,0,1-9.177-13.821c-1.416-3.322-3.173-6.544-4.874-9.66l-.448-.823a51.346,51.346,0,0,0-23.962-22.278,69.566,69.566,0,0,0-6.789-2.6l-1.448-.5c-2.5-.872-3.969-2.616-4.916-5.922a13.581,13.581,0,0,1,1.7.027c1.956.2,3.505,1.3,5.148,2.47.331.234.662.47,1,.7.728.5,1.447,1.01,2.167,1.522,1.564,1.117,3.184,2.273,4.889,3.249,3.474,1.994,7.006,1.215,9.211-2.026a47.369,47.369,0,0,0,3.918-7.468c.908-2.049,1.758-4.159,2.58-6.2.769-1.912,1.54-3.825,2.366-5.712,2.236-5.107,6.12-9.111,9.586-12.463a17.876,17.876,0,0,0,5.728-14.614c-.28-4.813-.568-9.79.742-14.58.918-3.366,1.842-6.732,2.8-10.089a31.7,31.7,0,0,0,1.488-11.687,27.585,27.585,0,0,0-1.127-5.526,3.415,3.415,0,0,0-2.322-2.127c-.725-.123-2.034.011-2.583,2.342-.114.486-.21.975-.3,1.462l-.106.541c-.108.54-.206,1.084-.3,1.627-.207,1.146-.423,2.331-.726,3.455-.8,2.975-1.741,5.784-4.336,7.459-3.637,2.347-5.49,5.77-5.667,10.464a45.262,45.262,0,0,1-.8,6.27c-.1.574-.449,1.565-1.236,1.515-.432-.011-.6-.348-.907-1.355l-.071-.234a3.893,3.893,0,0,1-.166-.983c-.035-.905-.057-1.81-.081-2.716-.025-.975-.049-1.95-.087-2.923-.031-.834-.051-1.67-.068-2.5a57.28,57.28,0,0,0-.377-6.411,6.3,6.3,0,0,0-2.863-4.775,6.611,6.611,0,0,0-5.821-.207,14.672,14.672,0,0,0-7.709,6.821,22.172,22.172,0,0,1-4.787,5.488c-3.515,3.236-6.971,6.644-10.312,9.939q-2.084,2.056-4.177,4.1c-.114.111-.231.218-.35.331a11.283,11.283,0,0,0-.475-1.975c-1.567-4.33-3.246-8.935-5.023-13.463-1.616-4.116-3.089-8.587-2.928-13.381a40.226,40.226,0,0,1,8.889-24.065,19.992,19.992,0,0,1,10.975-7.342,19.263,19.263,0,0,1,14.482,2.165c3.353,1.891,6.667,4.005,9.871,6.052,1.867,1.193,3.736,2.387,5.623,3.545.85.521,1.7,1.052,2.546,1.583a96.638,96.638,0,0,0,8.961,5.178,13.2,13.2,0,0,0,14.941-1.79,37.31,37.31,0,0,0,9.586-11.887c.9-1.731,1.106-3.151.639-4.338s-1.585-2.086-3.422-2.743c-2.529-.907-5.137-1.693-7.66-2.456l-1.978-.6a86.929,86.929,0,0,1-22.541-10.067l-2.516-1.643c-4.2-2.744-8.536-5.58-12.926-8.185-10.076-5.976-20.589-8.826-31.256-8.46a41.554,41.554,0,0,0-26.466,10.029c-5.632,4.866-9.692,11.346-12.409,19.808a100.118,100.118,0,0,0-4.382,37.317c.334,5.078.975,10.209,1.594,15.171.413,3.306.839,6.724,1.17,10.089.291,2.952.317,5.995.342,8.938l.024,2.247a1.229,1.229,0,0,1-.441.726c-4.1,2.757-5.432,7-6.717,11.108-.2.644-.4,1.29-.616,1.928a1.959,1.959,0,0,0-.1.711,42.991,42.991,0,0,0-24.979.165,97.054,97.054,0,0,0-26.546,12.347,62.124,62.124,0,0,0-20.9,22.683,79.774,79.774,0,0,0-7.714,23.5c-1.356,7.536-2.508,15.236-3.624,22.68q-.688,4.6-1.39,9.188l-12.726,82.332c-.065.424-.139.845-.215,1.268a25.608,25.608,0,0,0-.418,3.061,1.609,1.609,0,0,0,.1.6c-3.887,21.093-26.056,37.408-59.611,43.752-36.127,6.827-81.8.7-110.752-21.654a39.856,39.856,0,0,0,5.045-11.6c7.18-26.507-2.087-45.585-14.455-52.733-7.182-4.153-14.778-3.868-19.35.72-3.6,3.61-10.149,15.123,6.675,44a76.4,76.4,0,0,0,17.326,20.227,20.5,20.5,0,0,1-11.057,6.805c-14.8,3.542-36.138-7.2-54.378-27.372-19.394-21.45-36.189-55.623-25.165-87.2,9.351-26.777,9.62-45.689.8-56.209-6.085-7.261-14.841-8.53-20-8.573l-1.652-.657c-.695-.283-1.389-.567-2.1-.791a2.9,2.9,0,0,0-1.261-.04l-.3.033q-9.783.734-19.564,1.451c-14.648,1.079-29.8,2.2-44.687,3.4a261.118,261.118,0,0,0-87.232,22.5,121.09,121.09,0,0,1-15.763,5.84c-5.759,1.7-8.943.358-12.186-5.134a19.385,19.385,0,0,1-1.494-2.891c-6.533-17.032-9.456-33.328-8.935-49.817a16.158,16.158,0,0,1,1.212-5.476c.513-1.261,1.211-2.045,1.966-2.208a2.9,2.9,0,0,1,2.383,1.032,32.883,32.883,0,0,1,6.06,7.74c1.464,2.656,2.766,5.474,4.026,8.2,1.192,2.573,2.421,5.235,3.793,7.778l.791,1.469c2.469,4.6,5.022,9.351,8.356,13.4,7.033,8.552,16.411,11.295,27.119,7.934a39.6,39.6,0,0,0,15.717-9.627c11.881-11.4,15.714-29.05,9.322-42.926-3.271-7.1-8.712-11.418-16.172-12.841-.791-.15-1.578-.329-2.532-.548l-.01,0,2.4-1.867a21.6,21.6,0,0,0,8.313-14.023c2.553-15.705-8.771-32.739-24.231-36.453-1.652-.4-3.3-.652-5.21-.95l-.749-.116c.411-.226.769-.421,1.13-.608,8.318-4.332,12.98-11.2,13.86-20.43a59.578,59.578,0,0,0-.459-14.962c-2.347-14.4-7.467-19.317-21.919-21.036a155.576,155.576,0,0,0-44.562,1.358c-11.763,1.966-19.261,8.685-22.927,20.54-3.752,12.134-4.126,25.393-1.113,39.413,3.5,16.288,7.981,32.639,12.313,48.452l1.507,5.466c3.613,13.042,7.348,26.529,7.986,40.337.258,5.6.271,11.323.283,16.853.009,3.915.019,7.965.116,11.95.125,5.143.471,10.277,1.033,15.258.646,5.742,4.2,9.371,10.277,10.493a45.724,45.724,0,0,0,9.845.967l4.63-.155c9.331-.312,18.98-.631,28.423-1.548,22.748-2.206,44.862-4.65,65.729-7.264,9.193-1.151,18.489-2.667,27.48-4.135,5.08-.828,10.162-1.657,15.25-2.428a12.861,12.861,0,0,1,4.722.185,2.909,2.909,0,0,1,2.024,1.163,3.167,3.167,0,0,1-.1,2.489,48.5,48.5,0,0,0-1.918,9.228c-.536,3.933-.536,3.933-4.43,4.14-1.2.063-2.4.117-3.6.168a93.8,93.8,0,0,0-13.8,1.283c-11.594,2.258-23.342,4.746-34.7,7.153q-9.593,2.032-19.19,4.032a8.58,8.58,0,0,1-4.434.063c-14.451-5.185-30.254-6.6-49.72-4.457a40.784,40.784,0,0,0-8.386,1.943c-3.9,1.295-8.087,3.119-8.5,8.416-.285,3.686,3.012,6.944,8.817,8.717,5.691,1.738,12,1.822,19.295.258,12.025-2.578,24.012-5.6,36.259-8.736a6.273,6.273,0,0,1,6.275,1.234,18.771,18.771,0,0,1,7.25,14.865c.119,6.215-.048,12.548-.211,18.673l-.074,2.9a4.671,4.671,0,0,1-.785,1.888l-.2.345c-4.431,7.835-5.36,16.619-2.839,26.855,1.1,4.46,4.447,7.027,9.19,7.043a77.624,77.624,0,0,0,8.524-.608c2.225-.244,4.4-.557,6.707-.889.089-.013.179-.025.266-.04l-.184.144c-1.725,1.345-3.355,2.616-3.866,4.351-.815,2.76-2.38,3.173-4.751,3.8l-.353.093c-11.508,3.069-18.792,10.163-21.646,21.089a146.442,146.442,0,0,0-3.293,20.113c-.5,4.333-.684,8.763-.863,13.047-.06,1.451-.12,2.9-.191,4.349-.085,1.715-.568,2.279-2.252,2.621a6.334,6.334,0,0,0-5.02,3.9c-.779,2.157-.188,4.686,1.621,6.94,1.453,1.814,2.836,2.1,3.757,2.021.891-.078,2.181-.582,3.259-2.54a29.146,29.146,0,0,0,1.614-3.735q.157-.415.315-.831c1.222.741,1.814,1.307,1.9,1.795s-.335,1.217-1.312,2.3c-2.119,2.352-4.446,3.5-6.735,3.327-2.19-.169-4.207-1.565-5.83-4.042-5.582-8.51-6.565-17.377-2.92-26.355a95.363,95.363,0,0,1,6.618-12.5l.492-.829c2.308-3.888,4.718-7.807,7.049-11.6,2.765-4.5,5.621-9.144,8.334-13.781l.412-.688c1.465-2.442,3.29-5.479,1.162-8.44-2.088-2.9-5.6-2.317-8.431-1.847l-.663.109q-7.471,1.189-14.946,2.347c-15.547,2.425-31.625,4.933-47.352,7.88a196.937,196.937,0,0,0-30.677,8.451c-10.317,3.738-13.767,10.239-11.536,21.74.291,1.5.6,2.994.907,4.533l.312,1.538c-.156.059-.315.115-.47.172-2.856,1.049-6.095,2.236-6.25,6.421a8.95,8.95,0,0,0,4.781,8.435,9.076,9.076,0,0,0,3.934,1.046c-12.23.861-24.826,1.716-37.222,1.869-26.059.323-52.556.438-78.183.551q-18.585.081-37.17.185c-2.42.016-4.868.155-7.235.291-1.116.065-2.23.128-3.346.18l-.172.013c-26.366-.817-75.746-6.387-100.872-17.956,33.458-2.445,51.148-8.022,52.591-16.586.807-4.783-3.5-9.408-12.138-13.028-16.185-6.783-45.445-8.525-56.012,6.069-3.64,5.031-4.317,9.943-2.01,14.6a19.014,19.014,0,0,0,4.447,5.6c-52.493,2.485-90.136-3.342-114.289-9.586,3.57.171,7.172.165,10.777-.013A59.064,59.064,0,0,0,963.6,496.188c24.277-17.255,37.61-40.533,39.628-69.189a125.948,125.948,0,0,0-8.014-54.23c-7.389-19.319-18.235-33.546-33.155-43.5-9.286-6.193-20.5-12.936-33.282-15.992-3.679-.88-7.481-1.465-11.156-2.032-1.907-.293-3.814-.587-5.712-.921l-.521-.086a7.451,7.451,0,0,1-2.556-.744l.228-.141a13.469,13.469,0,0,1,2.2-1.192c4.591-1.765,9.393-1.464,13.49-.935,6.362.82,12.623,3.127,19.7,7.259a197.794,197.794,0,0,1,23.03,16.239c.589.468,1.174.946,1.758,1.424,1.366,1.113,2.774,2.263,4.235,3.312,1.31.942,2.45,1.23,3.38.867s1.537-1.307,1.844-2.82c.533-2.621.848-5.314,1.155-7.919.089-.758.179-1.518.272-2.274a13.05,13.05,0,0,0-3.553-10.75c-.173-.191-.334-.4-.494-.6-.193-.247-.386-.492-.6-.723l-3.265-3.564c-3.349-3.66-6.81-7.444-10.277-11.11a2.232,2.232,0,0,1-.625-2.841c.877-2.059,1.571-4.164,2.261-6.318a3.48,3.48,0,0,0-1.682-4.357,18.281,18.281,0,0,0-8.275-2.516,4.52,4.52,0,0,0-4.814,3.29c-.185.489-.326.994-.465,1.5-.1.358-.2.717-.317,1.07-.348,1.041-.668,1.109-1.04,1.094-3.567-.2-5.49-.921-6.1-4.33-.983-5.507-2.455-11-3.882-16.318l-.237-.893a15.347,15.347,0,0,0-6.841-9.078,59.905,59.905,0,0,0-7.758-4.227,83.356,83.356,0,0,0-27.056-6.618,100.278,100.278,0,0,0-27.466,1.177c-10.193,1.994-17.549,7.626-21.86,16.744a61.4,61.4,0,0,0-2.686,6.373c-1.643,4.819-2.853,9.234-1.068,14.03l-.057,0c-.8.044-1.537.085-2.265.187-2.116.293-3.518-.54-4.422-2.622-.348-.8-.684-1.6-1.019-2.406-.4-.948-.791-1.9-1.2-2.838a4.409,4.409,0,0,0-2.334-2.687,4.047,4.047,0,0,0-3.235.467,67.185,67.185,0,0,0-7.283,4.263c-2.2,1.453-2.557,3.135-1.152,5.455.847,1.394,1.765,2.768,2.656,4.094.508.758,1.016,1.518,1.514,2.285.337.519.647,1.057.984,1.638l.161.28-.1.084c-.353.3-.669.568-.98.844q-1.792,1.581-3.594,3.154c-2.807,2.456-5.711,5-8.5,7.573-4.162,3.844-6.648,7.343-8.063,11.342-1.826,5.175-1.673,10.383-1.28,14.8a28.192,28.192,0,0,0,1.071,5.743c1.057,3.447,3.323,4.946,6.726,4.46a40.275,40.275,0,0,0,8-2.143c2.679-.964,5.373-2.011,7.976-3.023s5.2-2.023,7.823-2.967a32.96,32.96,0,0,1,5.936-1.363,2.606,2.606,0,0,1,3.015,1.66c.983,1.986,2.081,2.442,4.189,1.741,1.049-.35,2.051-.777,3.111-1.231l.731-.31,2.018,4.593c-2.713-2.315-6.112-3.126-10.485-2.548a38.118,38.118,0,0,0-17.337,7.248,89.3,89.3,0,0,0-16.926,16.063,90.738,90.738,0,0,0-21.145,52.426A127.515,127.515,0,0,0,789.75,448.2c2.74,12.05,6.851,21.278,12.939,29.04A134.553,134.553,0,0,0,821.626,496.9c7.761,6.568,15.538,10.82,23.775,13a1.353,1.353,0,0,1,.182.06q-.456,1-.908,1.98c-.942,2.045-1.833,3.975-2.61,6a6.558,6.558,0,0,1-5.552,4.46l-.734.119a23.535,23.535,0,0,1-3.118.38q-3.414.107-6.824.231c-6.414.225-13.045.457-19.561.47q-43.513.078-87.026.04l-34.462,0c-.415,0-.829.011-1.242.025l0-.112-.79-.04c-5.154-.263-12.779.394-24.332,1.383l-.207.017c-29,2.48-82.992,7.095-171.77,2.624-78.545-3.955-126.524,10.586-145.7,18.168l0,0c1.086-1.372,2.227-2.7,3.368-4.028.722-.842,1.446-1.684,2.155-2.537l1.283-1.527c1.405-1.667,2.86-3.388,4.159-5.2a28.746,28.746,0,0,0,3.171-5.618,8.249,8.249,0,0,0-1.679-9.35,28.941,28.941,0,0,0-3.724-3.334c-.994-.752-2.029-1.45-3.064-2.148-.87-.586-1.741-1.173-2.584-1.793l-.918-.671c-1.886-1.378-3.838-2.8-5.587-4.366a38.637,38.637,0,0,1-3.553-3.811q-.5-.593-1.01-1.177a.636.636,0,0,1-.074-.187.621.621,0,0,1,.078-.013l1.818-.093c1.867-.1,3.733-.2,5.6-.226,18.5-.294,37.968.18,59.53,1.461q18.592,1.1,37.178,2.325,11.1.715,22.188,1.475l6.978.472c1.377.092,2.752.192,4.129.291,1.864.135,3.729.271,5.6.388l2.578.163c6.865.432,13.73.866,20.6,1.245,2.192.12,4.466.127,6.954.021a29.92,29.92,0,0,0,5.248-.646c4.3-.957,6.618-3.585,7.1-8.032a32.393,32.393,0,0,0-.424-9.07c-1.04-5.969-2.263-12.909-3.63-19.736-5.408-27.012-11.634-54.659-18.505-82.176-1.845-7.386-3.708-14.593-6.2-21.536a60.721,60.721,0,0,0-2.988-6.916,14.585,14.585,0,0,0-2.713-3.605,6.137,6.137,0,0,0-2.85-1.518,3.256,3.256,0,0,0-2.641.443,3.4,3.4,0,0,0-1.375,2.429,8.814,8.814,0,0,0,.052,2.507l.465,2.827c.486,2.975.986,6.05,1.643,9.052q5.55,25.365,11.167,50.719l5.837,26.445q3.888,17.638,7.728,35.287a67.1,67.1,0,0,1,1.1,7.275c.2,1.947-.135,2.413-2,2.779a33.227,33.227,0,0,1-5.27.619c-5.827.187-10.693.329-15.732.3l-3.969-.021c-9.965-.051-20.243-.1-30.394-.342l.374-.035.945-.087a2.827,2.827,0,0,0,2.613-2.04c.353-1.179-.421-2.478-1.883-3.162a23.372,23.372,0,0,0-2.882-1.135c4.476.772,8.66,1.35,12.7,1.758,3.282.332,6.572.6,9.861.863q2.355.19,4.71.388a180.851,180.851,0,0,0,18.7.35,13.915,13.915,0,0,0,2.991-.421,5.156,5.156,0,0,0,4.127-4.692,16.682,16.682,0,0,0,.095-3.9l-.138-1.141c-.392-3.278-.8-6.666-1.446-9.967-2.111-10.736-4.313-21.5-6.544-32-3.377-15.886-7.926-36.816-13.173-57.832-1.524-6.107-3.067-12.077-5.169-17.956a42.563,42.563,0,0,0-5.45-10.287,15.869,15.869,0,0,0-10.692-6.645,25.963,25.963,0,0,0-8.237-.177c-5.237.782-10.823,1.657-18.119,2.836A95.968,95.968,0,0,1,412,350.785a39.776,39.776,0,0,1-7.5-1.03A47.475,47.475,0,0,1,391,344.178c-2.409-1.421-4.811-2.956-7.134-4.442-1.255-.8-2.512-1.6-3.774-2.393q-1.2-.755-2.4-1.519c-2.155-1.369-4.384-2.784-6.653-4.059a64.149,64.149,0,0,0-25.264-7.978,74.649,74.649,0,0,0-24.158,1.728,64.6,64.6,0,0,0-15.009,5.278,15.256,15.256,0,0,0-6.816,6.2l-.114.22c-.025.051-.057.116-.078.166-.307-.326-.612-.654-.893-1a33.653,33.653,0,0,0-13.072-9.687,48.221,48.221,0,0,0-14.077-3.494,82.481,82.481,0,0,0-15.31-.144,103.886,103.886,0,0,0-27.323,5.7c-2.9,1.044-5.824,2.171-8.65,3.262l-3.415,1.312a80.289,80.289,0,0,1-24.585,5.286c-4.759.239-9.609.358-14.3.47q-2.868.071-5.734.147-3.494.1-6.987.182c-4.756.117-9.673.239-14.508.437a59.5,59.5,0,0,0-14.294,2.355,28.313,28.313,0,0,0-8.813,4.007,19.176,19.176,0,0,0-3.235,3.061,3.2,3.2,0,0,0-.568,3.822,3.738,3.738,0,0,0,3.646,1.735,3.97,3.97,0,0,0,.918-.125c.114-.025.228-.051.342-.068a14.655,14.655,0,0,0,5.047-1.975c.484-.282.962-.576,1.439-.869.655-.405,1.312-.809,1.985-1.177a.9.9,0,0,1,.291-.068,23.522,23.522,0,0,1-.627,3.9l-1.116,4.482c-1.287,5.178-2.618,10.534-4.013,15.772q-3.706,13.9-7.446,27.782-5.785,21.517-11.5,43.053l-.116.438c-2.1,7.97-4.275,16.207-4.953,24.682a20.583,20.583,0,0,1-4.646,3.376,15.437,15.437,0,0,1-3.774,1.5,3.6,3.6,0,0,1-2.768-.324,3.5,3.5,0,0,1-1.461-2.3,14.2,14.2,0,0,1-.315-4.3,66.7,66.7,0,0,1,1.154-7.546,177.516,177.516,0,0,1,5.142-18.391q3.285-10.091,6.607-20.175,3.839-11.682,7.647-23.378c2.733-8.424,5.832-18.242,8.032-28.157a46.742,46.742,0,0,0,1.435-11.244,11.233,11.233,0,0,0-1-4.779,4.719,4.719,0,0,0-2.944-2.611,4.836,4.836,0,0,0-3.96.72,6.565,6.565,0,0,0-2.425,2.989c-.8,1.855-1.405,3.4-1.9,4.862q-2.1,6.258-4.165,12.525-1.842,5.564-3.694,11.122-3.293,9.849-6.6,19.692-6.72,20.026-13.378,40.074a195.429,195.429,0,0,0-6.308,23.307,40.618,40.618,0,0,0-.916,11.32c.411,5.221,3.039,8.828,7.807,10.717a15.465,15.465,0,0,0,2.876.91l1.747.329a66.166,66.166,0,0,0,6.8,1.052c5.594.469,11.621.927,17.777,1.1,8.559.242,17.752.369,28.105.386,5.431-.017,10.97-.144,16.948-.468,3.887-.211,7.827-.529,11.637-.837,2.412-.195,4.824-.389,7.239-.56q10.86-.762,21.726-1.437a293.555,293.555,0,0,1,36.279.445c5.291.321,11,.8,17.956,1.511,4.6.467,9.647,1.092,15.892,1.962a125.492,125.492,0,0,1,18.891,4.123,17.381,17.381,0,0,0,12.566-.782c1.445-.658,2.906-1.282,4.365-1.905l2.192-.943a63.458,63.458,0,0,1,14.549-4.547l.657-.119a9.388,9.388,0,0,1,2.323-.253c0,.2,0,.391.006.582.013.869.025,1.69-.025,2.507a6.092,6.092,0,0,0,.217,1.773,4.3,4.3,0,0,1,.168,1.575l-.127.019c-.434.07-.863.139-1.295.182-1.413.139-2.826.266-4.241.393-2.822.255-5.74.518-8.6.874a46.031,46.031,0,0,0-16.115,4.786c-1.173.62-2.453,1.146-3.585,1.611a5.785,5.785,0,0,1-4.439.033c-1.326-.522-2.646-1.052-3.955-1.613a41.7,41.7,0,0,0-10.839-3.371c-3.385-.464-6.125-.728-8.624-.831-6.723-.277-13.531.1-20.115.457q-2.151.119-4.3.229c-2.709.136-5.412.34-8.117.544l-.481.036q-3.912.294-7.821.6c-3.773.294-7.546.589-11.322.861q-10.144.729-20.293,1.369l-5.583.353c-6.321.407-12.858.824-19.29,1.067-11.548.434-23.943.761-36.328.222a231.2,231.2,0,0,1-30.1-2.958,68.836,68.836,0,0,1-14.189-3.847,26.713,26.713,0,0,1-6.993-3.974,14.3,14.3,0,0,1-5.215-8.665,28.2,28.2,0,0,1-.171-9.432c.312-2.141.755-4.311,1.182-6.409.212-1.04.424-2.078.622-3.119.109-.574.2-1.154.286-1.746l.22-1.412-.97-.426a5.455,5.455,0,0,0-.88-.345,2.737,2.737,0,0,0-.839-.051c-.116.006-.244.013-.392.013h-.627l-.144.611q-.252,1.078-.514,2.149c-.383,1.575-.777,3.2-1.1,4.825a44.659,44.659,0,0,0-.883,14.777,18.652,18.652,0,0,0,6.262,11.884,27.977,27.977,0,0,0,6.7,4.249,55.11,55.11,0,0,0,10.162,3.461,163.218,163.218,0,0,0,27.61,3.952c7.5.548,15.726.791,25.842.753,10.25-.035,21.058-.4,32.126-1.079q4.3-.263,8.6-.508c4.955-.288,9.91-.576,14.86-.913,6.68-.457,13.357-.954,20.034-1.451q5.562-.415,11.124-.823c1.883-.136,3.767-.256,5.651-.377q2.179-.14,4.358-.286c7.4-.511,14.887-.669,22.267-.469a42.635,42.635,0,0,1,16.351,3.7c1.627.728,2.989,1.288,4.289,1.763a10.408,10.408,0,0,0,7.848-.166c1.478-.62,2.895-1.274,4.213-1.943a38.768,38.768,0,0,1,9.8-3.331A136.025,136.025,0,0,1,326,500.2l.5-.036a7.07,7.07,0,0,1,1.2.06l.256.027a30.1,30.1,0,0,0,6.546,7.834c2.216,1.866,4.5,3.569,6.832,5.294.867.641,1.765,1.241,2.662,1.842.927.622,1.856,1.242,2.751,1.91a29.532,29.532,0,0,1,3.35,2.932,4.448,4.448,0,0,1,.983,5.425,24.73,24.73,0,0,1-2.312,4.093c-1.377,1.875-2.9,3.708-4.37,5.48l-.8.964q-1.41,1.7-2.844,3.385c-1.334,1.576-2.668,3.151-3.966,4.756a40.036,40.036,0,0,0-3.217,4.607c-13.724,6.324-22.59,13.389-24.335,19.4-1.236,4.256.6,8.027,5.185,10.618,9.239,5.229,15.609,7.77,19.471,7.769a5,5,0,0,0,3.808-1.409c2.637-2.736.337-7.509-.836-9.527l-.158-.529c-.2-.666-.385-1.288-.556-1.9l-.532-1.874c-.443-1.545-.9-3.143-1.269-4.722a19.389,19.389,0,0,1,2.083-14.656c13.566-6,63.4-24.636,149.818-20.287,89.008,4.485,143.2-.146,172.326-2.633,11.08-.948,19.084-1.636,23.986-1.391l.79.038.021-.424c.22.008.442.014.661.014l31.269.008c29.26.011,59.515.022,89.272-.043,7.734-.016,15.589-.293,23.186-.562l6.093-.209c6.563-.215,10.572-3.015,12.254-8.555a34.255,34.255,0,0,1,2.193-5.128c.307-.625.614-1.25.91-1.882l.04,0c.358.033.673.062.984.114l.263.044c1.719.286,3.434.573,5.145.9a4.9,4.9,0,0,0,5.53-2.235c1.016-1.535,2.119-3.059,3.187-4.532,1.052-1.451,2.141-2.955,3.151-4.477a38.186,38.186,0,0,0,2.806-5.3,6.3,6.3,0,0,0-.161-5.84,16.022,16.022,0,0,0-1.317-2.037,69.187,69.187,0,0,0,7.479,5.9l-.1.147.65.454c.43.3,40.171,27.244,133.989,27.242q14.03,0,29.7-.858c26.609,16.2,94.865,21.241,110.38,21.62l.8.019,0-.231c.516-.033,1.032-.059,1.548-.062q10.191-.048,20.384-.07c12.92-.035,26.282-.073,39.422-.207,25.481-.261,55.685-.612,86.512-1.215a198.651,198.651,0,0,0,20.32-1.8l.85-.1c2.179-.269,6.239-.771,7-5.256,1.136-6.682-2.523-12.509-8.514-13.555-3.79-.661-4.783-2.565-5.216-5.631-.108-.758-.236-1.513-.362-2.266-.176-1.048-.355-2.092-.473-3.146-.676-5.9,1.825-10.2,7.424-12.773l.448-.206a58.823,58.823,0,0,1,8.853-3.515c28.651-7.869,58.309-12.2,86.092-15.7,2.4-.3,2.97.128,3.1.328s.321.893-.858,3.005c-2.214,3.963-4.605,7.921-6.921,11.748-1.782,2.945-3.624,5.99-5.378,9.025-.949,1.647-1.929,3.287-2.909,4.927a123.093,123.093,0,0,0-8.31,15.55c-4.094,9.84-2.849,20.153,3.6,29.819a12.113,12.113,0,0,0,9.97,5.765h.043c4.013,0,7.789-2.171,10.363-5.962a7.267,7.267,0,0,0,1.359-5.693,3.957,3.957,0,0,0-2.148-2.6c-3.85-1.9-3.485-4.531-2.966-8.3a20.348,20.348,0,0,0,.136-2.559,20.943,20.943,0,0,1,.089-2.117c.3-2.671.549-5.351.8-8.032a187.935,187.935,0,0,1,2.466-19.2c2.263-11.338,9.622-18.3,21.875-20.7a7.964,7.964,0,0,1,4.108-.068c8.6,3.566,17.78,4.987,26.652,6.36,2.314.358,4.626.715,6.93,1.109l2.33.4c11.371,1.939,23.131,3.944,34.223,7.975,7.867,2.86,11.477,7.476,11.709,14.968a50.838,50.838,0,0,0,1.917,10.762l.464,1.847a7.181,7.181,0,0,0,6.178,5.77c5.732.848,12.116-3.162,13.151-8.236,1.014-4.987-2.629-10.257-8.3-12a10.815,10.815,0,0,0-1.163-.264,3.5,3.5,0,0,1-1.62-.546c-.747-.777-1.518-1.545-2.29-2.314a46.43,46.43,0,0,1-7.106-8.277c-3.569-5.863-7.153-9.649-11.55-12.183,1.3-4.558.486-10.633-2.116-15.361a15.791,15.791,0,0,0-10.1-8.081c-5.882-1.413-11.2-2.565-16.47-2.382-9.554.336-19.23,1.386-28.586,2.4l-3.523.383c-3.54.38-7.12.912-10.578,1.426-3.955.589-8.044,1.2-12.077,1.576-2.692.25-4.605-.131-5.855-1.182-1.268-1.062-1.994-2.926-2.22-5.7a72.61,72.61,0,0,1,.345-12.934,19.677,19.677,0,0,1,1.333-4.711c.18-.486.364-.983.544-1.491l.258.193c.606.456,1.051.786,1.521,1.073,2.7,1.651,5.417,1.719,7.642.2a4.524,4.524,0,0,0,1.526-4.072c-.677-2.789-3.067-4.4-6.289-4.362a2.589,2.589,0,0,1-1.964-.521,3.112,3.112,0,0,1-.481-2.322q.164-3.623.342-7.245l.317-6.732c.427-9.4-2.462-16.579-8.832-21.939l0-.036v-.033l2.306-.6c2.107-.549,4.243-1.1,6.389-1.611l.578-.136c20.046-4.735,40.777-9.63,61.861-9.905,3.771-.049,5.51-1.716,6.205-5.944.114-.693.214-1.388.3-2.086.375,2.168,1.068,3.455,2.2,4.151,1.481.915,3.513.709,6.8-.673a83.585,83.585,0,0,0,12.612-6.307c8.109-5.177,17.659-11.4,27.012-18.271,3.32-2.439,5.365-6.561,6.289-8.8.058-.141.1-.282.149-.423,4.36,10.225,2.855,26.473-4.529,47.623-11.528,33.016,5.8,68.491,25.867,90.684,19.081,21.105,41.763,32.258,57.774,28.423a23.984,23.984,0,0,0,12.938-8.036c22.265,17.12,53.9,25,83.87,24.994a160.278,160.278,0,0,0,29.594-2.686c35.339-6.683,58.64-24.283,62.495-47.136a1.609,1.609,0,0,0,.125-.7q.648-3.912,1.31-7.821c.94-5.561,1.91-11.311,2.763-16.984,3.477-23.117,6.87-46.1,10.9-73.5,1.676-11.4,3.32-21.661,6.487-31.69a56.759,56.759,0,0,1,11.724-21.017,65.026,65.026,0,0,1,15.937-12.885,84.679,84.679,0,0,1,25.665-10.41c8.029-1.7,14.812-1.231,20.734,1.426a140.407,140.407,0,0,1,12.558,6.512c13.829,7.976,26.274,11.3,39.088,10.459l.236.791c1.234,4.031,3.407,6.59,6.642,7.824.845.323,1.706.6,2.567.883l.647.212a49.112,49.112,0,0,1,20.45,12.969,57.189,57.189,0,0,1,10.773,16.93A65.216,65.216,0,0,0,2022.8,380.6a46.079,46.079,0,0,1,5.115,6.549c2.3,3.455,2.174,4.14-1.257,6.669q-.954.7-1.912,1.4c-1.877,1.364-3.819,2.774-5.644,4.281a192.84,192.84,0,0,0-24.264,23.574c-1.7,2-2.051,2.051-4.13.524-2.492-1.828-4.893-3.871-7.141-5.808a3.741,3.741,0,0,1-1.068-1.69,32.4,32.4,0,0,0-18.35-21.427,33.3,33.3,0,0,0-6.065-1.89l-.851-.207a2.563,2.563,0,0,0-2.535,1.185,3.535,3.535,0,0,0,.192,2.6,5.081,5.081,0,0,0,1.405,1.7l8.291,7.6q7,6.414,13.992,12.836a3.2,3.2,0,0,1,1.011,1.4,72.188,72.188,0,0,1,1.214,21.487,3.286,3.286,0,0,1-.211.3,33.378,33.378,0,0,0-10.176,2.774,21.568,21.568,0,0,0-10.315,9.212c-2.268,4.153-3.357,9.016-3.428,15.305-.109,9.673,1.117,19.366,2.3,28.738.411,3.244.82,6.489,1.179,9.738a11.93,11.93,0,0,0,.986,3.441,3.022,3.022,0,0,0,2.241,1.954,2.436,2.436,0,0,0,.386.03,3.256,3.256,0,0,0,2.415-1.257,9.912,9.912,0,0,0,1.454-2.179l.1-.206a51.032,51.032,0,0,0,2.113-4.776c7.5-20.658,12.2-39.884,14.354-58.779a1.71,1.71,0,0,1,.109-.508h0a.719.719,0,0,1,.339-.017c1.032.087,2.068.141,3.107.195a52.819,52.819,0,0,1,5.658.5c10.651,1.731,20.027,6.248,27.795,10.437,8.95,4.825,17.465,10.693,25.7,16.367l1.5,1.03c6.506,4.482,13.235,9.116,20.912,12.134a25.894,25.894,0,0,0,15.338,1.344,37.973,37.973,0,0,0,13.12-6.042,2.9,2.9,0,0,1,1.5-.358c1.589.025,3.181.087,4.771.149,2.884.114,5.865.228,8.809.116,5.68-.223,9.895-2.263,12.885-6.242a4.409,4.409,0,0,1,2.682-1.361,77.917,77.917,0,0,1,9.8-.764c6.868-.038,13.742-.011,20.612.014,4.417.016,8.88,0,13.253.033h1.923c9.769,0,19.873,0,29.81-.128a66.035,66.035,0,0,0,7.5-.562v.07l.312-.112c.673-.089,1.347-.177,2.05-.285a5.859,5.859,0,0,0,3.412-1.516,110.551,110.551,0,0,1,14.267-3.268,61.818,61.818,0,0,1,18.833-.491c7.093,1.032,14.243,3.505,22.5,7.785,4.259,2.206,8.54,4.547,12.68,6.811,3.91,2.138,7.954,4.349,11.975,6.444a93.371,93.371,0,0,0,55.573,10.173c7.207-.891,12.952-3.086,17.557-6.71a.852.852,0,0,1,.179-.1c.484,1.057.94,2.113,1.388,3.157a53.425,53.425,0,0,0,3.569,7.281c4.556,7.311,11.7,12.651,22.493,16.805a40.226,40.226,0,0,0,5.541,1.543c.839.19,1.676.381,2.5.6.281.108.559.226.837.347a11.16,11.16,0,0,0,2,.714c12.539,2.762,25.559,2.06,39.8-2.149a169.208,169.208,0,0,0,39.15-17.421q3.6-2.148,7.174-4.325,3.127-1.892,6.254-3.773a5.8,5.8,0,0,1,4.963-.874,14.831,14.831,0,0,1,4.427,2.523c1.4,1.162,2.76,2.423,4.078,3.643a73.864,73.864,0,0,0,5.841,5.037c10.179,7.606,20.879,9.242,31.8,4.857a4.78,4.78,0,0,1,.845-.22c-.07.375-.133.744-.193,1.1a10.948,10.948,0,0,1-.845,3.19,6.313,6.313,0,0,0-.255,5.5,13.863,13.863,0,0,0,6.1,7.489,20.97,20.97,0,0,0,10.509,2.7,31.065,31.065,0,0,0,8.324-1.236c1.708-.476,2.785-1.285,3.2-2.406.427-1.152.12-2.524-.918-4.083a55.449,55.449,0,0,0-3.768-4.843l-.405-.486c-2.421-2.891-4.861-5.765-7.39-8.747l-2.7-3.181,2.776-.294.635.945c.533.788,1.022,1.513,1.491,2.249.726,1.135,1.43,2.287,2.135,3.439,1.469,2.4,2.986,4.885,4.689,7.187,3.915,5.291,8.1,8.13,13.181,8.935,4.768.757,8.472.123,11.654-1.983a7.588,7.588,0,0,0,1.127-12.425,37.357,37.357,0,0,0-3.064-2.569c-.506-.394-1.01-.787-1.5-1.192-.883-.725-1.779-1.437-2.673-2.151-1.988-1.584-4.045-3.222-5.93-4.966-4.877-4.509-8.983-9.875-12.954-15.066-.035-.047-.073-.095-.109-.144a22.752,22.752,0,0,1,2.285,1.926c2.3,2.228,4.572,4.484,6.846,6.739,3.241,3.214,6.595,6.539,9.967,9.731a94.466,94.466,0,0,0,10.9,9.282,13.854,13.854,0,0,0,16.536.066,54.838,54.838,0,0,0,7.49-6.394,31.028,31.028,0,0,0,7.063-11.428c9.225-.692,14.821-6.661,19.445-13.135a46.158,46.158,0,0,0,12.35,8.657c5.745,2.953,12.427,6.371,19.01,9.592,9.29,4.544,20.161,9.67,31.63,12.993a61.236,61.236,0,0,0,38.8-1.331,20.081,20.081,0,0,0,10.752-8.614,14.892,14.892,0,0,1,1.043-1.462c.089-.112.177-.228.267-.344.206.18.406.359.6.533.655.584,1.274,1.136,1.929,1.643,9.214,7.139,16.205,7.717,25.793,2.119,3.181-1.856,6.275-4,9.147-6.05,1.947-1.385,3.882-2.787,5.817-4.189,7.378-5.346,15.008-10.876,23.15-15.346,9.527-5.232,17.772-8.309,25.949-9.684,9.633-1.619,19.635-.962,30.587,2.005,15.821,4.289,30.525,11.124,45.384,18.409l-.022.049c.085.04.532.242,1.263.557l.388.188.685.337v-.074c3.749,1.556,11.384,4.464,18.337,5.487,9.92,1.461,58.9,8.152,122.69,8.152,65.318,0,146.161-7.016,216.488-33.848,77.089-29.414,132.469-27.915,165.358-21.472,35.584,6.968,53.206,21.053,53.38,21.2l2.2-2.7C3519.238,468.5,3501.668,454.4,3465.329,447.233ZM1501.787,363.5a6.81,6.81,0,0,1,1.277-2.021,82.521,82.521,0,0,1,8.206-7.126A104.72,104.72,0,0,1,1539,339.62a22.456,22.456,0,0,1,7.183-1.158,3.628,3.628,0,0,1,3.2,1.554,3.034,3.034,0,0,1-.142,3.061,29.2,29.2,0,0,1-6.748,8.636c-9.82,8.057-21.558,15.212-35.887,21.878-1.073.5-3.077,1.429-3.548,1.147s-.619-2.466-.712-3.914c-.095-1.421-.267-2.834-.467-4.471-.093-.753-.191-1.559-.291-2.439C1501.649,363.793,1501.714,363.653,1501.787,363.5ZM1321.855,234.768c-4.127,3.8-6.52,8.687-7.509,15.462-5.772-20.164-9.611-37.457-6.123-56.126a35.161,35.161,0,0,1,3.8-11.1C1308.761,202.939,1312.978,225.628,1321.855,234.768Zm29.487,54.438,1.734-.391c3.975-.881,7.942-1.826,11.906-2.771,8.373-1.994,17.032-4.056,25.633-5.458,7.631-1.244,13.8-.152,18.326,3.243,4.389,3.289,7.068,8.63,7.965,15.878,2.032,16.424-8.517,32.756-24.536,37.988-8.785,2.866-16.239.866-22.161-5.952a62.443,62.443,0,0,1-7.547-11.488c-1.616-3.021-3.105-6.188-4.544-9.25-1.516-3.228-3.084-6.568-4.816-9.763a33.519,33.519,0,0,0-6.785-8.883,10.3,10.3,0,0,0-2.518-1.7C1346.482,290.307,1348.949,289.748,1351.342,289.206Zm28.9-11.521c-3.265.636-6.637,1.295-9.931,2.078-9.12,2.17-13.618-.369-16.062-9.054-.986-3.5-1.736-7.15-2.463-10.678-.4-1.939-.8-3.877-1.234-5.8-.685-3.013-1.443-6.246-2.35-9.492a23.98,23.98,0,0,0-7.546-12.382l.824-.2c13.362-3.282,25.983-6.381,39.08-5.048,13.192,1.344,21.6,8.79,25,22.131,1.667,6.558,1.072,12.2-1.768,16.767-3.172,5.1-9.152,8.7-17.293,10.431C1384.411,276.872,1382.324,277.279,1380.238,277.684Zm-37.361-53.142c-4.234-.263-5.75-1.866-6.012-6.359-.2-3.42-.266-6.914-.329-10.295-.068-3.559-.136-7.24-.362-10.86a97.288,97.288,0,0,0-1.977-15.171c-1.179-5.3-4.18-8.84-8.7-10.284,1.793-.214,3.583-.438,5.374-.663,4.729-.592,9.616-1.2,14.432-1.594a120.755,120.755,0,0,1,31.02,1.162c7.894,1.394,12.438,5.884,13.889,13.727.978,5.287,1.905,12.275.389,19.444a19.691,19.691,0,0,1-10.7,14.137C1369.244,223.215,1357.136,225.423,1342.877,224.543Zm-14.091-44.589a70.928,70.928,0,0,1,2.944,14.231c.411,5.264.5,10.654.584,15.865.044,2.743.089,5.485.179,8.225.174,5.27,2.526,8.635,7,10.021-.981.222-1.959.451-2.936.679-2.974.695-6.046,1.412-9.089,1.9-3.314.524-5.322-.828-6.531-4.387-1.936-5.7-3.884-11.773-4.618-17.8a153.392,153.392,0,0,1-.627-20.569l.024-1.662c.03-2.186,1.128-4.577,2.011-6.5.867-1.886,2.581-4.131,5.825-4.131h.033A5.423,5.423,0,0,1,1328.785,179.954Zm-9.551,68.551c1-6.872,5.546-12.17,11.578-13.5,5.078-1.117,7.933.068,10.173,4.226a52.114,52.114,0,0,1,4.371,11.646c.954,3.665,1.733,7.454,2.488,11.116.589,2.861,1.2,5.819,1.888,8.714,1.046,4.381,2.95,9.738,8.415,12.716l0,.009c-1.738.31-3.474.647-5.207.984-4.227.821-8.6,1.671-12.919,2.1-6.075.6-11.077-2.045-14.458-7.679A45.036,45.036,0,0,1,1319.234,248.5Zm214.078,88.633c-14.659,6.213-25.635,13.17-33.533,21.257-1.032-.19-2.015-.386-2.966-.576a62.969,62.969,0,0,0-6.968-1.128,21.231,21.231,0,0,0-5.721.557l-.791.149c-37.053,6.788-76.081,11.534-119.319,14.514a155.091,155.091,0,0,1-21.909.033c-7.951-.586-10.394-3.138-10.9-11.384-.4-6.655-.361-13.346-.266-19.013.2-12.015.025-24.9-2.6-37.738-1.087-5.317-2.4-10.673-3.665-15.853q-.439-1.8-.88-3.6a20.383,20.383,0,0,0,14.193,6.584,8.736,8.736,0,0,0-3.3,4.732,29.478,29.478,0,0,0-1.3,8.12c-.37,11.141,1.285,23.12,5.056,36.621a90.567,90.567,0,0,0,6.057,16.381c3.554,7.1,8.893,9.432,16.8,7.323a79.559,79.559,0,0,0,13.677-4.865c30.39-14.416,64.03-22.383,105.867-25.07,17.752-1.141,33.524-2.211,48.224-3.27.022,0,.043-.011.065-.014l.152.943a27.85,27.85,0,0,1,15.145,2.485A38.671,38.671,0,0,0,1533.312,337.137ZM1408.13,393.692c-2.159.578-4.313,1.171-6.467,1.766-11.257,3.108-22.9,6.322-34.8,6.944-3.839.195-7.919-.866-12.083-2.072-1.238-.358-2.958-2.273-2.972-3.3-.013-.973,1.63-2.828,2.98-3.363a42.835,42.835,0,0,1,11.143-3.058,128.233,128.233,0,0,1,13.93-.78,106.688,106.688,0,0,1,26.573,3.265A13.593,13.593,0,0,1,1408.13,393.692Zm95.439,73.935a11.169,11.169,0,0,1,7.593,8.774Zm-15.2,15.52a184.7,184.7,0,0,1,19.987,4.874,23.625,23.625,0,0,1,10.608,6.319c-13.033-5.5-26.534-7.645-39.623-9.725-3.984-.631-8.1-1.287-12.123-2.023-3.507-.643-7.06-1.377-10.507-2.092C1468.54,479.924,1479.684,481.564,1488.373,483.148Zm21.8.649a197.645,197.645,0,0,0-56.778-8.081q-3.959,0-7.986.142l-.147-.366c.418-.315.833-.638,1.247-.962a24.651,24.651,0,0,1,3.732-2.573c11.36-5.9,23.8-6.21,33.369-5.822.942.038,1.88.133,2.815.228.456.044.912.09,1.367.13,8.772.764,14.935,4.457,18.839,11.287.926,1.622,1.881,3.228,2.958,5.034Zm-101.44,59.823-.364,3.233-.448-.032.008-.173c.047-1.007.095-2.038.212-3.04C1408.334,543.61,1408.551,543.615,1408.729,543.62ZM1310.3,523.463a3.042,3.042,0,0,1,.883-.158,1.037,1.037,0,0,1,.586.149c.367.247.6.882.693,1.89.124,1.344.228,2.689.345,4.224l.1,1.276c-2.557-.768-3.952-2.083-4.589-4.271C1308.158,526,1307.656,524.281,1310.3,523.463Zm4.512,10.9c1.858-.872,2.323-4.578,2.4-5.314a18.172,18.172,0,0,0-.291-4.482c-.046-.305-.092-.612-.135-.919,4.306.468,6.5,2.621,6.715,6.557.157,2.931-.057,3.794-5.862,4.2l-3.164.223-.679.048A4.066,4.066,0,0,0,1314.816,534.367ZM1041.6,516.218c-3.5-2.282-5.886-4.667-7.087-7.088-1.6-3.227-1.056-6.617,1.657-10.363,4.452-6.151,13.561-9.54,25.647-9.54a69.313,69.313,0,0,1,25.442,4.852c6.4,2.682,10.108,5.958,9.671,8.549-.288,1.709-4.2,10.388-53.059,13.452Zm-190.013-10.58c.878-1.926,1.711-3.743,2.626-5.528l.443-.867c1.747-3.409,3.553-6.933,5.56-10.244.874-1.442,1.523-2.141,2.04-2.2.7-.085,1.792.938,2.673,1.834,2.809,2.857,3,4.249,1.041,7.449-2.117,3.458-4.534,6.827-6.872,10.087l-1.132,1.581a1.761,1.761,0,0,1-1.171.576c-1.638-.166-3.27-.449-5-.75l-1.018-.176Q851.195,506.507,851.591,505.638ZM826.817,295.173c1.617-1.79,1.73-3.2.419-5.216-.84-1.288-1.7-2.562-2.561-3.838q-.89-1.32-1.771-2.64c-.267-.4-.511-.823-.783-1.29l-.116-.2a28.224,28.224,0,0,1,7.4-4.36c.212.415.41.8.584,1.2.29.657.568,1.317.847,1.977.438,1.032.875,2.065,1.345,3.083A7.12,7.12,0,0,0,839.9,288.2l4.627-.454c3.624-.358,7.247-.715,10.872-1.035,2.945-.26,6-.416,8.692-.554a4.494,4.494,0,0,1,4.135,1.86c3.8,5.262,6.823,9.545,9.511,13.479.712,1.041.647,1.391-.411,2.2a33.48,33.48,0,0,1-4.476,2.975c-4.944,2.67-9.907,5.3-14.87,7.935l-7.041,3.735c-.91.48-1.852.975-2.744,1.545-1.991,1.276-2.388,2.488-1.519,4.639.506,1.255,1.073,2.485,1.676,3.8.168.366.34.739.514,1.121l-3.191,1.453c-1.483-3.048-4.2-4.273-7.685-3.453a94.009,94.009,0,0,0-9.886,2.925c-2.736.972-5.477,2.051-8.13,3.1-1.78.7-3.562,1.4-5.352,2.078a30.979,30.979,0,0,1-4.08,1.187c-1.51.34-2.554.291-3.2-.15a3.587,3.587,0,0,1-1.177-2.556,67.067,67.067,0,0,1-.723-11.382c.149-6.057,2.985-11.219,9.195-16.739,2.364-2.1,4.754-4.178,7.144-6.253l3.76-3.273A14.779,14.779,0,0,0,826.817,295.173Zm133.038-7.853c-.233.586-.445,1.181-.658,1.776-.373,1.035-.723,2.011-1.17,2.958-1.285,2.73-.845,4.911,1.473,7.289,3.266,3.352,6.454,6.9,9.537,10.329,1.564,1.738,3.126,3.477,4.705,5.2a10.236,10.236,0,0,1,2.771,8.63l-1.108,8.889-.313-.241c-.668-.511-1.337-1.022-1.984-1.557a224.718,224.718,0,0,0-23.66-17.374c-7.783-4.879-14.542-7.775-21.268-9.109a44.5,44.5,0,0,0-8.665-.946,27.9,27.9,0,0,0-6.761.79,19.926,19.926,0,0,0-6.246,2.782,4.822,4.822,0,0,0-1.227,1.165c-.082-.312-.184-.638-.3-.981a7.2,7.2,0,0,1,1.977-8.176c5.93-5.685,12.42-8.552,19.839-8.764,1.051-.03,2.1-.022,3.154-.014.782,0,1.567.011,2.345,0,1.695-.021,2.752-.362,3.428-1.109a4.164,4.164,0,0,0,.747-3.314c-1.078-12.175-6.315-20.839-16.008-26.491a52.4,52.4,0,0,0-22.1-6.818,119.835,119.835,0,0,0-21.783-.127,32.814,32.814,0,0,0-29.62,25.456l-.22.929a23.357,23.357,0,0,1-.673,2.486,9.818,9.818,0,0,1-.748,1.535,3.087,3.087,0,0,1-.469-2.157,24.073,24.073,0,0,1,.766-5.7,73.4,73.4,0,0,1,3.558-9.271c3.73-7.984,10.239-12.908,19.35-14.634a96.272,96.272,0,0,1,28.529-.87,78.028,78.028,0,0,1,23.742,6.153,57.1,57.1,0,0,1,7.06,3.844,11.972,11.972,0,0,1,5.465,7.258c1.388,5.3,2.846,10.953,4.056,16.736a9.422,9.422,0,0,0,4.1,6.076,8.467,8.467,0,0,0,6.6,1.008,6.055,6.055,0,0,0,2.841-2.155,4.457,4.457,0,0,0,.791-1.9c.043-.174.082-.348.13-.514.707-2.459.967-2.6,3.428-1.969.774.2,1.523.47,2.317.755.532.191,1.062.383,1.6.554a1.351,1.351,0,0,1,.8.517A1.563,1.563,0,0,1,959.855,287.321ZM850.841,322.676a10.628,10.628,0,0,1,2.062-1.239c.248-.127.5-.252.741-.381l6.4-3.4c4.972-2.638,9.943-5.276,14.884-7.968a30.827,30.827,0,0,0,5.109-3.55c2.706-2.287,2.048-4.594,1.019-6.129-3.081-4.59-6.495-9.413-10.431-14.742a6.95,6.95,0,0,0-6.239-2.7c-3.5.2-6.989.449-10.482.7l-3.553.25c-.44.032-.88.071-1.323.114l.324-1.122c.468-1.621.92-3.167,1.336-4.722A29.1,29.1,0,0,1,876.375,255.8a96.854,96.854,0,0,1,28.162,1.073,41.791,41.791,0,0,1,18.317,8.324c5.145,4.094,8.288,9.907,9.613,17.772.144.851.244,1.711.354,2.643l.079.658-.063.006c-.538.047-1.008.09-1.48.1-.79.016-1.587.01-2.382,0a45.591,45.591,0,0,0-4.707.123c-6.99.673-13.273,3.611-19.211,8.986-4.013,3.634-5.2,7.888-3.52,12.642.266.75.331,1.238.2,1.489s-.6.5-1.4.715c-2.285.625-4.589,1.189-6.892,1.754-2,.489-3.994.978-5.979,1.505-11.429,3.04-22.075,7.845-31.876,12.583l-3.409,1.641c-.109-.234-.218-.465-.324-.695a31.187,31.187,0,0,1-1.443-3.407A1.6,1.6,0,0,1,850.841,322.676ZM918.717,374.4c-.172-6.03-.354-12.229-.608-18.331-.071-1.7-.211-3.418-.378-5.12.1.62.195,1.258.279,1.918A125.154,125.154,0,0,1,918.717,374.4Zm-2.877,25.277a5.182,5.182,0,0,1-.218,1.518,18.761,18.761,0,0,1-.821-4.857l-.021-.245a400.67,400.67,0,0,1-.8-47.2c.1.916.182,1.836.215,2.744C914.769,366.945,915.324,383.11,915.84,399.676Zm.662,13.648a1.037,1.037,0,0,1-.446.7h0a1.307,1.307,0,0,1-.285-.065Zm-16.957,11.347c-4.485,3.056-9.071,6.183-13.822,9.008,4.183-2.8,8.745-5.835,13.31-8.81q2.008-1.306,4.032-2.587C901.877,423.083,900.7,423.883,899.544,424.671Zm-58.753,9.992c-3.282-12.537-3.2-25.138-2.689-35.811a107.8,107.8,0,0,1,3.751-24.172c3.577-12.746,10.735-24.263,21.283-34.227a123.542,123.542,0,0,1,13.26-10.883c11.134-7.907,23.63-10.337,37.142-7.22A122.854,122.854,0,0,1,960.5,344.4c9.064,6.878,15.865,16.307,21.408,29.669a91.464,91.464,0,0,1,6.588,31.538,115.657,115.657,0,0,1-3.532,35.154c-3.181,12.009-8.255,21.943-15.514,30.368-9.82,11.4-22.677,18.581-38.213,21.34a55.852,55.852,0,0,1-39.432-7.443c-11.542-6.9-20.588-14.805-27.656-24.155a54.234,54.234,0,0,1-7.973-15.2c-2.317-6.775-4.493-13.577-6.466-20.217-2.534-8.521-3.133-17.652-1.841-27.915a112.468,112.468,0,0,1,7.881-29.8c4.081-9.628,9.356-16.973,16.127-22.452a50.989,50.989,0,0,1,26.424-11.407,24.713,24.713,0,0,1,7.3.347,12.389,12.389,0,0,1,8.635,6.074,2.657,2.657,0,0,0-.786-.133,2.963,2.963,0,0,0-2.249,1.929,14,14,0,0,0-.733,4.14l-.062,5.129c-.116,9.225-.234,18.762-.161,28.146.04,5.093.426,10.255.8,15.245l.154,2.067a32.275,32.275,0,0,0,1.163,6.3,9.193,9.193,0,0,0,1.252,2.45c.131.206.266.413.4.625l-.195.274a10.686,10.686,0,0,0-2.244,5.107c-.078.348-.158.712-.25,1.092l-2.681,1.722c-2.317,1.489-4.732,3.04-7.141,4.6l-3.729,2.417c-5.561,3.6-11.124,7.207-16.652,10.864a37.339,37.339,0,0,0-3.909,3.122l-.6.522a7.2,7.2,0,0,0-1.608,1.978A2.54,2.54,0,0,0,875,440.57a2.424,2.424,0,0,0,2.415.959,9.608,9.608,0,0,0,3.154-.95l.821-.41a64.181,64.181,0,0,0,6.269-3.414c5.229-3.376,10.5-6.875,15.6-10.257l5.507-3.649a6.234,6.234,0,0,0,.6-.472l.877-.723-1.731-2.8,3.357-2.109c.228-.144.462-.279.661-.393.176.111.345.223.51.334a6.306,6.306,0,0,0,2.059,1.04,3.842,3.842,0,0,0,3.233-.7,5.083,5.083,0,0,0,1.893-3.861,24.482,24.482,0,0,0-.179-5.292c-.649-3.779-.123-7.414.432-11.265.163-1.133.328-2.265.461-3.4,1.746-15.054,2.049-27.4.954-38.854a44.951,44.951,0,0,0-2.951-12.762c-2.956-7.281-8.581-11.151-16.715-11.5a38.38,38.38,0,0,0-13.716,2.155c-15.516,5.028-27.061,15.163-34.31,30.124-4.98,10.28-8.255,21.841-10.007,35.339a75.545,75.545,0,0,0,3.5,33.877c.878,2.629,1.731,5.267,2.583,7.9q.966,3,1.947,5.99a65.277,65.277,0,0,0,16,25.725,112.024,112.024,0,0,0,20.335,16.158c16.935,10.512,35.312,12.46,54.618,5.792a66.728,66.728,0,0,0,36.945-30.814c5.724-9.98,9.35-21.232,11.081-34.4a122.447,122.447,0,0,0,.321-30.526c-2.507-20.85-10.108-37.539-23.234-51.021-5.941-6.1-13.123-10.491-18.714-13.634-12.756-7.161-24.642-11.8-36.339-14.183a48.837,48.837,0,0,0-37.49,6.978,101.481,101.481,0,0,0-16.826,13.852c-.374.375-.714.78-1.075,1.222l-4.1-9.47.761-.377c1.027-.506,2.03-1,3.039-1.488,9.964-4.809,20.781-9.66,32.359-12.559,1.981-.5,3.964-.975,5.947-1.454l4.005-.972a17.356,17.356,0,0,0,1.716-.508c1.916-.682,3.091-1.434,3.633-2.477a4.412,4.412,0,0,0,2.184,1.53,26.387,26.387,0,0,0,6.277,1.4c19.385,1.81,37.406,9.962,55.091,24.924,8.236,6.965,14.84,16.32,20.786,29.439a117.439,117.439,0,0,1,9.527,36.143,113.919,113.919,0,0,1-.336,29.544A83.852,83.852,0,0,1,973.4,483.376,86.527,86.527,0,0,1,956.72,496.2c-7.96,4.616-17.182,6.984-28.192,7.24a103.029,103.029,0,0,1-29.457-3.648c-1.135-.309-2.239-.668-3.342-1.027l-.089-.029c-11.1-4.483-16.373-8.062-16.424-8.1l-.651-.454-.122.174a68.47,68.47,0,0,1-12.016-10.355C853.475,465.906,845.089,451.072,840.791,434.664Zm23.88,49.153c-2.144-1.258-3.767-1.063-5.424.652a18.227,18.227,0,0,0-3.094,4.1c-2.034,3.879-4.02,7.859-5.94,11.708l-2.113,4.23c-.279.552-.551,1.109-.826,1.674l-.163.336c-.279-.054-.525-.1-.769-.168a50.653,50.653,0,0,1-15.414-7.019c-8.1-5.517-15.641-12.6-23.734-22.291a63.263,63.263,0,0,1-12.267-23.427,133.654,133.654,0,0,1-4.672-27.108c-.893-12.643.15-23.75,3.187-33.956a90.242,90.242,0,0,1,33.908-47.842c5.45-4.007,10.861-6.057,16.546-6.264.182-.006.364-.009.541-.009a9.386,9.386,0,0,1,4.175.821,14.536,14.536,0,0,1,4.2,3.839c.431.508.864,1.018,1.314,1.507l-1.176,1.429a76.617,76.617,0,0,0-15.245,30.037c-2.79,11.127-3.85,23.427-3.341,38.707A91.18,91.18,0,0,0,839.59,443.3a114.428,114.428,0,0,0,26.049,41.138C865.326,484.218,865,484.012,864.671,483.817ZM342.89,458.249c-2.051,0-4.085.079-6.112.236a47.928,47.928,0,0,0-11.952,2.432,30.043,30.043,0,0,0-11.833,7.468c-.408.419-.834.821-1.374,1.329l-.014-.068a17.52,17.52,0,0,1-.342-2.1c-.261-3.38-.53-6.981-.695-10.553-1.2-25.813-1.6-51.4-1.833-73.02-.07-6.406-.252-13.976-1.059-21.534-.657-6.145-1.769-13.313-5.034-19.874a2.291,2.291,0,0,1-.04-2.078,10.005,10.005,0,0,1,4.365-5.2,50.126,50.126,0,0,1,5.566-2.714,73.159,73.159,0,0,1,19.494-4.689,61.953,61.953,0,0,1,28.909,3.619,67.065,67.065,0,0,1,12.591,6.416c1.647,1.056,3.282,2.132,4.917,3.206q2.1,1.377,4.2,2.743a97.49,97.49,0,0,0,11.812,6.663,49.058,49.058,0,0,0,25.25,4.2c6.357-.51,12.71-1.606,18.855-2.667q2.36-.406,4.719-.8a53.68,53.68,0,0,1,11.233-.9,14.845,14.845,0,0,1,5.531,1.293,11.687,11.687,0,0,1,4.8,4.187,39.747,39.747,0,0,1,4.919,9.435c1.909,5.414,3.387,10.926,5.018,17.54,4.354,17.646,8.706,36.817,13.3,58.611,2.339,11.081,4.653,22.669,6.512,31.979.586,2.936.984,5.9,1.268,8.147a17.19,17.19,0,0,1,.04,3.82c-.127,1.287-.53,1.685-1.877,1.856a28.254,28.254,0,0,1-4.159.285l-3.88-.109c-5.2-.144-10.575-.291-15.84-.646-5.721-.385-11.431-1.079-16.75-1.773a238.265,238.265,0,0,1-31.818-6.7c-9.12-2.463-18.252-5.462-27.081-8.362q-2.974-.978-5.949-1.95c-8.233-2.681-17.016-5.465-25.935-7.444A90.479,90.479,0,0,0,342.89,458.249ZM90.943,465.819a32.234,32.234,0,0,0-.188,5.859,10.549,10.549,0,0,0,.731,3.306,6.771,6.771,0,0,0,6.656,4.64,12.308,12.308,0,0,0,6.678-1.9c1.189-.722,2.341-1.5,3.55-2.314q.7-.47,1.427-.957a8.448,8.448,0,0,0,4.656-1.059,5.425,5.425,0,0,1,5.085.028l1.1.51c.834.383,1.67.764,2.472,1.2,6.133,3.357,13.159,5.444,22.118,6.569a192.063,192.063,0,0,0,32.462,1.06,238.618,238.618,0,0,0,24.866-2.537c10.795-1.6,21.685-3.651,32.218-5.634,4.21-.793,8.421-1.586,12.637-2.353a154.624,154.624,0,0,1,16.082-2.224,27.179,27.179,0,0,1,19.578,5.711c1.358,1.062,2.57,2.051,3.686,3.084a49.836,49.836,0,0,0-10.122-3.9,46.051,46.051,0,0,0-9.486-1.465,101.593,101.593,0,0,0-23.856,1.681,34.671,34.671,0,0,0-3.414.828,7.287,7.287,0,0,0-2.013.975,2.554,2.554,0,0,0-1.13,2.192,2.4,2.4,0,0,0,1.227,2.007,9.733,9.733,0,0,0,2.88,1.12c2.094.443,4.294.829,6.536,1.149,4.162.592,8.334,1.128,12.5,1.665a97.366,97.366,0,0,1,18.777,4.4c2.624.88,5.428,1.722,9.089,2.73a29.2,29.2,0,0,0,16.82-.529q.344-.109.69-.226l-.524.23-2.138.932c-.454.2-.91.386-1.366.576-.514.215-1.029.429-1.538.652a12.5,12.5,0,0,1-8.945.554c-2.341-.707-4.749-1.29-7.079-1.852l-1.279-.31a156.273,156.273,0,0,0-19.866-3.3c-5.96-.661-13.814-1.5-21.7-2.1-9.166-.707-17.532-1.056-25.413-1.056q-2.685,0-5.3.055c-6.384.131-13.126.413-21.216.889-3.779.222-7.609.563-11.312.891-1.947.174-3.892.347-5.838.5l-.741.06c-2.747.223-5.59.454-8.385.606a443.646,443.646,0,0,1-44.611.317l-3.4-.152c-4.325-.19-8.8-.388-13.192-.65a62.118,62.118,0,0,1-12.036-1.6,21.434,21.434,0,0,1-3.377-1.182,7.2,7.2,0,0,1-4.27-5.518,19.072,19.072,0,0,1-.22-5.75,102.162,102.162,0,0,1,3.488-16.669c3.431-12.355,7.585-24.718,11.6-36.675l.869-2.584q8.779-26.151,17.622-52.281l1.132-3.35c.487-1.44,1.03-2.98,1.7-4.474a6.485,6.485,0,0,1,1.336-1.814.433.433,0,0,1,.386-.138.353.353,0,0,1,.266.217,5.587,5.587,0,0,1,.63,2.1v.574a43.2,43.2,0,0,1-.323,6.441,137.807,137.807,0,0,1-5.191,20.7c-3.49,10.962-7.112,22.087-10.618,32.845L99.7,433.634c-2.456,7.524-5,15.3-6.936,23.134C91.989,459.887,91.376,462.932,90.943,465.819Zm50.19-112.15a20.48,20.48,0,0,0,.361-4.438,3.287,3.287,0,0,0-1.295-2.787,3.075,3.075,0,0,0-2.538-.393,47.933,47.933,0,0,1,10.271-1.891c4.08-.329,8.521-.549,13.973-.7,4.389-.119,8.78-.2,13.172-.272,4.012-.071,8.024-.142,12.036-.244a109.863,109.863,0,0,0,15.212-1.427,91.114,91.114,0,0,0,18.01-5.183l2.507-.973c4.232-1.651,8.608-3.357,13.047-4.612a99.22,99.22,0,0,1,32.307-3.787,46.273,46.273,0,0,1,15.619,3.365,29.01,29.01,0,0,1,12.966,10.231,3.444,3.444,0,0,1,.685,3.078,98.583,98.583,0,0,0-2.07,15.726c-.969,13.219-1.6,27.1-1.875,41.252-.272,13.9-.576,30.322-.788,46.7-.041,3.26.055,6.566.149,9.763.047,1.624.1,3.249.127,4.871.011.612,0,1.225-.022,1.86l0,.093a4.459,4.459,0,0,1-1.062-.529c-.2-.122-.4-.239-.6-.345a44.951,44.951,0,0,0-14.025-4.7,53.485,53.485,0,0,0-15.353-.082,161.278,161.278,0,0,0-18.223,3.835l-2.842.711a273.966,273.966,0,0,1-28.227,5.818c-6.612.91-13.373,1.611-19.91,2.287l-2.54.264c-7.839.817-15.856,1.1-23.611,1.369l-.643.024a171.65,171.65,0,0,1-26.2-.913,43.379,43.379,0,0,1-14.805-4.2c-1.141-.581-2.3-1.078-3.184-1.447a9.648,9.648,0,0,0-3.727-.79,8.859,8.859,0,0,0-4.667,1.374c-.38.233-.769.453-1.184.685a4.669,4.669,0,0,1,.169-1.5l.074-.355.465-2.311c.582-2.915,1.185-5.93,1.939-8.84,4.094-15.805,8.392-32.2,13.139-50.122q3.055-11.542,6.166-23.071,2.618-9.757,5.224-19.52C140.008,359.113,140.587,356.538,141.133,353.669Zm156.7,119.251a5.749,5.749,0,0,1,2.287,3.773,2.424,2.424,0,0,1-.108.831c-.157.489-.4.519-.513.532s-.35.041-.532-.355A12.851,12.851,0,0,1,297.835,472.92Zm18.6,13.376c1.491-.842,2.972-1.7,4.453-2.556,1.412-.817,2.823-1.635,4.243-2.437a88.753,88.753,0,0,1,11.469-5.613,47.3,47.3,0,0,1,21.6-2.872,153.9,153.9,0,0,1,24.908,4.6c5.015,1.272,10.019,2.586,15.023,3.9q5.094,1.339,10.192,2.662c7.968,2.06,15.948,3.684,25.285,5.425-3.217-.443-6.47-.9-9.674-1.4-12.189-1.9-24.256-4.849-36.573-7.957a164.9,164.9,0,0,0-27.776-4.708q-3.145-.242-6.058-.244a56.308,56.308,0,0,0-12.138,1.238,37.535,37.535,0,0,0-6.115,1.948,14.3,14.3,0,0,0-7.1,5.911A2.445,2.445,0,0,1,326,485.463a59.952,59.952,0,0,0-14.462,3.4C313.1,488.119,314.718,487.267,316.44,486.3Zm13.852,3.015.222-.046a10.455,10.455,0,0,1,1.225-.21,114.062,114.062,0,0,1,19.33.388c8.372.69,16.85,1.8,25.048,2.872,3.4.445,6.792.889,10.19,1.306,9.264,1.139,20.235,2.432,31.353,3.409,6.593.579,13.311.877,19.809,1.165l4.827.218c15.071.709,30.392.6,45.208.486l4.7-.033c2.921-.019,5.8-.222,9.214-.519a17.031,17.031,0,0,0,4.08-.923,4.987,4.987,0,0,0,3.5-4.844,30.779,30.779,0,0,0-.883-7.87c-2.3-10.752-4.7-21.83-7.357-33.867q-3.7-16.781-7.416-33.559-4.98-22.507-9.94-45.02c-.614-2.795-1.139-5.666-1.649-8.441-.2-1.116-.407-2.231-.641-3.474a5.608,5.608,0,0,1-.154-1.671l.07.027.489.631a15.876,15.876,0,0,1,1.988,2.974,69.794,69.794,0,0,1,2.885,7.373c2.972,9.033,5.238,18.314,7.43,27.288,5.46,22.365,10.79,46.142,15.842,70.669,1.294,6.284,2.549,12.983,3.948,21.086a51.142,51.142,0,0,1,.747,8.133c.049,4.172-1.45,5.827-5.721,6.321a32.566,32.566,0,0,1-4.751.239c-4.417-.12-9-.3-14.012-.544-2.58-.127-5.158-.3-7.736-.481l-32.282-2.148q-5.434-.361-10.868-.737c-7.91-.541-15.819-1.084-23.734-1.556-10.793-.646-21.422-1.166-33.2-1.734-9.165-.442-18.644-.661-28.99-.661-6.324,0-12.971.082-20.066.245-.75.016-1.5,0-2.2-.011a1.6,1.6,0,0,1-.165-.062l-.033-.013C329.791,493.96,329.7,492,330.293,489.31Zm58.062.457q-3.326-.422-6.652-.839l-5.416-.674q-7.67-.957-15.345-1.886c-5.6-.666-12.235-1.366-18.926-1.489q-1.526-.026-3.056-.024c-.714,0-1.429,0-2.143,0-1.136.006-2.273.009-3.41,0-.1,0-.222,0-.337.011s-.207.009-.288.009a1.713,1.713,0,0,1,.195-.258,12.394,12.394,0,0,1,4.243-2.807A28.4,28.4,0,0,1,343.64,480a68.357,68.357,0,0,1,18.646-.353,159.486,159.486,0,0,1,23.55,4.213c11.71,2.956,25.364,6.291,39.254,8.467,4.376.687,9.193,1.442,14.087,1.951-5.824-.264-11.668-.665-17.367-1.056l-2.847-.195c-4.876-.331-10.184-.82-16.228-1.5C397.939,490.986,393.066,490.368,388.354,489.768ZM136.763,346.337a15.723,15.723,0,0,0-1.992,1.022c-.342.2-.682.392-1.029.573l-1.158.6c-1.274.665-2.55,1.331-3.85,1.94q.038-.038.076-.071a17.305,17.305,0,0,1,4.927-2.926Q135.217,346.85,136.763,346.337Zm265.344,131.85-1.75-.472c-9.046-2.442-18.4-4.968-27.755-6.865a95.481,95.481,0,0,0-20.643-2.2,48.93,48.93,0,0,0-17.587,3.562,103.952,103.952,0,0,0-12.379,6.205l-3.2,1.834c-1.831,1.054-3.662,2.108-5.5,3.14a57.751,57.751,0,0,1-8.987,4.1,26.726,26.726,0,0,1-16.427.589c-2.467-.69-5.028-1.486-7.615-2.366a108.652,108.652,0,0,0-21.623-4.93c-3.238-.4-6.47-.834-9.7-1.269l-3.241-.435c-.324-.043-.643-.084-.953-.139a107.426,107.426,0,0,1,18.3-1.594,62.352,62.352,0,0,1,8.456.65,42.928,42.928,0,0,1,15.288,5.43l.956.541c1.187.673,2.372,1.345,3.585,1.969a8.3,8.3,0,0,0,2.382.809,2.16,2.16,0,0,0,2.042-.832,2.116,2.116,0,0,0,.329-2.127,11.2,11.2,0,0,0-1.575-2.621,50.67,50.67,0,0,0-9.681-9.2,30.676,30.676,0,0,0-18.958-6.072,109.3,109.3,0,0,0-17.181,2.007q-10.4,1.854-20.787,3.787-8.484,1.562-16.973,3.1a271.449,271.449,0,0,1-28.322,3.643,183.478,183.478,0,0,1-38.729-1.014,57.139,57.139,0,0,1-15.088-4.042,46.05,46.05,0,0,0,6.284,1.613,95.627,95.627,0,0,0,14.642,1.519c9.632.256,18.464.147,27-.342,9.752-.559,18.731-1.32,27.45-2.333a269.362,269.362,0,0,0,31.933-5.716l2.333-.563c6.258-1.511,12.729-3.073,19.121-4.457a50.519,50.519,0,0,1,18.222-.923,43.293,43.293,0,0,1,16.277,5.933,2.8,2.8,0,0,1,1.465,2.39c.157,1.654.391,3.835.815,6.031a10.9,10.9,0,0,0,1.274,3.456,4.479,4.479,0,0,0,3.755,2.325,4.689,4.689,0,0,0,3.947-2.2,5.894,5.894,0,0,0,.609-5.352,12.4,12.4,0,0,0-3.129-4.835c-.8-.8-1.632-1.565-2.478-2.342l-.931-.859-.027-.161a6.793,6.793,0,0,1-.112-.862l-.117-2.594c-.109-2.334-.222-4.749-.247-7.117-.209-19.214.1-40.014.927-63.588.449-12.732.905-24.231,1.917-36.018l.038-.44a67.722,67.722,0,0,1,.935-7.568,47.808,47.808,0,0,1,2.193,8.829,149.292,149.292,0,0,1,1.681,21.583l.146,9.027c.343,21.376.7,43.48,1.606,65.212.18,4.3.442,8.643.673,12.322.087,1.4.255,2.868.529,4.626a13.4,13.4,0,0,0,.756,2.937,2.807,2.807,0,0,0,4.691,1.211,26.737,26.737,0,0,0,2.341-2.271l.381-.4a26.393,26.393,0,0,1,11.516-7.031,49.666,49.666,0,0,1,13.327-2.124,89.351,89.351,0,0,1,25.01,3.083c9.127,2.277,17.973,5.2,26.529,8.027,12.453,4.115,24.687,8.057,37.3,11.076C419.367,482.493,410.392,480.42,402.107,478.186Zm-68.961,99.237c1.268,2.059,1.872,4.457,1.6,4.855-.022.022-2.554,1.834-18.3-7.076-3.825-2.167-3.692-4.4-3.259-5.89,1.258-4.33,7.649-9.651,17.643-14.729a20.45,20.45,0,0,0-1.092,6.981,45.269,45.269,0,0,0,3.342,14.971l-.345.214Zm1206.718-61.1-.044-.233c-.076-.383-.163-.761-.266-1.212a5.073,5.073,0,0,1,3.955,4.425,6.972,6.972,0,0,1-1.864,4.849c-1.513,1.559-4.214,2.9-6.843,1.553a6.294,6.294,0,0,1-2.466-3.814q-.092-.418-.18-.836a6.926,6.926,0,0,0,2.532,2.061,3.476,3.476,0,0,0,2.942.119C1540.913,521.674,1540.331,518.709,1539.864,516.325Zm-9.019-3.629v0a2.074,2.074,0,0,0-.169.237q-.183-1.128-.361-2.244c-.135-.831-.267-1.662-.4-2.493.984.681,1.849,1.344,1.964,2.138A3.378,3.378,0,0,1,1530.845,512.7Zm4.911,5.944-1.257-3.646.049-.019,1.37,3.6ZM1644.822,497.9a73.2,73.2,0,0,1-16.375-19.192c-16.044-27.543-9.581-37.42-7.218-39.792a9.4,9.4,0,0,1,6.824-2.622,16.881,16.881,0,0,1,8.318,2.458c11.214,6.484,19.532,24.088,12.838,48.81A37.21,37.21,0,0,1,1644.822,497.9Zm1125.338-3.583c-.052.161-.1.323-.155.486-1.334-1.712-1.876-3.49-1.49-4.963a3.869,3.869,0,0,1,2.426-2.567C2771.656,489.64,2770.959,491.82,2770.16,494.321Zm-205.807-3.979a4.992,4.992,0,0,0,.907-.177,4.552,4.552,0,0,1,5.069,1.418,5.941,5.941,0,0,1,.875,6.128l-.076,0a10.407,10.407,0,0,1-7.535-3.376,11.7,11.7,0,0,1-2.657-4.559A4.6,4.6,0,0,0,2564.354,490.342Zm10.8,4.536a9.239,9.239,0,0,0-3.295-6.565,9.136,9.136,0,0,0-7.1-1.532l-1.478.212c-.636-2.588.592-4.616,3.414-5.62,2.627,1.293,4.6,3.6,6.512,5.835l.3.347c1.739,2.03,3.45,4.089,5.161,6.147q1.728,2.075,3.463,4.143a76.262,76.262,0,0,0,13.9,12.681,29.584,29.584,0,0,1,4.608,3.9,4.047,4.047,0,0,1-1.035,6.807c-3.887,2.287-8.253,2.355-12.979.209a18.421,18.421,0,0,1-7.112-6.25c-1.758-2.39-3.4-4.955-4.809-7.174-1.016-1.606-1.975-3.235-2.988-4.958-.347-.587-.7-1.184-1.054-1.788C2574.2,500.517,2575.546,498.57,2575.154,494.878ZM2558.59,480.2a12.581,12.581,0,0,0,1.725,15.538,32.223,32.223,0,0,0,3.861,3.19c.345.256.687.51,1.021.763l-3.774,1.613c-3.258,1.389-6.523,2.782-9.774,4.2-8.126,3.561-16.579,3-25.135-1.655-3.968-2.16-7.24-5.322-10.407-8.381-.8-.772-1.6-1.54-2.4-2.29q1.381.081,2.765.166c2.926.179,5.952.362,8.937.467,10.358.37,19.76-3.409,28.667-11.532a69.84,69.84,0,0,0,10.679-12.694c.571-.839,1.186-1.635,1.781-2.407l.377-.487,2.254,2.888c2.263,2.9,4.49,5.757,6.746,8.592l.15.19a9.35,9.35,0,0,0,2.55,2.488,13.219,13.219,0,0,0,5.053,1.85,5.676,5.676,0,0,0,5.889-3c1.24-2.462-.023-4.488-1.423-6.147-2.337-2.77-6.121-6.346-12.064-5.495a14.055,14.055,0,0,1-2.531.052c-.258-.011-.513-.021-.764-.025-.511-2.456.046-3.088,1.848-3.654,2.146-.677,4.181-.025,6.25.761,8.182,3.113,14.019,7.19,18.369,12.833,1.663,2.155,3.564,4.17,5.4,6.12q.771.814,1.533,1.632a14.1,14.1,0,0,0,11.882,4.83c3.585-.242,6.975.943,10.265,2.1.578.2,1.15.4,1.726.6.929.312,1.85.707,2.827,1.125.353.15.712.305,1.089.462-.073.215-.141.43-.209.643a12.018,12.018,0,0,1-.772,2,34.178,34.178,0,0,1-9.943,11.687c-6.351,4.613-11.334,4.469-17.185-.494-3.189-2.706-6.25-5.683-9.211-8.56-1.066-1.037-2.133-2.073-3.208-3.1q-2.908-2.782-5.791-5.593c-2.716-2.635-5.525-5.36-8.331-8a23.243,23.243,0,0,0-14.613-6.335c-.2-.014-.407-.022-.6-.022A6.248,6.248,0,0,0,2558.59,480.2Zm-27.39-78.638a35.235,35.235,0,0,0,3.062,3c.269.242.543.492.824.75h-.006c-.638.008-1.144.014-1.654-.013a16.748,16.748,0,0,0-11.475,3.849c-1.869,1.45-2.852,2.929-3.007,4.52s.518,3.2,2.049,4.963c.681.779,1.426,1.51,2.149,2.216.537.524,1.073,1.049,1.584,1.6a5.12,5.12,0,0,1,.654.981l.106.182a7.379,7.379,0,0,1-2.225.361c-1.491.093-3.178.2-4.306,1.967l-.144.226.448.905a14.54,14.54,0,0,0-1.249-1.572l-2.344-2.45c-3.865-4.045-7.861-8.225-11.9-12.229-2.032-2.013-4.387-2.474-8.584-2.474l-.5,0a41.712,41.712,0,0,1,9-10.424c6.824-5.868,13.52-9.791,20.477-11.994a19.676,19.676,0,0,1,6.424-.942c1.562.044,2.625.486,3.075,1.279.461.813.275,2.043-.522,3.466-.609,1.086-1.244,2.154-1.882,3.224l-.647,1.09C2528.97,396.809,2529.158,399.2,2531.2,401.558Zm6.685,13.629a24.4,24.4,0,0,1-1.684,2.692c-.34.5-.682,1-1,1.507-1.447,2.3-1.592,3.254-.661,5.746-.508.169-1.007.348-1.5.525-2.113.758-4.123,1.483-6.259,1.236a2.978,2.978,0,0,0,2.3-2.276c.452-1.992-.837-3.366-1.975-4.578-.454-.484-.921-.954-1.389-1.426a36.474,36.474,0,0,1-2.6-2.817c-1.07-1.34-1.035-2.271.124-3.319,3.583-3.24,7.508-4.452,11.658-3.6a4.491,4.491,0,0,1,3.316,2.246A4.578,4.578,0,0,1,2537.885,415.187Zm4.813,3.577c-1.163,2.154-2.415,3.961-5.177,3.885q.081-.176.155-.347c.29-.644.54-1.2.837-1.733s.627-1.035.958-1.545a11.406,11.406,0,0,0,2.352-6.709c.018-.177.036-.353.054-.53C2543.708,414.169,2543.967,416.407,2542.7,418.764Zm-39.731-4.2c2.44,2.607,4.976,5.2,7.429,7.714q1.937,1.982,3.866,3.972a4.349,4.349,0,0,1,.351.426c-.864-.323-1.693-.7-2.5-1.062-2.227-1.007-4.333-1.954-6.814-1.7a6.632,6.632,0,0,0-1.538.4c-.18.063-.351.125-.513.173l-.176.052-.1.157c-.968,1.6-.712,2.923.764,3.939a17.306,17.306,0,0,0,13.609,3.1,9.655,9.655,0,0,1,2.872-.215c8.584,1.044,17.461-.25,27.932-4.066,4.6-1.676,10.046-3.648,15.536-5.572.988-.347,2.037-.611,3.048-.866q.389-.1.775-.2c-.07.073-.141.146-.212.218a14.277,14.277,0,0,0-1.443,1.633,11.966,11.966,0,0,0-.992,1.8c-.13.269-.268.554-.422.856l-13.164,4.124q-4.159,1.3-8.323,2.6c-6.549,2.038-13.318,4.145-19.955,6.284a50.01,50.01,0,0,1-14.186,2.268l-.426.011c-4.453.116-9.06.237-13.58.593a45.608,45.608,0,0,0-5.247.828c-1.014.2-2.027.4-3.045.559a8.8,8.8,0,0,1-1.686.04c-.142-.006-.29-.011-.443-.016l10.48-30.677A8.146,8.146,0,0,1,2502.967,414.565Zm73.63,28.686c.722-.821,1.467-1.668,2.138-2.545,3.4-.177,6.729,2.274,7.21,5.359a3.371,3.371,0,0,1-.672,2.58c-3.575,3.137-7.869,4.923-13.481,5.6C2571.25,449.327,2573.849,446.372,2576.6,443.251Zm-6.482-3.827a10.136,10.136,0,0,1,3.923-2.233h.01a3.161,3.161,0,0,1,.782.355l.089.049Zm14.612-18.584a5.078,5.078,0,0,1,2.358,4.251,4.56,4.56,0,0,1-2.36,3.748,15.173,15.173,0,0,1-13.042,1.6,4.176,4.176,0,0,1-3.158-2.977,20.716,20.716,0,0,1,3.406-1.874c2.789-1.321,5.67-2.689,6.935-6.381A9.676,9.676,0,0,1,2584.726,420.84ZM2483.95,445.7q3.625-.266,7.285-.562c5.911-.468,12.019-.953,18.062-1.222a63.853,63.853,0,0,0,17.9-3.534c5.944-2.024,12.069-3.855,17.992-5.628q3.7-1.106,7.4-2.227c2.884-.883,5.772-1.757,8.687-2.638l3.738-1.132a1.033,1.033,0,0,1,.206.157,9.243,9.243,0,0,0,7.117,5.216,11.092,11.092,0,0,0-1.043.524,71.625,71.625,0,0,0-7.656,5.256c-10.046,7.576-19.63,12.749-29.3,15.816-6.67,2.118-13.276,3.979-19.635,5.534a24.631,24.631,0,0,1-5.039.5c-1.166.035-2.374.073-3.551.218a99.194,99.194,0,0,0-10.8,1.757c-4.962,1.187-9.147-.951-10.914-5.579A18.978,18.978,0,0,1,2483.95,445.7Zm11.977,22.041c3.416-.4,6.872-.929,10.213-1.44,1.583-.242,3.167-.484,4.751-.714.654-.095,1.305-.206,1.959-.317a32.827,32.827,0,0,1,4.634-.565,69.722,69.722,0,0,0,39.478-13.3c3.4-2.4,7.1-4.521,10.67-6.577,1.459-.839,2.917-1.679,4.363-2.538a5.947,5.947,0,0,1,1.276-.5l.031-.01a18.02,18.02,0,0,0-4.858,9.073,10.888,10.888,0,0,0-.266,2.831c.2,2.374,1.744,3.824,3.974,3.683a19.732,19.732,0,0,0,6.116-1.247,47,47,0,0,0,8.521-4.306c2.814-1.864,3.493-4.388,2.072-7.712a10.7,10.7,0,0,0-9.988-7.017l-.518-.707a9.075,9.075,0,0,0-1.793-1.931,19.288,19.288,0,0,0,8.88-2.117c3.412-1.777,5.071-4.392,4.927-7.769a8.017,8.017,0,0,0-5.509-7.4,27.562,27.562,0,0,0-4.723-1.2c-.335-.066-.673-.131-1.01-.2,4.112-2.2,6.112-5.875,6.11-11.2a47.217,47.217,0,0,0-2.617-14.134c-.187-.6-.378-1.2-.57-1.8-.549-1.711-1.11-3.464-1.573-5.275l.019.028a44.986,44.986,0,0,0,9.437,10.1,30.274,30.274,0,0,0,13.637,6.047l.663.135a67.223,67.223,0,0,1,11.662,3.113c8.434,3.4,12.2,11.32,9.6,20.183-.777,2.652-1.706,5.314-2.6,7.889-.406,1.17-.815,2.336-1.211,3.509a13.656,13.656,0,0,0-.518,7.876l-1.412,1.8q-1.061-.864-2.095-1.716c-1.86-1.524-3.613-2.964-5.441-4.382l-.19-.147c-2.27-1.76-4.616-3.578-7.074-5.154-3.585-2.3-7.028-2.331-9.962-.109-3.379,2.557-4.721,5.832-3.99,9.731a32.628,32.628,0,0,0,5.26,11.869,296.143,296.143,0,0,0,25.407,32.452c.187.212.369.429.543.639-.464.011-.929.025-1.393.041a29.9,29.9,0,0,1-5.371-.144,10.387,10.387,0,0,1-5.022-2.193,55.827,55.827,0,0,1-7.114-7.376c-5.578-6.91-11.656-11.621-18.578-14.406a46.332,46.332,0,0,0-5.883-1.985c-3.784-.97-6.823-.063-9.022,2.7l-1.912-1.334-.161.008c-2.081.1-3.108,1.486-4.015,2.709l-.146.2c-.772,1.038-1.53,2.086-2.286,3.134-1.406,1.943-2.858,3.953-4.379,5.848a50.222,50.222,0,0,1-15.595,12.727c-4.319,2.314-8.964,2.893-14.148,3.365-9.99.913-19.365-1.8-28.645-8.288-3.054-2.137-6.242-4.961-6.7-9.7C2491.547,469.457,2492.691,468.12,2495.927,467.741Zm75.3-174.86a89.2,89.2,0,0,0-13.872-21.808c.644.657,1.277,1.326,1.885,2.007a95.833,95.833,0,0,1,11.69,16.951,17.633,17.633,0,0,0,1.405,2.018c.225.29.449.582.666.882l.211.288.335-.12a3.283,3.283,0,0,0,1.927-1.44c.163,1.777.337,3.567.53,5.338a14.174,14.174,0,0,0,1.412,4.232l.076.168c-.21,10.825,1.072,21.716,2.311,32.25.374,3.171.749,6.345,1.083,9.519.5,4.783.818,9.67,1.124,14.4.207,3.24.423,6.587.7,9.877.3,3.6.8,7.334,3.073,10.537l-5.7-2.789c-.085-.7-.187-1.418-.29-2.146a47.51,47.51,0,0,1-.57-5.61c-.173-7.775-.161-15.6-.132-21.542a117.144,117.144,0,0,0-3.67-29.784c-.749-2.9-1.54-5.8-2.349-8.753q-.534-1.954-1.078-3.95C2573.947,299.864,2572.785,296.258,2571.228,292.882Zm25.032-60.6a23.41,23.41,0,0,1,2.459.424c.309.063.616.128.924.188l.138.286-.306.2c-.475.309-.951.617-1.413.945-5.859,4.164-10.168,9.828-13.952,15.332-1.9,2.762-4.04,5.439-6.109,8.03-.853,1.07-1.706,2.138-2.547,3.216a2.448,2.448,0,0,1-.492.4c-.1-.6-.2-1.179-.3-1.754-.305-1.763-.595-3.428-.785-5.1l-.074-.654c-.375-3.323-.764-6.762-.851-10.14a7.2,7.2,0,0,1,4.681-7.266c5.042-2.157,10.418-4.224,16.275-4.224C2594.682,232.171,2595.469,232.207,2596.26,232.283ZM2573.2,271.345c.385,2.374.783,4.827,1.048,7.25.217,1.989.411,4.006.594,6q-.84-4.938-1.7-9.874L2572,268.1c-.062-.353-.1-.711-.133-1.1l-.024-.222a.639.639,0,0,1,.456,0c.136.078.242.342.3.745C2572.787,268.8,2572.991,270.074,2573.2,271.345Zm52.279,174.579c1.462.233,2.217-.274,3.536-1.888.176-.215.346-.435.517-.655l.352-.449c1.885-2.364,3.534-2.977,6.067-2.266a5.758,5.758,0,0,1,4.455,5.192,9.567,9.567,0,0,1-2.893,8.021c-1.139,1.2-1.864,1.217-3.227.047a15.515,15.515,0,0,1-1.689-1.761l-.423-.5C2630.269,449.4,2628.315,447.073,2625.477,445.924Zm.39-44.01.6,1.834c1.347,4.094,2.739,8.328,3.819,12.558,1.809,7.092-.78,16.334-6.046,21.952a7.958,7.958,0,0,1,.494-2.249l.106-.328c.51-1.6,1.06-3.2,1.611-4.789s1.092-3.167,1.6-4.762c1.3-4.086,2.472-8.448,1.22-12.911-2.021-7.2-6.892-12.1-14.478-14.576a70.237,70.237,0,0,0-10.163-2.271c-11.209-1.893-17.842-9.693-22.37-16.381l0-.006c.5.272,1,.554,1.5.836a39.26,39.26,0,0,0,4.29,2.2l1.4.582a41.927,41.927,0,0,0,8.413,2.847,46.373,46.373,0,0,1,15.134,5.93l.152.089c2.5,1.454,5.082,2.956,7.746,4.2A8.717,8.717,0,0,1,2625.867,401.914Zm-30.718,36a6.2,6.2,0,0,1,5.291,1.719,9.2,9.2,0,0,1,3.375,7.456c-1.889.783-3.368-.313-4.93-1.47l-.275-.2A7.859,7.859,0,0,1,2595.149,437.916Zm-20.512,33.8c6.038-.932,10.513,1.435,11.853,6.311-1.946,1.883-3.76,1.943-5.694.209a60.909,60.909,0,0,1-4.541-4.726C2575.732,472.921,2575.2,472.323,2574.637,471.712Zm83.991-35.89c-5.59,3.583-9.112,9.222-12.243,14.7-.63,1.1-1.247,2.22-1.861,3.334-1.168,2.114-2.376,4.3-3.673,6.373-1.275,2.038-2.671,2.505-4.664,1.565-5.31-2.5-9.622-6.656-13.17-12.691,1.041-.548,1.774.055,2.523.674a31.5,31.5,0,0,1,2.836,2.795c.418.448.834.894,1.262,1.329.277.283.549.574.821.866a20.1,20.1,0,0,0,2.2,2.125,5.167,5.167,0,0,0,7.008-.362,12.935,12.935,0,0,0,3.64-12.779,8.465,8.465,0,0,0-7.02-6.436c-3.744-.745-6.667.3-8.682,3.092a11.94,11.94,0,0,1-1.467,1.578q-.223.211-.442.423l0,0,.408-.6c.47-.695.94-1.39,1.436-2.065a32.821,32.821,0,0,0,5.534-10.79,27.939,27.939,0,0,0,.453-13.8c-1.326-5.829-2.906-11.975-6.291-17.431a8.118,8.118,0,0,0-2.664-2.675c-2.962-1.733-6.015-3.418-8.968-5.048q-1.99-1.1-3.972-2.2a41.027,41.027,0,0,0-4.1-2.005,37.481,37.481,0,0,1,7.571,3.755c3.22,2.116,7.11,3.105,12.224,3.105.108,0,.217,0,.329,0a25.974,25.974,0,0,1,12.45,2.915,27.128,27.128,0,0,1,3.922,2.535c3.312,2.589,6.6,5.215,9.738,7.726l3.33,2.657C2658.75,415.868,2660.4,425.607,2658.628,435.822Zm-59.187-52.439a35.369,35.369,0,0,1-5.3-1.261l1.389.324c1.33.31,2.667.62,4,.953ZM2623.656,483.8c-8.435-9.717-17.307-20.344-25.045-32.2-.568-.872-1.073-1.806-1.559-2.708-.03-.054-.059-.108-.087-.16q.549.2,1.081.4a19.855,19.855,0,0,0,4.681,1.348,4.243,4.243,0,0,0,3.754-1.179,4.622,4.622,0,0,0,.812-4.192,15.792,15.792,0,0,0-7.933-10.472c-.16-.092-.321-.179-.513-.28a4.082,4.082,0,0,1,3.39.611c2.465,1.606,5.066,3.448,7.948,5.632,1.056.8,2.089,1.679,3.088,2.529.888.758,1.806,1.541,2.747,2.274a24.477,24.477,0,0,0,2.48,1.619c.344.206.7.418,1.061.642.136,4.556,3.269,7.634,6.3,10.614l.22.217a39.944,39.944,0,0,0,6.861,5.422c2.363,1.473,4.428,1.97,6.319,1.524s3.526-1.834,4.985-4.229c1.3-2.133,2.543-4.349,3.744-6.49,1.356-2.421,2.761-4.923,4.252-7.31a29.91,29.91,0,0,1,6.726-7.794l0,.978c0,1.149-.006,2.146,0,3.141.087,7.481-.921,13.52-3.171,19.007a34.516,34.516,0,0,0-1.906,7.693c-.62,3.868-.416,4.764.806,8.554-3.194,7.231-10.63,12.724-17.158,12.724-.068,0-.134,0-.2,0-1.573-1.9-3.835-2.263-6.053-2.372a5.228,5.228,0,0,1-2.749-1.078A35.151,35.151,0,0,1,2623.656,483.8Zm33.38-10.263a19.488,19.488,0,0,1,.369-3.751c.557-2.35,1.25-4.715,1.921-7,.391-1.331.78-2.662,1.149-4,.187-.679.361-1.359.535-2.064a55.823,55.823,0,0,1-4.018,17.978Q2657.017,474.115,2657.036,473.532ZM2538.2,427.083a18.123,18.123,0,0,1,6.549-2.121l.309-.059Zm66.619-211.658c-2.426,1.958-4.716,3.808-6.984,5.761-.812.7-1.594,1.434-2.38,2.173-2.249,2.119-4.572,4.306-7.726,5.636l-4.129-9.351a10.941,10.941,0,0,1,7.82-7.4,23.275,23.275,0,0,1,15.984,1.084Q2606.1,214.393,2604.821,215.426ZM2488.793,419.383a159.934,159.934,0,0,1-6.49,18.234c.589-5.947,3.172-11.32,5.679-16.538Q2488.387,420.239,2488.793,419.383Zm.988-10.046a1.865,1.865,0,0,1-.563.644c-2.317,1-4.649,2.062-6.9,3.094-7.15,3.266-14.544,6.645-22.433,8.3-.206.043-.411.076-.62.106,3.811-1.478,7.557-3.23,11.187-4.928,6.2-2.9,12.6-5.9,19.4-7.547l.076.12Zm67.8,104.8c2.692-.321,5.036-.608,7.047,1.143-.867,2.046-1.586,2.4-3.081,2.333-2.159-.095-3.448-1.3-4.779-3.379Zm-1.527,4.634c.867.562,1.617,1.048,2.412,1.5,2.339,1.32,4.808,1.119,7.329-.6a4.764,4.764,0,0,0,2.2-4.773,4.021,4.021,0,0,0-3.218-3.5,38.087,38.087,0,0,0-5.57-.72,15.812,15.812,0,0,0-2.374.062c-.185.014-.374.029-.566.041.5-2.214,2.04-3.33,3.67-4.506.324-.234.649-.468.961-.709,3.3,1.75,13.765,13.705,15.933,18.177-.223.081-.445.168-.668.255a7.709,7.709,0,0,1-2.317.649,64.963,64.963,0,0,1-9.405,0c-3.436-.326-6.259-2.212-8.393-5.609a2.328,2.328,0,0,1-.185-.385Zm26.372-224.69a38.325,38.325,0,0,1,4.323-12.581,10.493,10.493,0,0,1,6.144-4.884,72.209,72.209,0,0,1,9.055-1.956c-4.551,5.788-10.016,10.754-15.312,15.565C2585.232,291.5,2583.823,292.784,2582.427,294.081Zm-13.813-35c-2.091-3.137-4.4-6.158-6.641-9.089-4.235-5.537-8.613-11.258-11.493-17.779l.15-.127q1.066.89,2.138,1.777c1.864,1.545,3.793,3.143,5.637,4.767,1.287,1.133,2.546,2.35,3.765,3.526.777.749,1.552,1.5,2.342,2.233a12.88,12.88,0,0,1,4.2,9.627C2568.735,255.533,2568.734,257.272,2568.614,259.084Zm-54.045,43.149a17.194,17.194,0,0,1,3.092-6.237,9.367,9.367,0,0,1,.214,6.8,4.461,4.461,0,0,1-2.268,2.6C2514.428,304.789,2514.331,303.729,2514.568,302.233Zm16.94-44.6a50.973,50.973,0,0,0-3.668,4.233c-1.513,2.037-3.4,4.572-2.3,7.766l.059.173.16.089c2.4,1.331,4.082,1.168,6.2-.6.732-.612,1.419-1.29,2.086-1.943.524-.517,1.049-1.033,1.6-1.522.67-.594,1.383-1.155,2.211-1.8.168-.13.337-.263.513-.4a17.023,17.023,0,0,1-4.787,11.039c-2.5,2.569-5.218,5.028-7.842,7.4-1.2,1.09-2.406,2.181-3.593,3.285-.777.72-1.544,1.45-2.388,2.254l-.842.8c-1.019-2.141-2.171-4.213-3.289-6.223-2.355-4.237-4.578-8.237-5.712-12.866a13.161,13.161,0,0,1,1.811-11.042,13.306,13.306,0,0,1,10.063-5.175c.467-.035.924-.052,1.377-.052a16.347,16.347,0,0,1,9.638,3.19C2532.376,256.707,2531.942,257.171,2531.509,257.635Zm6.765,2.04a23.143,23.143,0,0,0-5.173,4,28.116,28.116,0,0,1-4.2,3.458c1.488-3.838,4.417-7.169,7.6-8.573Zm11.457,41.2a15.817,15.817,0,0,1,9.206-3.277,13.5,13.5,0,0,1,2.817.3,7.865,7.865,0,0,1,5.909,4.726c-4.39,2.148-8.954,2.352-13.776,2.569a58.809,58.809,0,0,0-8.657.821A12.519,12.519,0,0,1,2549.73,300.877Zm20.83,73.834-13.659,7.913q.339-.432.679-.862c1.646-2.1,3.347-4.262,5.069-6.349a5.613,5.613,0,0,1,3.974-2.355c.068,0,.135-.006.2-.006A5.685,5.685,0,0,1,2570.56,374.711Zm-356.277,81.361c-.375.062-.747.125-1.119.188-1.57.269-3.053.521-4.561.685a117.753,117.753,0,0,1-21.447-.027,357.64,357.64,0,0,1-41.31-5.308c-2.336-.451-4.7-1.06-6.981-1.647l-1.144-.294a36.715,36.715,0,0,1,3.952-.115l2.747.109c8.152.328,16.582.666,24.851,1.249,9.924.7,20,1.627,29.753,2.521l3.55.326c3.165.29,6.3.8,9.508,1.336A3.271,3.271,0,0,1,2214.283,456.072Zm-43.417-49.328c.049,0,.1,0,.143,0,.476,0,.674.135.962.6a9.2,9.2,0,0,0,6.606,4.42c4.686.712,7.258-2.428,8.793-4.852a22.606,22.606,0,0,0,2-4.039c0,.18,0,.361,0,.541.119,6.191,2.748,9.652,8.793,11.573,1.511.48,3.07.85,4.578,1.209s3.037.722,4.506,1.189a33.157,33.157,0,0,1,6.473,2.763c3.646,2.087,5.476,5.473,5.6,10.233-.028.074-.155.225-.117.233l-.861.131a39.356,39.356,0,0,1-5.161.571c-8.546.174-17.932.307-29.541.421a16.177,16.177,0,0,1-3.528-.48c-1.241-.294-1.469-.619-1.288-1.833.169-1.157.421-2.334.665-3.474.19-.894.381-1.79.54-2.69a27.228,27.228,0,0,0,.432-3.972,2.96,2.96,0,0,0-2.2-3.211,5,5,0,0,0-3.441.624,7.083,7.083,0,0,0-2.367,2.879,16.789,16.789,0,0,0-1.177,10.861c.723,3.38,2.781,5.932,6.286,7.8.373.2.753.392,1.133.586l.744.38a9.9,9.9,0,0,1-1.345-.085c-10.116-1.415-18.348-2.616-25.905-3.778-5.713-.878-11.509-1.867-17.114-2.826l-2.22-.378c-.488-.084-1.222-.209-1.325-.256a6.252,6.252,0,0,1,.182-1.42c.125-.668.268-1.333.412-2,.2-.918.393-1.836.544-2.76.866-5.279,3.977-9.113,9.515-11.717A74.818,74.818,0,0,1,2170.866,406.744Zm23.862-32.513c-.706,2.39-1.385,4.787-2.059,7.186a11.444,11.444,0,0,0-3.064-4.112,3.321,3.321,0,0,1-.464-1.461l-.062-.331c-.286-1.5-.831-2.443-2.562-2.443-.133,0-.274,0-.421.017-1.5.114-3,.264-4.5.413-1.84.184-3.681.367-5.526.487-1.287.082-2.625.033-3.918-.013-.594-.022-1.187-.044-1.779-.054a2.049,2.049,0,0,1-.29-.032c-1.274-.2-2.069-.571-2.293-1.067s.013-1.3.674-2.363a10.484,10.484,0,0,1,7.622-4.971,21.891,21.891,0,0,1,17.388,4.7A3.372,3.372,0,0,1,2194.729,374.231Zm-18.817,46.875a4.057,4.057,0,0,1,.769-1.024,7.928,7.928,0,0,1-.1,1.231c-.179,1.014-.386,2.026-.595,3.035-.329,1.6-.671,3.254-.886,4.912-.023.19-.041.377-.051.559A12.056,12.056,0,0,1,2175.912,421.106Zm3.222-35.7-.418,1.06c-.576,1.454-1.149,2.909-1.761,4.347-.214.508-.478.994-.741,1.48-.291.54-.581,1.079-.816,1.641a3.1,3.1,0,0,0-.128,2.546,3.194,3.194,0,0,0,2.079,1.6,14.235,14.235,0,0,1,1.4.486,6.883,6.883,0,0,1-.454,1.575c-.81,2.307-1.342,2.7-3.792,2.819-.472.022-.476-.01-.546-.4-.181-1.016-.347-2.037-.511-3.058-.391-2.4-.79-4.873-1.4-7.277a7.751,7.751,0,0,1,1.616-7.467,7.833,7.833,0,0,0,.695-1.019,7.419,7.419,0,0,1,.445-.688l.111-.147c.589-.785.932-1.163,1.453-1.163a1.545,1.545,0,0,1,.415.065,3.065,3.065,0,0,1,2.239,2.538,2.748,2.748,0,0,1,0,.3l0,.722Zm5.716,56.824a2.421,2.421,0,0,0,1.742-1.891,2.636,2.636,0,0,0-1.185-2.538,5.638,5.638,0,0,0-.983-.532l-.321-.149c-.6-.3-1.219-.574-1.833-.853-.88-.4-1.73-.78-2.534-1.211a6.723,6.723,0,0,0,1.477.2l5.336.065c5.958.078,12.123.157,18.181.084,3.518-.043,6.951-.264,10.584-.5,1.309-.084,2.627-.169,3.955-.245l-.027.285c-.081.9-.165,1.842-.269,2.779-.394,3.575-.992,4.233-4.26,4.688a94.552,94.552,0,0,1-12.332.965c-6.761.057-13.7-.1-20.925-.464A13.388,13.388,0,0,0,2184.85,442.229ZM2117.927,452.3c-5.7,9.94-12.105,17.673-19.58,23.639a2.741,2.741,0,0,1-2.339.625,188.876,188.876,0,0,1-34.027-8.176,103.894,103.894,0,0,1-31.628-17.1c-4.632-3.719-10.418-8.878-14.083-15.8a13.184,13.184,0,0,1-1.757-6.5v-.025a12.9,12.9,0,0,1,2.059-6.748,36.876,36.876,0,0,1,10.005-11.545,13.664,13.664,0,0,1,8.188-2.847,16.552,16.552,0,0,1,7.1,1.766,69.292,69.292,0,0,1,14.476,9.812q3.069,2.557,6.117,5.14c2.654,2.241,5.31,4.483,7.989,6.694a20.373,20.373,0,0,0,3.561,2.193,6.682,6.682,0,0,0,8.212-1.144c.625-.587,1.19-1.231,1.736-1.856a22.238,22.238,0,0,1,1.742-1.85,18.8,18.8,0,0,1,3.781-2.79,4.109,4.109,0,0,1,4.415.323c1.807,1.306,3.5,2.738,5.375,4.343a10.04,10.04,0,0,0,6.563,2.606c4.267.31,4.83.886,5.028,5.123l.014.35a27.568,27.568,0,0,0,.29,3.354,4.783,4.783,0,0,0,3.754,4.08c.744.177,1.494.321,2.244.465.53.1,1.06.2,1.589.317.842.182,1.051.356,1.1.443.04.066.1.307-.158,1.076A22.725,22.725,0,0,1,2117.927,452.3ZM1962.4,457.635a16.991,16.991,0,0,1,9.446-9.654,34.693,34.693,0,0,1,5.819-1.788c.85-.207,1.7-.416,2.54-.649a1.2,1.2,0,0,1,.219-.033c.461,9.833-10.98,53.02-16.327,62.308a23.494,23.494,0,0,1-.535-2.85q-.368-3.592-.744-7.183c-.855-8.195-1.739-16.668-2.364-25.014A35.085,35.085,0,0,1,1962.4,457.635Zm31.982-197.9a1.8,1.8,0,0,1,1.567,1.352c.469,1.746.867,3.551,1.252,5.3.106.473.209.948.316,1.42l-.193.044-.025.6c-.261,6.152-1.755,10.333-4.843,13.558a10.449,10.449,0,0,1-2.572,1.932,2.409,2.409,0,0,1-1.89.329,1.864,1.864,0,0,1-.961-1.28A20.67,20.67,0,0,1,1986,276.8a37.64,37.64,0,0,1,2.885-13.966c.593-1.5,3.344-3.134,5.115-3.134A2.476,2.476,0,0,1,1994.378,259.732Zm-11.6,11.19a26.894,26.894,0,0,0,.06,11.665,11.254,11.254,0,0,0,.725,2.034,5.393,5.393,0,0,0,7.326,2.983c2.978-1.143,5.309-3.39,7.123-6.868a25.43,25.43,0,0,0,1.733-20.265c-1.147-3.548-3.513-5.007-7.038-4.368,1.437-1.809,4.215-3.529,5.944-3.585a1.766,1.766,0,0,1,1.961,1.489,29.9,29.9,0,0,1,.621,5.039c.057,1.431.063,2.866.069,4.3.008,1.761.017,3.585.12,5.382a10.54,10.54,0,0,0,1.19,4.135,4.2,4.2,0,0,0,3.121,2.317,4.483,4.483,0,0,0,3.88-1.489c1.683-1.776,1.931-3.953,2.17-6.061l.059-.516c.122-1.027.217-2.056.312-3.084.079-.889.16-1.779.261-2.665a4.914,4.914,0,0,1,2.05-3.749c4.692-2.939,6.661-7.3,7.688-11.6a40.211,40.211,0,0,1-1.983,10.366l-.369,1.318c-.2.725-.411,1.448-.619,2.173a46.382,46.382,0,0,0-2.318,11.917c-.063,3.323.046,6.639.163,9.445a13.2,13.2,0,0,1-4.135,10.407c-1.662,1.651-3.274,3.395-4.833,5.082l-.187.2c-4.354,4.711-6.71,10.557-8.987,16.21l-.315.783a98.058,98.058,0,0,1-4.3,9.579,4.378,4.378,0,0,1-2.431,2.44c-.912.245-2.04-.066-3.461-.948-1.83-1.138-3.615-2.45-5.34-3.716l-1.313-.962c-2.44-1.776-5.153-3.355-8.56-3.355a11.412,11.412,0,0,0-1.613.116c-.1-.885-.215-1.755-.326-2.616-.305-2.417-.6-4.7-.739-7.008-.47-7.634-.845-15.4-1.2-22.921l-.163-3.36a1.106,1.106,0,0,1,.228-.693q7.207-7.2,14.476-14.327C1983.433,267.785,1983.066,269.338,1982.778,270.922Zm-26.442-23.155c-.074,5.319,1.646,10.263,3.154,13.976.44,1.086.9,2.162,1.361,3.24.893,2.092,1.817,4.256,2.561,6.425a42.906,42.906,0,0,1,1.459,6.311l.158.891a1.528,1.528,0,0,1-.41.992c-4.68,4.61-10.494,6.436-18.291,5.762-4.1-.358-8.269-.492-12.306-.622q-2.106-.067-4.215-.144c-.063,0-.127,0-.19,0a9.522,9.522,0,0,0-1.5.152c.187-6.478-.73-12.819-1.617-18.961-.38-2.624-.771-5.338-1.067-8.008-1.636-14.732-.878-27.944,2.315-40.391,1.809-7.047,4.141-12.358,7.345-16.715a35.057,35.057,0,0,1,18.189-12.961c11.725-3.653,23.916-2.33,36.235,3.934a176.118,176.118,0,0,1,16.665,10.1l1.815,1.192a96.786,96.786,0,0,0,25.608,11.464c3.148.943,5.783,1.763,8.4,2.692.91.323,1.022.508,1.036.541.019.049.046.279-.418,1.179a33.924,33.924,0,0,1-8.568,10.682c-3.255,2.694-6.9,3.143-11.16,1.372a57.746,57.746,0,0,1-10.522-6.267c-.679-.472-1.356-.945-2.039-1.412l-.8-.549c-4.893-3.35-9.954-6.816-15.6-9.165-10.252-4.262-20.516-1.747-27.463,6.718A43.46,43.46,0,0,0,1956.336,247.767ZM1921.4,300.192a22.414,22.414,0,0,0,5.767-10.486c.217-.91.556-1.1,1.141-1.152.465-.041.931-.092,1.4-.144a20.779,20.779,0,0,1,3.316-.2c4.072.182,8.405.459,13.246.847,7.894.633,13.522-.749,18.242-4.482.317-.248.636-.494.981-.757.117,2.4.214,4.8.31,7.188a232.1,232.1,0,0,0,2.1,26.537c-.445.066-.85.13-1.257.158-8.084.557-15.756-1.6-21.55-3.55-6.783-2.274-13.078-6.076-18.633-9.431a46.567,46.567,0,0,0-6.5-3.273A9.652,9.652,0,0,0,1921.4,300.192Zm55.433,111.6-15.665-14.333C1968.524,400.482,1973.683,405.2,1976.835,411.791Z" transform="translate(-69.719 -164.509)"/>
</svg>
