<svg id="Camada_1" data-name="Camada 1" xmlns="http://www.w3.org/2000/svg" viewBox="0 0 150.26 227.27"><defs><style>.cls-1{fill:#127e7b;}</style></defs><path class="cls-1" d="M130.31,180.56a4.74,4.74,0,0,1,1.3-1.77l-.27-.28q.33-.9.66-1.74a35.75,35.75,0,0,0,1.33-3.84,61.39,61.39,0,0,0,1.81-17.1c0-1.38-.21-3.34-1.33-4.55,0-.91,0-1.79,0-2.65,0-2,.06-3.86-.07-5.73s-.41-3.76-.71-5.73c-.11-.67-.21-1.35-.31-2s-.45-1.48-.66-2.22c-1.09-1.95-5.4-4.69-7.13-6.08-2.23-1.79-4.76-3.81-7.92-4.44a44.48,44.48,0,0,0-6.52-.77,11.55,11.55,0,0,1-5.43-1.45l-.82-.48a17.8,17.8,0,0,0-3.45-1.76c-3.25-1.08-6.6-2-9.85-2.91l-.5-.14c-3.38-.94-4.52-2.21-4.87-5.46-.21-2-.36-3.94-.51-5.86-.11-1.55-.23-3.15-.38-4.72-.28-2.85-.58-5.71-.87-8.56-.45-4.3-.91-8.73-1.29-13.11l-.08-.84a43.64,43.64,0,0,1-.07-10.83l3.37-3.39c4.39-4.41,8.53-8.57,12.8-12.8a5,5,0,0,1,1.54-.91l.32-.14c.47-.22,1-.42,1.44-.62a23.13,23.13,0,0,0,2.28-1,3.23,3.23,0,0,0,1-1l.33-.42.14-.16-.12-.19a2,2,0,0,0-2.71-1c-.66.31-1.3.68-1.92,1s-1,.56-1.48.82l-.22.12a10,10,0,0,1-2.24.93c-1.16.25-2.35.45-3.51.64-.8.13-1.61.26-2.41.42a10.21,10.21,0,0,0-8.13,6.77c-.6,1.62-1.13,3.23-1.63,4.79-.08.24-.15.47-.23.7l-2.1-16.53c.56-.68,1.12-1.34,1.67-2a50.19,50.19,0,0,0,3.51-4.41C87,32.84,90.37,28,95.19,24.53a.7.7,0,0,0,.15-.13A2,2,0,0,0,96,21.74l0-.08a5.43,5.43,0,0,0-3.75-1.3c-.47,0-1-.08-1.41-.16,5.18-5.14,7.81-7.2,10.54-8.28a4,4,0,0,1,.34.23,6,6,0,0,0,1.21.69,5.15,5.15,0,0,0,2.16.44A2.42,2.42,0,0,0,107.3,11,2.09,2.09,0,0,0,105,9.14a21.16,21.16,0,0,0-2.49.12c-.37,0-.75.07-1.14.09A16.31,16.31,0,0,0,94,7.12c-4.93-.4-8.55,1-11.09,4.42a4.54,4.54,0,0,0-.39,5.27,32.56,32.56,0,0,1,1.37,3.1l.49,1.21-1.2.43c-1.07.38-2.09.74-3.1,1.14-3.36,1.3-5,3.51-5.1,6.73a5.28,5.28,0,0,1-.1.86l-.93-1c-1-1-1.88-1.95-2.88-2.85-1.9-1.71-4-3.5-6.61-5.62a2.56,2.56,0,0,0-3.51-.13l-.14.1,0,.18q0,.34.06.72a7.76,7.76,0,0,0,.31,1.92,14.08,14.08,0,0,0,1.64,3.21c2.82,4.09,5.46,7.82,8.08,11.43a20.68,20.68,0,0,1,3.79,8.34c.32,1.71.6,3.46.86,5.15l.26,1.65c.08.5.14,1,.21,1.5-.15-.18-.28-.37-.42-.56s-.21-.29-.31-.43L73.41,51.5c-1.59-2.13-3.24-4.32-5-6.36a16.92,16.92,0,0,0-7.9-5.48l-.89-.25c-1.42-.39-2.77-.75-3.62-2.08a.89.89,0,0,0-.4-.31l-1.31-.68c-1.06-.54-2.15-1.11-3.25-1.63a11.88,11.88,0,0,0-11.31.3,9.29,9.29,0,0,0-4.84,10.13,30.07,30.07,0,0,0,3.58,8.92c.75,1.39,1.49,2.78,2.18,4.08l.73,1.37c-.3.56-.6,1.09-.88,1.6-.69,1.22-1.34,2.38-1.91,3.56a5.21,5.21,0,0,0-.43,3.83,2.73,2.73,0,0,0,2.29,2.16,2.67,2.67,0,0,0,3-1.17,6.2,6.2,0,0,0,1-2.74c0-1.6-.07-3.22-.17-4.79,0-.62-.07-1.23-.1-1.84a3.42,3.42,0,0,1,1-1.39L48,56.13c1.43-1.29,2.91-2.62,4.34-4a14.4,14.4,0,0,0,5-9.92,2.73,2.73,0,0,1,.16-.69v0c7.24,4.19,16.62,16.71,17.35,23a.94.94,0,0,1-.1-.1,7.25,7.25,0,0,0-5.95-2.81A11.3,11.3,0,0,0,59.05,66a57.46,57.46,0,0,0-4.27,6.7c-.36.62-.71,1.24-1.07,1.85a2.13,2.13,0,0,0-.12,1.33,5.29,5.29,0,0,1,0,.54v.18l.72.4.15-.12.44-.3a4,4,0,0,0,1-.84,7.47,7.47,0,0,0,1.14-2.09,3.39,3.39,0,0,1,2.22-2.23,18.11,18.11,0,0,1,3.54-.77c.72-.07,1.48-.08,2.2-.09a22.3,22.3,0,0,0,2.58-.14c1.7-.23,3.37-.55,5.13-.88l2-.38c.2.74.39,1.49.59,2.24.5,1.92,1,3.91,1.57,5.88,1.68,6,1.91,12.15,2,18.5,0,1.67,0,3.37,0,5a76.74,76.74,0,0,0,.37,10.9,1.73,1.73,0,0,1,0,.52v.07l-.2-.12-1-.6c-.29-.19-.58-.4-.86-.6a11.55,11.55,0,0,0-1.83-1.16,4.72,4.72,0,0,0-6.09,1.25,15.9,15.9,0,0,0-1.68,2.12A16.25,16.25,0,0,1,59,119.83l-.08,0c-.62.21-1.55.53-1.43,1.68v.13l.1.08a3.32,3.32,0,0,0,3,.88,13.36,13.36,0,0,0,5.38-2c1-.63,2.09-1.28,3.14-1.93,1.39-.86,2.82-1.75,4.26-2.6a10.11,10.11,0,0,1,4.42-1.65,24.21,24.21,0,0,1,2.13,4.72,46.58,46.58,0,0,1,2.88,11.21c.31,3.45-.83,5.37-4,6.63a23.68,23.68,0,0,1-3.17,1c-3.78,1-7.57,1.89-11.36,2.82l-.48.11c-1,.26-2.08.5-3.15.75l-1,.22c1.57-4.15,1-6.45-2.36-9.57-.79-.75-1.66-1.42-2.5-2.08l-1.35-1.07c-2-1.63-2.09-2.36-.7-4.57.12-.19.25-.38.37-.58a13,13,0,0,0,1.18-2,3.57,3.57,0,0,0,.06-2.91,3.75,3.75,0,0,0-2.4-1.94,3.36,3.36,0,0,0-1.3-.23c-.45,0-.91.08-1.36.12a18.37,18.37,0,0,0-3.91.58,37.76,37.76,0,0,0-11.24,6.1,34.7,34.7,0,0,0-8.19,8.61c-3.64,6.64-4.13,7.92-4.6,9.08-1.12,2.72-2.27,5.54-3.29,8.35a7,7,0,0,0,.36,6.07,2.93,2.93,0,0,1,.19,1.36c0,.67-.06,1.34-.1,2a28,28,0,0,0-.07,3.67,8.78,8.78,0,0,0,3.91,7.11,11.62,11.62,0,0,0,1.52.8l.46.22c-1.27,3.25-.61,6.24,2,8.89a25.31,25.31,0,0,0,3.59,2.86l.76.54a23.51,23.51,0,0,0,2.11,1.27l.53.3c2.8,2.18,4,3.3,4.51,3.77.89.73,1.75,1.53,2.58,2.3A45,45,0,0,0,44,194.06c6.43,4.81,13.19,5.84,20.1,3.07a4,4,0,0,1,.53-.14l-.12.7a6.69,6.69,0,0,1-.54,2,4,4,0,0,0-.16,3.47,8.83,8.83,0,0,0,3.85,4.73,13.25,13.25,0,0,0,6.65,1.71,19.66,19.66,0,0,0,5.26-.78,2.8,2.8,0,0,0,2-1.52,2.88,2.88,0,0,0-.58-2.58,34.23,34.23,0,0,0-2.38-3.06l-.26-.31c-1.53-1.83-3.07-3.64-4.67-5.53l-1.71-2,1.76-.18.4.59c.34.5.65,1,.94,1.42.46.72.91,1.45,1.35,2.18.93,1.51,1.89,3.08,3,4.54,2.48,3.34,5.12,5.13,8.33,5.64a9.86,9.86,0,0,0,7.37-1.25,4.79,4.79,0,0,0,.71-7.85,22.8,22.8,0,0,0-1.94-1.62l-1-.76-1.69-1.36c-1.25-1-2.55-2-3.74-3.13a73.91,73.91,0,0,1-8.19-9.52l-.07-.09a13.25,13.25,0,0,1,1.45,1.21c1.45,1.41,2.89,2.84,4.32,4.26,2,2,4.17,4.13,6.3,6.15a58.78,58.78,0,0,0,6.89,5.86,8.76,8.76,0,0,0,10.45.05,34.25,34.25,0,0,0,4.73-4,19.58,19.58,0,0,0,4.47-7.22c5.82-.44,9.36-4.21,12.28-8.3Zm-44.54-127a6.68,6.68,0,0,1,3.89-3.09,46.45,46.45,0,0,1,5.72-1.23A83.3,83.3,0,0,1,85.7,59c-.89.81-1.78,1.62-2.66,2.44A24.31,24.31,0,0,1,85.77,53.53ZM74.31,39.37c-1.32-2-2.78-3.89-4.19-5.75-2.68-3.5-5.44-7.11-7.26-11.23l.09-.08,1.35,1.12c1.18,1,2.4,2,3.56,3,.82.72,1.61,1.49,2.38,2.23.49.48,1,.95,1.48,1.41a8.14,8.14,0,0,1,2.66,6.09C74.39,37.12,74.39,38.22,74.31,39.37ZM54,39l1.12.71a14.71,14.71,0,0,0-3.27,2.53,17.29,17.29,0,0,1-2.65,2.18A10,10,0,0,1,54,39ZM42.25,67a2.81,2.81,0,0,1-1.43,1.64c-.75-.38-.81-1-.66-2a10.94,10.94,0,0,1,2-3.94A5.93,5.93,0,0,1,42.25,67Zm9.93-17.78c-1.59,1.62-3.3,3.18-5,4.68-.76.69-1.52,1.38-2.27,2.08-.49.45-1,.91-1.51,1.42l-.53.5c-.64-1.35-1.37-2.66-2.08-3.93a32.91,32.91,0,0,1-3.61-8.13,8.33,8.33,0,0,1,1.15-7,8.44,8.44,0,0,1,6.36-3.27l.87,0a10.31,10.31,0,0,1,6.09,2l-.82.88a33.28,33.28,0,0,0-2.32,2.68c-1,1.28-2.15,2.88-1.45,4.9l0,.11.1.06a3,3,0,0,0,3.91-.38c.46-.39.9-.82,1.32-1.23s.66-.65,1-1,.87-.73,1.4-1.14l.32-.25A10.77,10.77,0,0,1,52.18,49.21ZM65,68.5a38,38,0,0,0-5.47.52,8,8,0,0,1,2.84-3.25A10,10,0,0,1,68.2,63.7a9.05,9.05,0,0,1,1.78.19,5,5,0,0,1,3.73,3C70.94,68.24,68.06,68.37,65,68.5Zm1.9,48.93c.15-.18.29-.37.43-.55,1-1.32,2.12-2.69,3.21-4a3.57,3.57,0,0,1,2.51-1.49h.12a3.56,3.56,0,0,1,2.36,1.05Zm65.45,48.12c.12-.43.23-.86.34-1.3a35.51,35.51,0,0,1-2.54,11.36l0-.74a11.69,11.69,0,0,1,.23-2.37c.35-1.48.79-3,1.21-4.42C131.88,167.24,132.13,166.39,132.36,165.55ZM103.68,121.8a13.54,13.54,0,0,0,7.73,2h.21a16.48,16.48,0,0,1,7.86,1.84,17.58,17.58,0,0,1,2.48,1.6c2.09,1.64,4.17,3.3,6.15,4.89l2.11,1.68c1.05,4.66,2.09,10.82,1,17.27-3.53,2.27-5.76,5.83-7.73,9.29-.4.7-.79,1.4-1.18,2.11-.74,1.33-1.5,2.71-2.32,4s-1.69,1.59-2.95,1a19.08,19.08,0,0,1-8.32-8c.66-.34,1.12,0,1.59.43a20,20,0,0,1,1.8,1.77l.79.84.52.54a11.83,11.83,0,0,0,1.39,1.35,3.28,3.28,0,0,0,4.43-.23,8.19,8.19,0,0,0,2.3-8.08,5.34,5.34,0,0,0-4.44-4.06,5,5,0,0,0-5.48,1.95,7.88,7.88,0,0,1-.93,1l-.28.26h0l.26-.38c.3-.44.59-.88.91-1.3A21,21,0,0,0,115,146.7a17.61,17.61,0,0,0,.29-8.72c-.84-3.68-1.84-7.57-4-11a4.94,4.94,0,0,0-1.68-1.69c-1.87-1.1-3.8-2.16-5.67-3.19l-2.51-1.4a25.7,25.7,0,0,0-2.59-1.26A22.88,22.88,0,0,1,103.68,121.8Zm6.57,35.63c.92.14,1.4-.18,2.23-1.2l.33-.41.22-.29c1.19-1.49,2.23-1.88,3.83-1.43a3.65,3.65,0,0,1,2.82,3.28,6.06,6.06,0,0,1-1.83,5.07c-.72.76-1.18.77-2,0a10,10,0,0,1-1.07-1.11l-.26-.32A11.44,11.44,0,0,0,110.25,157.43ZM91.32,117.32l2.53.6h-.06a22.67,22.67,0,0,1-3.35-.8Zm-4.72.36.88.37a26.65,26.65,0,0,0,5.32,1.79,29.49,29.49,0,0,1,9.56,3.75l.1.06c1.58.92,3.21,1.87,4.89,2.66a5.48,5.48,0,0,1,3.14,3.31l.38,1.16c.85,2.58,1.73,5.26,2.41,7.93,1.15,4.48-.49,10.32-3.82,13.87a5.15,5.15,0,0,1,.32-1.42l.06-.21c.33-1,.67-2,1-3s.69-2,1-3c.83-2.58,1.56-5.34.77-8.16-1.27-4.55-4.35-7.65-9.14-9.21a44.8,44.8,0,0,0-6.43-1.43C90,124.92,85.8,120,82.94,115.77h0l1,.53A25.59,25.59,0,0,0,86.6,117.68ZM83.79,14.44a6.9,6.9,0,0,1,4.94-4.67,14.7,14.7,0,0,1,10.1.69l-1.64,1.32c-1.53,1.24-3,2.41-4.41,3.64-.51.44-1,.9-1.5,1.37a16.62,16.62,0,0,1-4.89,3.56ZM80,25c3.19-1.36,6.59-2.67,10.29-2.67a14.8,14.8,0,0,1,1.48.07,13.75,13.75,0,0,1,1.56.27l.58.12L94,23l-.2.13-.89.59c-3.7,2.63-6.42,6.21-8.81,9.69-1.21,1.75-2.56,3.44-3.86,5.07l-1.61,2a2,2,0,0,1-.31.25c-.07-.38-.13-.74-.19-1.11-.2-1.11-.38-2.16-.5-3.22l0-.41c-.23-2.1-.48-4.28-.53-6.41A4.54,4.54,0,0,1,80,25Zm-3.37,19.2c.09.05.15.22.19.47.12.81.25,1.61.38,2.41.24,1.5.5,3,.66,4.58.14,1.26.26,2.54.38,3.8l-1.08-6.24-.72-4.19c0-.22-.06-.45-.08-.69l0-.14A.46.46,0,0,1,76.64,44.23Zm4.74,67.14a31.67,31.67,0,0,1-.36-3.54c-.11-4.92-.1-9.86-.08-13.61A74,74,0,0,0,78.62,75.4c-.48-1.84-1-3.67-1.49-5.54-.22-.82-.45-1.65-.68-2.49,1.23-2.24.5-4.51-.48-6.65A56.42,56.42,0,0,0,67.2,46.94c.41.42.81.84,1.19,1.27a60.27,60.27,0,0,1,7.39,10.71,12.69,12.69,0,0,0,.89,1.28l.42.55.13.19.21-.08A2.08,2.08,0,0,0,78.65,60c.1,1.12.21,2.25.34,3.37A8.9,8.9,0,0,0,79.88,66l.05.1a148.14,148.14,0,0,0,1.46,20.38c.23,2,.47,4,.68,6,.32,3,.52,6.11.71,9.09.13,2,.27,4.16.44,6.24a12.93,12.93,0,0,0,1.94,6.66l-3.6-1.76C81.51,112.29,81.44,111.83,81.38,111.37Zm-5,33.21c1.76-.84,3.58-1.7,4.38-4a6.13,6.13,0,0,1,3.71,1A3.17,3.17,0,0,1,86,144.26a2.87,2.87,0,0,1-1.49,2.37,9.55,9.55,0,0,1-8.24,1,2.61,2.61,0,0,1-2-1.88A11.92,11.92,0,0,1,76.41,144.58Zm1.89,7.58-3,1.16a6.26,6.26,0,0,1,2.48-1.41h0a1.86,1.86,0,0,1,.49.22Zm-18.87-8-4.33,1.38a11.45,11.45,0,0,1,4.14-1.34ZM57,138.48a9.36,9.36,0,0,0,.43-2.29l0-.33a3.73,3.73,0,0,1,.52,4.4c-.74,1.37-1.53,2.51-3.27,2.46a2.14,2.14,0,0,1,.1-.22c.18-.41.34-.76.52-1.1s.4-.65.61-1A9.69,9.69,0,0,0,57,138.48Zm-1.86-3a2.9,2.9,0,0,1-.2,2.57,15.25,15.25,0,0,1-1.07,1.71c-.21.31-.43.63-.63.95a3.24,3.24,0,0,0-.42,3.63l-1,.33a8.67,8.67,0,0,1-3.95.78A1.87,1.87,0,0,0,49.33,144c.29-1.26-.53-2.12-1.25-2.89-.28-.31-.58-.6-.87-.9a23,23,0,0,1-1.65-1.78c-.68-.85-.65-1.44.08-2.1A8.17,8.17,0,0,1,53,134,2.84,2.84,0,0,1,55.1,135.43Zm-21.81-8.34a37,37,0,0,1,12.93-7.58,12.56,12.56,0,0,1,4.06-.59,2.2,2.2,0,0,1,1.95.81,2.34,2.34,0,0,1-.33,2.19c-.39.68-.79,1.36-1.19,2l-.41.69a3.67,3.67,0,0,0,.37,4.75,22,22,0,0,0,1.94,1.9l.52.47h0c-.41,0-.73,0-1.05,0a10.57,10.57,0,0,0-7.25,2.43,3.63,3.63,0,0,0-.61,6c.43.49.91.95,1.36,1.4s.68.66,1,1a2.79,2.79,0,0,1,.42.62l.06.11a4.46,4.46,0,0,1-1.4.23,3,3,0,0,0-2.72,1.24l-.09.15.28.57a8.16,8.16,0,0,0-.79-1L40.86,143c-2.44-2.56-5-5.2-7.52-7.73-1.29-1.27-2.78-1.56-5.43-1.56H27.6A26.27,26.27,0,0,1,33.29,127.09ZM27.72,136a5.15,5.15,0,0,1,5.11,1.66c1.55,1.65,3.15,3.29,4.7,4.88L40,145a3.28,3.28,0,0,1,.22.26c-.54-.2-1.07-.44-1.58-.67a8.28,8.28,0,0,0-4.3-1.07,4.53,4.53,0,0,0-1,.25l-.32.11-.11,0-.06.1a1.64,1.64,0,0,0,.48,2.48,11,11,0,0,0,8.6,2,5.92,5.92,0,0,1,1.82-.14c5.42.66,11-.16,17.65-2.57,2.9-1.06,6.34-2.3,9.81-3.52.63-.22,1.29-.39,1.93-.55l.49-.12-.14.14a9,9,0,0,0-.91,1,8.57,8.57,0,0,0-.63,1.13c-.08.17-.16.35-.26.54L63.36,147l-5.26,1.64c-4.14,1.29-8.41,2.62-12.61,4a31.2,31.2,0,0,1-9,1.43h-.27c-2.81.07-5.73.15-8.58.38a28,28,0,0,0-3.32.52c-.64.13-1.28.25-1.92.35a6.1,6.1,0,0,1-1.07,0h-.28Zm-4.36,5.78c.17-.36.35-.71.52-1.07a102.9,102.9,0,0,1-4.1,11.52C20.15,148.42,21.78,145,23.36,141.73ZM21.1,165.15a11.89,11.89,0,0,1-.28-7.86l4.6-.36c3.73-.3,7.6-.6,11.41-.77a40.82,40.82,0,0,0,11.31-2.23c3.76-1.28,7.63-2.44,11.37-3.56L64.19,149l5.49-1.66,2.36-.72.13.1a5.85,5.85,0,0,0,4.49,3.3,5.69,5.69,0,0,0-.65.33,43.69,43.69,0,0,0-4.84,3.32,62.13,62.13,0,0,1-18.52,10c-4.21,1.34-8.38,2.52-12.4,3.5a15.34,15.34,0,0,1-3.19.31c-.73,0-1.5,0-2.24.14A63.42,63.42,0,0,0,28,168.68,5.55,5.55,0,0,1,21.1,165.15ZM30,180.36c-1.93-1.35-3.95-3.14-4.24-6.13-.18-1.93.54-2.78,2.59-3s4.34-.58,6.45-.91l3-.45,1.24-.2a22.33,22.33,0,0,1,2.93-.36A44,44,0,0,0,67,160.89c2.15-1.52,4.49-2.86,6.74-4.16.92-.53,1.85-1.06,2.76-1.6a3.51,3.51,0,0,1,.81-.32h0a11.29,11.29,0,0,0-3.07,5.73,6.72,6.72,0,0,0-.17,1.79,2.3,2.3,0,0,0,2.51,2.33,12.59,12.59,0,0,0,3.86-.79,29.87,29.87,0,0,0,5.39-2.72c1.78-1.18,2.21-2.78,1.31-4.88a6.76,6.76,0,0,0-6.31-4.43l-.33-.45a6.19,6.19,0,0,0-1.13-1.22A12.22,12.22,0,0,0,85,148.84a5.14,5.14,0,0,0-.37-9.59,17.37,17.37,0,0,0-3-.76l-.64-.13c2.6-1.39,3.86-3.71,3.86-7.08a29.8,29.8,0,0,0-1.66-8.93c-.11-.37-.23-.75-.36-1.13-.34-1.08-.7-2.19-1-3.34v0a28.35,28.35,0,0,0,6,6.39,19.19,19.19,0,0,0,8.61,3.82l.42.08a42.8,42.8,0,0,1,7.37,2c5.33,2.15,7.71,7.15,6.07,12.75-.49,1.68-1.08,3.36-1.65,5-.25.74-.51,1.47-.76,2.22a8.58,8.58,0,0,0-.33,5l-.89,1.14-1.32-1.08c-1.18-1-2.29-1.87-3.44-2.77l-.12-.09c-1.44-1.12-2.92-2.26-4.47-3.26-2.27-1.45-4.44-1.47-6.3-.07a5.93,5.93,0,0,0-2.52,6.15,20.59,20.59,0,0,0,3.33,7.5,186.33,186.33,0,0,0,16,20.51c.12.13.23.27.34.4l-.88,0a19.13,19.13,0,0,1-3.39-.1,6.53,6.53,0,0,1-3.18-1.38,35.62,35.62,0,0,1-4.49-4.66A28.85,28.85,0,0,0,84.5,168.3a29.57,29.57,0,0,0-3.72-1.25,5.12,5.12,0,0,0-5.7,1.7l-1.2-.84h-.11a3.26,3.26,0,0,0-2.53,1.71l-.1.12-1.44,2c-.89,1.23-1.81,2.5-2.77,3.7a31.81,31.81,0,0,1-9.85,8c-2.73,1.46-5.67,1.83-8.94,2.12C41.83,186.17,35.9,184.46,30,180.36Zm49.32-24.62c.45-.52.93-1.06,1.35-1.61a4.42,4.42,0,0,1,4.56,3.39,2.17,2.17,0,0,1-.43,1.63,15.06,15.06,0,0,1-8.52,3.54C76,159.58,77.62,157.71,79.36,155.74Zm15.06-2.29a5.8,5.8,0,0,1,2.14,4.71c-1.2.5-2.13-.19-3.12-.93l-.17-.12a5,5,0,0,1-2.19-4.74A3.89,3.89,0,0,1,94.42,153.45ZM79.51,206.6l-.42.16a5.34,5.34,0,0,1-1.47.41,42,42,0,0,1-5.94,0,6.92,6.92,0,0,1-5.3-3.55.9.9,0,0,1-.12-.24l.12.08c.55.35,1,.66,1.52.94a4.11,4.11,0,0,0,4.63-.38,3,3,0,0,0,1.39-3,2.54,2.54,0,0,0-2-2.22,24.89,24.89,0,0,0-3.52-.45,9.49,9.49,0,0,0-1.5,0l-.36,0a4.84,4.84,0,0,1,2.32-2.84l.61-.45C71.53,196.22,78.14,203.77,79.51,206.6Zm-12.68-6,.51-.06c1.7-.2,3.18-.38,4.46.72-.55,1.29-1,1.52-2,1.48C68.48,202.67,67.67,201.9,66.83,200.59ZM71.14,188a7.44,7.44,0,0,1-1.68-2.88,2.92,2.92,0,0,0,2.16.35,3.34,3.34,0,0,0,.57-.11,2.88,2.88,0,0,1,3.21.9,3.74,3.74,0,0,1,.55,3.87h0A6.59,6.59,0,0,1,71.14,188Zm9.53-.4,2.18,2.61a48.27,48.27,0,0,0,8.79,8,19,19,0,0,1,2.91,2.46,2.56,2.56,0,0,1-.65,4.3,8.5,8.5,0,0,1-8.2.14,11.67,11.67,0,0,1-4.5-4c-1.11-1.51-2.15-3.13-3-4.54-.64-1-1.24-2-1.89-3.13-.21-.37-.43-.75-.66-1.13,2.23-.48,3.08-1.71,2.84-4a5.88,5.88,0,0,0-2.09-4.15,5.77,5.77,0,0,0-4.48-1l-.94.14c-.4-1.64.38-2.92,2.16-3.55a13.75,13.75,0,0,1,4.12,3.68l.18.22Q79.05,185.67,80.67,187.62Zm34.81,1.15A9.06,9.06,0,0,1,115,190a21.7,21.7,0,0,1-6.28,7.38c-4,2.92-7.17,2.83-10.86-.31-2-1.71-3.95-3.59-5.82-5.41l-2-2c-1.23-1.17-2.44-2.35-3.66-3.53-1.72-1.67-3.49-3.39-5.26-5.06a14.74,14.74,0,0,0-9.24-4h-.38A4,4,0,0,0,68,179.08a8,8,0,0,0,1.09,9.82,21.08,21.08,0,0,0,2.44,2l.64.48-2.38,1-6.18,2.65c-5.13,2.25-10.47,1.9-15.88-1a31.49,31.49,0,0,1-6.57-5.3c-.51-.49-1-1-1.52-1.44l1.75.1c1.85.11,3.76.23,5.65.3,6.54.23,12.48-2.16,18.11-7.29a44.78,44.78,0,0,0,6.75-8c.36-.53.75-1,1.12-1.52l.24-.31,1.42,1.82c1.43,1.84,2.84,3.64,4.27,5.43l.09.12a5.87,5.87,0,0,0,1.61,1.57,8.23,8.23,0,0,0,3.2,1.17,3.57,3.57,0,0,0,3.72-1.89c.78-1.56,0-2.84-.9-3.89-1.48-1.75-3.87-4-7.63-3.47a8.42,8.42,0,0,1-1.59,0h-.49c-.32-1.55,0-2,1.17-2.31a5.85,5.85,0,0,1,4,.48c5.17,2,8.86,4.54,11.61,8.11,1,1.36,2.25,2.63,3.41,3.86l1,1a8.92,8.92,0,0,0,7.51,3A16.4,16.4,0,0,1,112,187l1.09.38c.59.2,1.17.45,1.79.71.22.1.45.2.69.29C115.56,188.5,115.52,188.64,115.48,188.77ZM78.12,173.72c3.82-.59,6.64.91,7.49,4-1.23,1.19-2.38,1.23-3.6.13a41,41,0,0,1-2.87-3Zm50.59,4.6c-2,4.57-6.72,8-10.84,8h-.13a4.9,4.9,0,0,0-3.82-1.5,3.26,3.26,0,0,1-1.74-.68,22.06,22.06,0,0,1-3.09-2.82A188.45,188.45,0,0,1,93.27,161c-.36-.55-.68-1.14-1-1.71l0-.1.68.25a12.36,12.36,0,0,0,3,.85,2.65,2.65,0,0,0,2.37-.74,2.94,2.94,0,0,0,.52-2.65,10,10,0,0,0-5-6.62l-.32-.17a2.57,2.57,0,0,1,2.14.38c1.56,1,3.2,2.18,5,3.56.67.51,1.32,1.06,2,1.6s1.14,1,1.74,1.44a15.16,15.16,0,0,0,1.57,1l.67.41c.08,2.87,2.06,4.82,4,6.7l.14.14A25.2,25.2,0,0,0,115,168.8a4.55,4.55,0,0,0,7.14-1.71c.83-1.35,1.61-2.75,2.37-4.1.86-1.53,1.75-3.11,2.69-4.62a18.88,18.88,0,0,1,4.25-4.93v.62c0,.73,0,1.36,0,2a29.8,29.8,0,0,1-2,12,21.83,21.83,0,0,0-1.21,4.87A8.67,8.67,0,0,0,128.71,178.32Z"/></svg>