<svg id="Camada_1" data-name="Camada 1" xmlns="http://www.w3.org/2000/svg" viewBox="0 0 169.04 209.33"><defs><style>.cls-1{fill:#127e7b;}</style></defs><path class="cls-1" d="M100.86,191.82c2.25.1,4.53.1,6.81,0A37.27,37.27,0,0,0,127.78,185c15.34-10.9,23.77-25.61,25-43.71A79.58,79.58,0,0,0,147.76,107c-4.67-12.21-11.52-21.2-20.95-27.49-5.87-3.91-13-8.17-21-10.1-2.33-.56-4.73-.93-7-1.28-1.21-.19-2.41-.38-3.61-.59l-.33,0A4.78,4.78,0,0,1,93.18,67l.14-.09a8,8,0,0,1,1.39-.75,17.19,17.19,0,0,1,8.52-.59,32.52,32.52,0,0,1,12.45,4.58,125.87,125.87,0,0,1,14.55,10.26l1.11.9c.87.71,1.76,1.43,2.68,2.1a2.3,2.3,0,0,0,2.14.54,2.16,2.16,0,0,0,1.16-1.78c.34-1.65.54-3.36.73-5,.06-.48.11-1,.17-1.44A8.24,8.24,0,0,0,136,69c-.11-.12-.21-.25-.31-.38l-.38-.46-2.06-2.25c-2.12-2.31-4.31-4.7-6.5-7a1.4,1.4,0,0,1-.39-1.79c.55-1.31,1-2.63,1.43-4a2.2,2.2,0,0,0-1.07-2.75,11.46,11.46,0,0,0-5.23-1.59,2.86,2.86,0,0,0-3,2.08c-.12.31-.2.63-.29,1s-.13.45-.2.67c-.22.66-.42.71-.66.7-2.25-.13-3.47-.59-3.85-2.74-.62-3.48-1.55-6.95-2.46-10.31l-.15-.57a9.69,9.69,0,0,0-4.32-5.73,36.18,36.18,0,0,0-4.9-2.67,52.42,52.42,0,0,0-17.1-4.18,63.28,63.28,0,0,0-17.35.74A18.42,18.42,0,0,0,53.33,38.26a40.94,40.94,0,0,0-1.69,4c-1,3-1.81,5.83-.68,8.86h0c-.51,0-1,.06-1.43.12a2.41,2.41,0,0,1-2.8-1.65c-.22-.51-.43-1-.64-1.53s-.5-1.19-.76-1.79a2.79,2.79,0,0,0-1.48-1.7,2.57,2.57,0,0,0-2,.3,41.55,41.55,0,0,0-4.6,2.69c-1.4.92-1.62,2-.73,3.45.53.88,1.11,1.75,1.68,2.59.32.48.64,1,.95,1.44s.41.67.62,1l.11.17-.06.06c-.23.18-.43.35-.62.53l-2.27,2c-1.78,1.55-3.61,3.16-5.38,4.79a17.66,17.66,0,0,0-5.09,7.16,21.74,21.74,0,0,0-.81,9.35,17.35,17.35,0,0,0,.68,3.63c.66,2.18,2.1,3.13,4.25,2.82a25.45,25.45,0,0,0,5.05-1.35c1.7-.61,3.4-1.27,5-1.91s3.29-1.28,4.95-1.88a20.42,20.42,0,0,1,3.75-.86,1.64,1.64,0,0,1,1.9,1,1.84,1.84,0,0,0,2.65,1.1c.66-.22,1.29-.49,2-.78l.47-.2,1.27,2.91a8,8,0,0,0-6.62-1.61,24.06,24.06,0,0,0-11,4.58A56.28,56.28,0,0,0,29.28,97.81a57.24,57.24,0,0,0-13.36,33.12,80.41,80.41,0,0,0,2,23.75c1.73,7.62,4.33,13.45,8.18,18.35a84.64,84.64,0,0,0,12,12.42,39.44,39.44,0,0,0,13.15,7.66c2.64.47,5.23,1.17,7.9,1.4.87.08,1.75.15,2.62.24a3.35,3.35,0,0,0,1.32-1.21c.64-1,1.34-1.93,2-2.86s1.35-1.87,2-2.83a22.67,22.67,0,0,0,1.77-3.35,4,4,0,0,0-.1-3.69,10.54,10.54,0,0,0-.83-1.29,43,43,0,0,0,4.73,3.73s2.45,2.64,17.53,7.11A32.64,32.64,0,0,0,100.86,191.82ZM52.74,48.63a15.18,15.18,0,0,1,.49-3.6,44.56,44.56,0,0,1,2.25-5.86A16,16,0,0,1,67.7,29.92a60.69,60.69,0,0,1,18-.55,49.35,49.35,0,0,1,15,3.89,35.18,35.18,0,0,1,4.46,2.43,7.58,7.58,0,0,1,3.46,4.58c.87,3.35,1.79,6.92,2.56,10.58a6,6,0,0,0,2.59,3.84,5.32,5.32,0,0,0,4.17.63A3.7,3.7,0,0,0,119.76,54a2.68,2.68,0,0,0,.5-1.2l.09-.32c.44-1.56.61-1.65,2.16-1.25.49.13,1,.3,1.47.48l1,.35a.84.84,0,0,1,.51.33,1,1,0,0,1-.08.68c-.15.37-.29.74-.42,1.12-.24.65-.46,1.27-.74,1.87-.81,1.72-.53,3.1.93,4.6,2.07,2.12,4.08,4.36,6,6.53,1,1.1,2,2.2,3,3.28a6.5,6.5,0,0,1,1.75,5.46l-.7,5.61-.2-.15c-.42-.32-.84-.64-1.25-1a140.5,140.5,0,0,0-14.95-11,40,40,0,0,0-13.44-5.76A28.81,28.81,0,0,0,99.92,63a17.24,17.24,0,0,0-4.27.5,12.57,12.57,0,0,0-3.94,1.75,2.92,2.92,0,0,0-.78.74,6.14,6.14,0,0,0-.19-.62A4.56,4.56,0,0,1,92,60.24a18.31,18.31,0,0,1,12.54-5.53c.66,0,1.32,0,2,0H108a2.79,2.79,0,0,0,2.17-.7,2.62,2.62,0,0,0,.47-2.1c-.68-7.69-4-13.16-10.12-16.73a33.06,33.06,0,0,0-14-4.31,75.61,75.61,0,0,0-13.77-.08A20.72,20.72,0,0,0,54.08,46.86l-.14.59A14.39,14.39,0,0,1,53.51,49,5.73,5.73,0,0,1,53,50,2,2,0,0,1,52.74,48.63ZM53.9,76.54c.32.79.68,1.57,1.06,2.4.11.23.21.46.32.7l-2,.92a4,4,0,0,0-4.86-2.18,60.38,60.38,0,0,0-6.24,1.85c-1.73.61-3.47,1.29-5.14,2-1.13.45-2.25.89-3.38,1.32a20.87,20.87,0,0,1-2.58.75,2.64,2.64,0,0,1-2-.1,2.3,2.3,0,0,1-.75-1.61,42,42,0,0,1-.45-7.19c.09-3.83,1.88-7.09,5.81-10.58,1.49-1.33,3-2.64,4.51-3.95l2.38-2.07a9.58,9.58,0,0,0,.8-.76,2.33,2.33,0,0,0,.27-3.3c-.53-.81-1.08-1.62-1.62-2.42L38.88,50.6c-.17-.26-.32-.52-.5-.82l-.07-.12A18.09,18.09,0,0,1,43,46.9c.13.27.26.51.37.76.18.42.36.83.53,1.25.28.65.56,1.31.85,2a4.51,4.51,0,0,0,4.88,2.72l2.92-.28c2.29-.23,4.58-.46,6.87-.66,1.86-.16,3.79-.26,5.49-.35a2.85,2.85,0,0,1,2.62,1.18c2.4,3.32,4.31,6,6,8.51.45.66.41.88-.26,1.4a22.57,22.57,0,0,1-2.83,1.88q-4.68,2.52-9.4,5l-4.45,2.36c-.57.3-1.17.62-1.73,1A2,2,0,0,0,53.9,76.54Zm3.48,2.07-.21-.44A21.56,21.56,0,0,1,56.26,76a1,1,0,0,1,.27-.65,7.13,7.13,0,0,1,1.3-.79l.47-.24,4-2.15q4.72-2.49,9.41-5A20.24,20.24,0,0,0,75,64.92,2.67,2.67,0,0,0,75.62,61c-2-2.9-4.1-5.95-6.59-9.31A4.38,4.38,0,0,0,65.09,50q-3.31.19-6.63.44l-2.24.16-.84.07.21-.71c.29-1,.58-2,.84-3A18.38,18.38,0,0,1,72.67,33.11a61.07,61.07,0,0,1,17.79.67A26.49,26.49,0,0,1,102,39c3.25,2.59,5.23,6.26,6.07,11.23.09.54.15,1.09.22,1.67l0,.42h0c-.34,0-.63.06-.93.07H105.9a26.91,26.91,0,0,0-3,.08,20.65,20.65,0,0,0-12.14,5.67c-2.54,2.3-3.28,5-2.22,8,.16.47.21.78.12.94s-.38.32-.88.45c-1.45.4-2.9.76-4.36,1.11-1.26.31-2.52.62-3.78,1a114.3,114.3,0,0,0-20.14,7.95ZM54.8,190.26c-.18.35-.35.7-.52,1.06l-.11.21-.48-.1A32.07,32.07,0,0,1,44,187a73.62,73.62,0,0,1-15-14.08A40,40,0,0,1,21.2,158.1,84.1,84.1,0,0,1,18.25,141a59.61,59.61,0,0,1,2-21.45A57,57,0,0,1,41.69,89.29a18.51,18.51,0,0,1,10.45-4h.35a5.86,5.86,0,0,1,2.63.52,9.25,9.25,0,0,1,2.66,2.43c.27.32.54.64.83,1l-.74.9a48.32,48.32,0,0,0-9.64,19c-1.76,7-2.43,14.81-2.11,24.46a57.66,57.66,0,0,0,3.3,18,72.37,72.37,0,0,0,16.46,26c-.2-.14-.4-.27-.61-.39a2.45,2.45,0,0,0-3.43.41,11.54,11.54,0,0,0-2,2.59c-1.29,2.45-2.54,5-3.75,7.4Zm11.29-5.32c-1.33,2.18-2.86,4.31-4.34,6.37l-.71,1a1.11,1.11,0,0,1-.74.36c-1-.1-2.07-.28-3.16-.47l-.65-.11L57,191c.55-1.22,1.08-2.37,1.65-3.5l.28-.55c1.11-2.15,2.25-4.38,3.52-6.47.55-.91,1-1.35,1.29-1.39s1.13.59,1.69,1.16C67.21,182,67.33,182.91,66.09,184.94Zm18.75,1.68a60.66,60.66,0,0,1-10.38-5.12,78,78,0,0,1-8.08-6.72c-8.18-8.91-13.48-18.28-16.2-28.65-2.07-7.92-2-15.89-1.7-22.63a68.18,68.18,0,0,1,2.37-15.27A47.2,47.2,0,0,1,64.3,86.6a77.77,77.77,0,0,1,8.38-6.88,28.1,28.1,0,0,1,23.47-4.56,77.84,77.84,0,0,1,29.68,13.93c5.72,4.35,10,10.31,13.52,18.75a57.83,57.83,0,0,1,4.17,19.93A73.29,73.29,0,0,1,141.28,150a47.06,47.06,0,0,1-9.8,19.19,40.27,40.27,0,0,1-24.15,13.49A35.28,35.28,0,0,1,82.42,178a59.88,59.88,0,0,1-17.48-15.26,34.13,34.13,0,0,1-5-9.6c-1.47-4.28-2.84-8.58-4.09-12.78a42.28,42.28,0,0,1-1.16-17.64,70.74,70.74,0,0,1,5-18.83A35.4,35.4,0,0,1,69.83,89.66a32.21,32.21,0,0,1,16.69-7.21,15.61,15.61,0,0,1,4.62.22,7.79,7.79,0,0,1,5.45,3.84,1.52,1.52,0,0,0-.49-.09,1.87,1.87,0,0,0-1.42,1.22,8.85,8.85,0,0,0-.47,2.62l0,3.24c-.07,5.83-.14,11.85-.1,17.78,0,3.22.27,6.48.51,9.64l.09,1.3a20.51,20.51,0,0,0,.74,4,5.81,5.81,0,0,0,.79,1.55c.08.13.17.26.25.4l-.12.17a8.28,8.28,0,0,0-.92,1.51,8.38,8.38,0,0,0-.5,1.72c0,.22-.1.45-.16.69l-1.69,1.08-4.51,2.91-2.36,1.53c-3.52,2.28-7,4.55-10.52,6.86a22.78,22.78,0,0,0-2.47,2l-.38.33a4.49,4.49,0,0,0-1,1.25,1.59,1.59,0,0,0,0,1.68,1.52,1.52,0,0,0,1.52.61,6.18,6.18,0,0,0,2-.6l.52-.26a39,39,0,0,0,4-2.16c3.31-2.13,6.64-4.34,9.86-6.48l3.48-2.31a3,3,0,0,0,.38-.29l.55-.46L93,136.14l2.12-1.34.42-.24.32.21a3.78,3.78,0,0,0,1.3.65,2.43,2.43,0,0,0,2.05-.44,3.22,3.22,0,0,0,1.19-2.44,15.63,15.63,0,0,0-.11-3.34,22.47,22.47,0,0,1,.27-7.12c.1-.71.21-1.43.29-2.15a114.37,114.37,0,0,0,.6-24.55,28.24,28.24,0,0,0-1.86-8.06c-1.87-4.6-5.42-7-10.56-7.27a24.25,24.25,0,0,0-8.67,1.36,35.53,35.53,0,0,0-21.68,19,71.61,71.61,0,0,0-6.32,22.33,47.72,47.72,0,0,0,2.21,21.4q.83,2.49,1.63,5L57.4,153a41.34,41.34,0,0,0,10.11,16.26,71.31,71.31,0,0,0,12.85,10.21c10.7,6.64,22.31,7.87,34.51,3.66a42.24,42.24,0,0,0,23.35-19.47,58.16,58.16,0,0,0,7-21.74,77.56,77.56,0,0,0,.2-19.29c-1.58-13.17-6.38-23.72-14.68-32.24a51.62,51.62,0,0,0-11.82-8.61,78.72,78.72,0,0,0-23-9,30.81,30.81,0,0,0-23.68,4.4,64.24,64.24,0,0,0-10.64,8.76c-.23.23-.45.49-.68.77l-2.58-6,.48-.23c.65-.32,1.28-.64,1.92-.94a107.3,107.3,0,0,1,20.44-7.94L85,70.69l2.53-.61c.37-.09.73-.2,1.09-.32a3.81,3.81,0,0,0,2.29-1.57,2.78,2.78,0,0,0,1.38,1,16.45,16.45,0,0,0,4,.88c12.25,1.15,23.63,6.3,34.81,15.75,5.2,4.4,9.38,10.31,13.13,18.6a73.81,73.81,0,0,1,6,22.84A71.61,71.61,0,0,1,150,145.9a53,53,0,0,1-16,31,54.51,54.51,0,0,1-10.55,8.1c-5,2.92-10.85,4.42-17.81,4.58A64.67,64.67,0,0,1,87,187.28c-.72-.19-1.42-.42-2.11-.64ZM97.47,125a11.48,11.48,0,0,1-.52-3.07l0-.15a253.68,253.68,0,0,1-.51-29.83c.07.58.12,1.16.14,1.73.37,9.68.72,19.89,1,30.36A3.26,3.26,0,0,1,97.47,125Zm.55,7.66a.66.66,0,0,1-.28.45h0l-.18,0Zm-8.49,5.66-2.22,1.52c-2.84,1.93-5.74,3.9-8.74,5.69,2.65-1.77,5.53-3.69,8.41-5.57ZM98.8,93.23c.06.39.12.8.17,1.21a78.15,78.15,0,0,1,.45,13.61c-.11-3.81-.22-7.73-.38-11.58C99,95.39,98.9,94.31,98.8,93.23Z"/></svg>