<svg id="Camada_1" data-name="Camada 1" xmlns="http://www.w3.org/2000/svg" viewBox="0 0 301.1 254.66"><defs><style>.cls-1{fill:#127e7b;}</style></defs><path class="cls-1" d="M255.72,205.79c.13-1.34.19-2.76.19-4.37,0-.47,0-.54.37-.68a9.6,9.6,0,0,0,5.23-5.24,21.64,21.64,0,0,0,1-2.77c.57-2.1,1.11-4.2,1.64-6.3l.84-3.24c1.65-6.38,3.84-12.71,5.95-18.83.67-2,1.35-3.9,2-5.85,2-5.95,4.05-12.25,6.09-18.74a21.62,21.62,0,0,0,1.16-7.61,4.59,4.59,0,0,0-4.14-4.79,12.59,12.59,0,0,0-2-.24c-2.44-.09-4.87-.17-7.31-.22l-16.82-.32-6.1-.11-7.35-.14c-6.22-.13-12.65-.26-19-.31a68.28,68.28,0,0,0-8.77.67,7.47,7.47,0,0,0-6.18,4.75c-.58,1.35-1.17,2.81-1.65,4.32-3.68,11.78-6.89,22.12-9.81,31.62-1,3.36-2.08,7-3.2,11a5.49,5.49,0,0,0,2.67,6.67,42.19,42.19,0,0,0,6.13,3,74.14,74.14,0,0,0,17.59,3.79,249.23,249.23,0,0,0,32.43,1.75,56,56,0,0,0,7.66-.76,4.28,4.28,0,0,0,3.8-4c0-.31.07-.62.11-.93.07-.54.13-1.07.18-1.61l0-.4c.06-.91.13-1.49.81-1.86a1.33,1.33,0,0,0,.5-.66c.21-.47.43-.94.64-1.4a25.45,25.45,0,0,0,1.37-3.32c3.64-11.76,7.3-23.74,11.19-36.61a28,28,0,0,0,.95-4.91,3.62,3.62,0,0,0-2.5-4,10.94,10.94,0,0,0-2.66-.73l-3-.3c-3.83-.39-7.78-.79-11.69-1-6-.32-12.28-.51-19.11-.59-4.71,0-9.49,0-14.12,0-2.57,0-5.14,0-7.71,0a6.74,6.74,0,0,0-6.71,4.5c-.11.28-.24.56-.37.83s-.34.75-.48,1.13q-1.14,3-2.3,6.06c-1.9,5-3.87,10.2-5.68,15.35-1.68,4.8-3.2,9.74-4.67,14.51l-1,3.29a25,25,0,0,0-.76,3.89l0,.27a1.25,1.25,0,0,0,.45,1,2,2,0,0,1,.19.24l.32.47.64-.56a7.27,7.27,0,0,0,.57-.54.88.88,0,0,0,.18-.63c.2-.84.39-1.69.57-2.53a51.37,51.37,0,0,1,1.41-5.49c3-8.9,6.24-18.07,9.83-28,.91-2.53,2-5.05,3.1-7.49l.79-1.78a3.21,3.21,0,0,1,3-2l1.84-.09c1.84-.11,3.74-.21,5.6-.2h2.12c6.9,0,14,.09,21,.3s14.06.64,21.27,1.09a37.38,37.38,0,0,1,5.94,1c1.35.32,1.73.88,1.54,2.33a24.36,24.36,0,0,1-.81,3.73c-2.79,9.26-6.11,20.23-9.52,31.34-.69,2.24-1.48,4.48-2.25,6.66l-.66,1.9a9.62,9.62,0,0,0-4.33-6.49,17.74,17.74,0,0,0-5.63-2.29l-.24-.06c-1.85-.48-3.76-1-5.59-1.59a4.16,4.16,0,0,1-2.85-3.47,14.6,14.6,0,0,1,.18-5.14c.12-.66.18-.68.55-.67a2,2,0,0,0,1.37-.66,5.21,5.21,0,0,0,1.82-4.06,2.75,2.75,0,0,0-.85-1.89,1.36,1.36,0,0,0-1.66-.07l.35-1.3c.45-1.73.91-3.46,1.41-5.18a4.36,4.36,0,0,0-1.67-5.13,20.67,20.67,0,0,0-3.72-2.22,14.69,14.69,0,0,0-10.7-.74,8.13,8.13,0,0,0-5.36,5,3.2,3.2,0,0,0,0,2.59,3.42,3.42,0,0,0,2.12,1.69,4.22,4.22,0,0,0,1.34.3h0c2.2,0,4.34,0,6.46-.11.9,0,1.78-.14,2.71-.26l.74-.09a5.82,5.82,0,0,0,1.61,2.77l.25.28a2,2,0,0,1,.52,1.24c-.45,3-1,6.56-1.75,10.08a9.34,9.34,0,0,1-2.33,4.46,2.84,2.84,0,0,1-4.16-.09l.31-.05a3.36,3.36,0,0,0,2.61-1.78,16.41,16.41,0,0,0,1.08-2.95,2,2,0,0,0-1.4-2.51l-.67-.23,0-.06a9.26,9.26,0,0,0,.61-1.22l.36-1a23.94,23.94,0,0,0,1.18-3.59,4,4,0,0,0-2.76-4.49c-1.65-.62-3-.08-4.23,1.7-.2.29-.39.58-.58.88l-.38.59a5.14,5.14,0,0,0-.29-.51,1.77,1.77,0,0,0-1.42-.85h0a1.66,1.66,0,0,0-1.36.8,6.78,6.78,0,0,0-1.22,5,1.89,1.89,0,0,0,1,1.48,2,2,0,0,0,1.9-.26l.17-.11,1.15,6.86a49.14,49.14,0,0,0-18.9,4.92c-2.06,1-4.57,2.5-5.78,5.3a33,33,0,0,0-1.8,6.18c-.34,1.6-.43,2.54,0,3.22s1.34.93,3,1.2c7.72,1.29,14.17,2.36,20.87,3.38,2.82.43,5.65.7,8.35.93-4.31-.24-8.77-.6-13.45-1.08A87.09,87.09,0,0,1,197.7,186a22.73,22.73,0,0,1-6.14-3.1,3,3,0,0,1-1.43-3.29l.08-.36c.34-1.53.69-3.11,1.15-4.62,4.17-13.58,7.57-24.59,10.7-34.63.8-2.55,1.72-5.15,2.74-7.71a5,5,0,0,1,3.85-3.16l.14,0a22.38,22.38,0,0,1,4.05-.54c7.4,0,15-.09,22.66,0,9.27.14,18.7.37,27.82.59l6.39.16a54.21,54.21,0,0,1,5.78.35c1.74.23,2.39,1,2.31,2.7A23.44,23.44,0,0,1,277,138c-1.84,6.28-3.58,11.78-5.3,16.81l-1.5,4.35c-3.46,10-7.05,20.45-9.46,31a26,26,0,0,1-2,5.43,6,6,0,0,1-3.4,2.95,4.35,4.35,0,0,0-3-2.1,13,13,0,0,0-2-.38l-3.8-.38c-4.6-.47-9.36-1-14-1.36-4.87-.42-10-.86-15.26-1.11-3.66-.17-7.39-.19-11-.2h-2.44a7.13,7.13,0,0,0-2.48.45,2,2,0,0,0-1.22,1.39,2,2,0,0,0,.88,1.6,6.73,6.73,0,0,0,2.08.92l.83.21c2,.52,4.07,1.05,6.14,1.44a220.31,220.31,0,0,0,28.12,3.38,58.63,58.63,0,0,0,14.76-.62l.69-.13-.05.85c-.06,1.07-.12,2.09-.22,3.11a1.6,1.6,0,0,1-.25.89l-1.78.48-.22.06v0a18.58,18.58,0,0,1-2.76.28c-6.29.07-12.84.11-20,.12-2.93,0-5.87,0-8.8,0-4,0-8.23,0-12.35,0-2.53,0-5.08.21-7.56.4l-.86.06a5.24,5.24,0,0,0-4.08,2.33,5.26,5.26,0,0,1-2.7,1.88,20.82,20.82,0,0,1-7.54.79c-.65,0-1.3-.08-2-.13a52.73,52.73,0,0,0,10.27-12.17l.2-.32a17.63,17.63,0,0,0,2.68-5.61,2.54,2.54,0,0,0-2-3.36,18,18,0,0,0-2-.42l-.45-.08c-.71-.13-1-.46-1.06-1.11l-.09-1.82,0-1a4,4,0,0,0-2.63-3.88,7.76,7.76,0,0,0-2.47-.52,5,5,0,0,1-3.35-1.39,33.09,33.09,0,0,0-3.29-2.64,5.31,5.31,0,0,0-5.17-.41,10.05,10.05,0,0,0-3.88,3.22l-.21.24c-1.88,2.19-2.64,2.29-4.79.68s-4.07-3.26-6-4.91l-2-1.66c-3.25-2.73-6.93-5.82-11.3-7.84-4.2-1.94-8-1.71-11.53.69a24.69,24.69,0,0,0-7.38,8.27,10.15,10.15,0,0,0-1.48,7.17,16.86,16.86,0,0,0,4.1,7.8,55.34,55.34,0,0,0,17.6,13.56c6.52,3.37,14,5.88,23.46,7.91,1.7.37,3.44.69,5.13,1l1.28.24a15.32,15.32,0,0,1-10.7,2.41,22,22,0,0,1-8.31-3.45c-3.35-2.13-6.7-4.38-9.94-6.56l-4-2.67c-5.71-3.8-12.56-8.08-20.09-11-5.66-2.19-10.4-3.16-14.9-3.05l-.32,0a55.74,55.74,0,0,0-.34-11.48l.1.08c.74.59,1.42,1.15,2.12,1.67,3,2.23,4.41,2.07,6.77-.72a95.38,95.38,0,0,1,10.46-10.54c2.05-1.77,4.22-3.47,6.31-5.12,1.07-.84,2.14-1.68,3.19-2.53,2.5-2,2.81-3.86,1.09-6.39A62.66,62.66,0,0,0,132.8,149a32,32,0,0,1-5.8-8.73c-.9-2.1-2-4.14-3.08-6.11l-.28-.52a32.47,32.47,0,0,0-15.15-14.07,43.05,43.05,0,0,0-4.29-1.65l-.91-.31c-1.58-.56-2.51-1.66-3.11-3.75a7.61,7.61,0,0,1,1.08,0,6.83,6.83,0,0,1,3.25,1.56l.63.44,1.37,1a36.86,36.86,0,0,0,3.09,2.06,4.11,4.11,0,0,0,5.82-1.28,30.06,30.06,0,0,0,2.48-4.72c.57-1.3,1.11-2.63,1.63-3.92s1-2.42,1.49-3.61a25.49,25.49,0,0,1,6.06-7.87,11.34,11.34,0,0,0,3.62-9.24,28.28,28.28,0,0,1,.47-9.21c.58-2.13,1.16-4.25,1.76-6.38a19.87,19.87,0,0,0,.94-7.38,16.52,16.52,0,0,0-.71-3.49,2.18,2.18,0,0,0-1.47-1.35c-.45-.07-1.28,0-1.63,1.48-.07.31-.13.62-.19.93l-.07.34c-.06.34-.13.68-.19,1-.13.72-.27,1.47-.46,2.18-.51,1.88-1.1,3.66-2.74,4.71a7.67,7.67,0,0,0-3.58,6.62,28.13,28.13,0,0,1-.51,4c-.06.36-.28,1-.78,1-.27,0-.38-.21-.57-.85l0-.15a2.18,2.18,0,0,1-.11-.62c0-.57,0-1.14,0-1.72s0-1.23-.06-1.84,0-1.06,0-1.59a37,37,0,0,0-.24-4.05,4,4,0,0,0-1.8-3,4.16,4.16,0,0,0-3.68-.13A9.18,9.18,0,0,0,110.08,73a13.9,13.9,0,0,1-3,3.46c-2.22,2-4.4,4.2-6.52,6.28l-2.63,2.6-.23.21a7.12,7.12,0,0,0-.29-1.25c-1-2.74-2.06-5.65-3.18-8.51a21.28,21.28,0,0,1-1.85-8.45A25.46,25.46,0,0,1,98,52.12a12.61,12.61,0,0,1,6.93-4.64,12.14,12.14,0,0,1,9.15,1.37c2.12,1.19,4.22,2.53,6.24,3.82,1.18.76,2.36,1.51,3.55,2.24l1.61,1a60.77,60.77,0,0,0,5.66,3.27,8.33,8.33,0,0,0,9.45-1.13,23.62,23.62,0,0,0,6.05-7.51A3.3,3.3,0,0,0,147,47.8a3.31,3.31,0,0,0-2.17-1.73c-1.59-.57-3.24-1.07-4.84-1.55l-1.25-.38a55.23,55.23,0,0,1-14.24-6.36l-1.59-1c-2.65-1.73-5.39-3.53-8.17-5.17A35.88,35.88,0,0,0,95,26.22a26.23,26.23,0,0,0-16.72,6.34,26.74,26.74,0,0,0-7.84,12.51,63.24,63.24,0,0,0-2.77,23.58c.21,3.21.62,6.45,1,9.59.26,2.09.53,4.25.74,6.38.18,1.86.2,3.78.21,5.64l0,1.42a.82.82,0,0,1-.28.46c-2.59,1.74-3.43,4.43-4.25,7-.12.41-.25.82-.38,1.22a1.18,1.18,0,0,0-.07.45,27.12,27.12,0,0,0-15.78.1,61.55,61.55,0,0,0-16.78,7.8,39.26,39.26,0,0,0-13.2,14.34A50.13,50.13,0,0,0,14,137.92c-.86,4.76-1.58,9.62-2.29,14.33-.29,1.93-.58,3.87-.88,5.8l-8,52c0,.27-.09.53-.13.8a40.48,40.48,0,0,1-1.67,7,4,4,0,0,0,2.06.94,25.27,25.27,0,0,0,1.64-5.59,1,1,0,0,0,.07-.44c.28-1.65.55-3.3.83-4.95.6-3.51,1.21-7.14,1.75-10.73,2.19-14.61,4.34-29.13,6.88-46.44a127.34,127.34,0,0,1,4.1-20,36,36,0,0,1,7.41-13.28,41.26,41.26,0,0,1,10.07-8.14,53.43,53.43,0,0,1,16.22-6.58c5.07-1.07,9.36-.78,13.1.9a87.66,87.66,0,0,1,7.93,4.12c8.74,5,16.61,7.14,24.7,6.61l.15.5a7,7,0,0,0,4.2,4.94c.53.21,1.08.38,1.62.56l.41.13a31,31,0,0,1,12.92,8.2,36.17,36.17,0,0,1,6.81,10.7A41.16,41.16,0,0,0,132,151.66a29.49,29.49,0,0,1,3.23,4.14c1.45,2.18,1.37,2.61-.8,4.21l-1.2.88c-1.19.86-2.42,1.75-3.57,2.71a121.17,121.17,0,0,0-15.33,14.89c-1.08,1.27-1.3,1.3-2.61.33-1.58-1.15-3.09-2.44-4.51-3.67a2.29,2.29,0,0,1-.68-1.06,20.45,20.45,0,0,0-11.59-13.54,21,21,0,0,0-3.83-1.2l-.54-.13a1.63,1.63,0,0,0-1.61.75,2.24,2.24,0,0,0,.13,1.64,3.11,3.11,0,0,0,.88,1.08l5.24,4.8q4.43,4,8.84,8.11a2,2,0,0,1,.64.88,45.57,45.57,0,0,1,.77,13.58,1.46,1.46,0,0,1-.13.19A21,21,0,0,0,98.88,192a13.64,13.64,0,0,0-6.52,5.83,20.1,20.1,0,0,0-2.17,9.67,133.17,133.17,0,0,0,1.46,18.16c.26,2.05.52,4.1.74,6.15A7.55,7.55,0,0,0,93,234a1.91,1.91,0,0,0,1.41,1.24l.25,0a2.06,2.06,0,0,0,1.52-.8,5.93,5.93,0,0,0,.92-1.38l.06-.13a32.71,32.71,0,0,0,1.34-3,162.31,162.31,0,0,0,9.07-37.14,1,1,0,0,1,.07-.33h0s0,0,.21,0c.65.06,1.31.09,2,.13a32.82,32.82,0,0,1,3.58.31c6.73,1.1,12.65,4,17.56,6.6a176,176,0,0,1,16.24,10.34l.95.65c4.11,2.83,8.36,5.76,13.21,7.67a16.41,16.41,0,0,0,9.69.85,24.19,24.19,0,0,0,8.29-3.82,1.83,1.83,0,0,1,1-.23c1,0,2,.06,3,.1,1.82.07,3.7.14,5.56.07a10,10,0,0,0,8.14-4,2.76,2.76,0,0,1,1.7-.85,48.88,48.88,0,0,1,6.19-.49q6.51,0,13,0c2.79,0,5.61,0,8.37,0h1.22c6.17,0,12.55,0,18.83-.08a43.79,43.79,0,0,0,4.74-.35v0l.2-.07,1.29-.18a3.74,3.74,0,0,0,2.16-1C255.14,208.13,255.72,205.79,255.72,205.79ZM256.1,186c-.05.57-.1,1.16-.17,1.76-.25,2.26-.63,2.67-2.69,3a59.71,59.71,0,0,1-7.79.61c-4.27,0-8.66-.06-13.22-.29a8.49,8.49,0,0,0,2.14-.44,1.53,1.53,0,0,0,1.1-1.19,1.66,1.66,0,0,0-.75-1.61,3.73,3.73,0,0,0-.62-.33l-.2-.1-1.16-.54c-.56-.25-1.09-.49-1.6-.76a4.74,4.74,0,0,0,.93.13l3.37,0c3.77,0,7.66.1,11.49,0,2.22,0,4.39-.17,6.69-.31l2.5-.16Zm-19-37.34,0-.21c-.18-.95-.52-1.55-1.62-1.55h-.26c-.95.08-1.9.17-2.84.27-1.17.11-2.33.23-3.5.3a22.61,22.61,0,0,1-2.47,0l-1.13,0-.18,0c-.8-.13-1.31-.36-1.45-.67s0-.83.43-1.5a6.62,6.62,0,0,1,4.82-3.14,13.81,13.81,0,0,1,11,3,2.12,2.12,0,0,1,.79,2.55c-.44,1.51-.87,3-1.3,4.54a7.31,7.31,0,0,0-1.93-2.6A2,2,0,0,1,237.08,148.66Zm-9.78,5.63a4.12,4.12,0,0,0,.44-.65c.09-.14.18-.29.28-.43l.07-.09c.38-.5.59-.74.92-.74a1.27,1.27,0,0,1,.26,0,2,2,0,0,1,1.42,1.61v.64l.07,0-.27.67c-.36.92-.72,1.83-1.11,2.74a9.15,9.15,0,0,1-.47.94c-.18.34-.36.68-.51,1a2,2,0,0,0-.08,1.61,2,2,0,0,0,1.31,1,9,9,0,0,1,.89.31,4.42,4.42,0,0,1-.29,1c-.51,1.45-.85,1.7-2.4,1.78-.3,0-.3,0-.34-.25-.12-.65-.22-1.29-.33-1.94-.24-1.51-.49-3.07-.88-4.59A4.93,4.93,0,0,1,227.3,154.29Zm2.8,34.35c-6.39-.89-11.59-1.65-16.36-2.39-3.61-.55-7.28-1.18-10.82-1.78l-1.4-.24c-.31,0-.77-.13-.84-.16a4,4,0,0,1,.12-.9c.08-.42.17-.84.26-1.26.12-.58.24-1.16.34-1.75.55-3.33,2.51-5.75,6-7.4a47.36,47.36,0,0,1,18.12-4.58h.09a.6.6,0,0,1,.61.38,5.82,5.82,0,0,0,4.18,2.79c3,.45,4.58-1.53,5.55-3.06a14.52,14.52,0,0,0,1.27-2.56v.35c.07,3.91,1.74,6.1,5.56,7.31,1,.3,1.94.54,2.89.76s1.92.46,2.85.75a21.67,21.67,0,0,1,4.09,1.75c2.3,1.32,3.46,3.46,3.54,6.47,0,0-.1.14-.08.14l-.54.09a28,28,0,0,1-3.26.36c-5.4.11-11.33.19-18.67.26a10.2,10.2,0,0,1-2.23-.3c-.78-.19-.93-.39-.81-1.16s.27-1.47.42-2.19c.12-.57.24-1.13.34-1.7a17.83,17.83,0,0,0,.27-2.51,1.86,1.86,0,0,0-1.39-2,3.16,3.16,0,0,0-2.17.39,4.49,4.49,0,0,0-1.5,1.82,10.54,10.54,0,0,0-.74,6.86,7.1,7.1,0,0,0,4,4.93c.23.13.47.25.71.37s.32.16.47.25A8.09,8.09,0,0,1,230.1,188.64Zm-.89-12a6.49,6.49,0,0,1-.06.78c-.12.64-.25,1.28-.38,1.92-.21,1-.42,2.05-.56,3.1a2.16,2.16,0,0,0,0,.35,7.57,7.57,0,0,1,.54-5.5A2.36,2.36,0,0,1,229.21,176.61Zm23,22.86c-1,.17-1.93.33-2.88.43a74.6,74.6,0,0,1-13.55,0,227.58,227.58,0,0,1-26.11-3.36c-1.47-.28-3-.67-4.41-1l-.72-.19a23.26,23.26,0,0,1,2.5-.07l1.73.07c5.15.21,10.48.42,15.71.79,6.27.44,12.64,1,18.8,1.59l2.24.21c2,.18,4,.5,6,.84a2.05,2.05,0,0,1,1.39.62ZM71.92,48.53A29.7,29.7,0,0,1,76.56,38a22.12,22.12,0,0,1,11.49-8.19c7.41-2.31,15.11-1.47,22.9,2.48a113.38,113.38,0,0,1,10.53,6.38l1.14.76a61.4,61.4,0,0,0,16.18,7.24c2,.6,3.66,1.12,5.31,1.7.58.21.65.32.66.34s0,.18-.27.75a21.54,21.54,0,0,1-5.41,6.75,6.38,6.38,0,0,1-7.05.87,36.72,36.72,0,0,1-6.65-4l-1.29-.89-.51-.35a55,55,0,0,0-9.86-5.79A14.35,14.35,0,0,0,96.38,50.3,27.45,27.45,0,0,0,90,67.73a22.94,22.94,0,0,0,2,8.83c.28.68.57,1.36.86,2,.56,1.33,1.15,2.69,1.62,4.06a28.5,28.5,0,0,1,.92,4l.1.57a1,1,0,0,1-.26.62c-3,2.92-6.63,4.07-11.56,3.64-2.59-.22-5.22-.31-7.77-.39L73.21,91h-.12a5.87,5.87,0,0,0-.94.09,69.42,69.42,0,0,0-1-12c-.24-1.66-.49-3.37-.68-5.06A70.13,70.13,0,0,1,71.92,48.53Zm24.57,63.39c-5.11.35-10-1-13.62-2.25a60.91,60.91,0,0,1-11.77-6A28.25,28.25,0,0,0,67,101.65a5.86,5.86,0,0,0,.91-.8,14.23,14.23,0,0,0,3.65-6.62c.13-.58.35-.7.72-.73l.88-.09a13.72,13.72,0,0,1,2.09-.13c2.58.12,5.32.29,8.37.54,5,.4,8.55-.48,11.53-2.83.2-.16.4-.32.62-.48.08,1.52.14,3,.2,4.54a147.1,147.1,0,0,0,1.32,16.77C97,111.86,96.75,111.9,96.49,111.92Zm14.05-34.67a4.22,4.22,0,0,1,3.23-2,.9.9,0,0,1,.24,0,1.11,1.11,0,0,1,1,.85c.3,1.1.55,2.24.8,3.35.06.3.13.6.2.9l-.13,0v.38c-.17,3.89-1.11,6.53-3.06,8.57a6.5,6.5,0,0,1-1.63,1.22,1.52,1.52,0,0,1-1.19.21,1.19,1.19,0,0,1-.61-.81,13.31,13.31,0,0,1-.65-3.91A23.64,23.64,0,0,1,110.54,77.25Zm-11,34.27c-.06-.56-.13-1.11-.2-1.66-.2-1.52-.38-3-.47-4.42-.3-4.83-.54-9.74-.76-14.49l-.11-2.12a.77.77,0,0,1,.15-.44q4.55-4.55,9.15-9c-.25,1-.48,2-.67,3a17,17,0,0,0,0,7.37,7.46,7.46,0,0,0,.46,1.28,3.41,3.41,0,0,0,4.63,1.89,8.55,8.55,0,0,0,4.5-4.34,16.1,16.1,0,0,0,1.1-12.81c-.73-2.24-2.22-3.16-4.45-2.76a6.29,6.29,0,0,1,3.75-2.26,1.11,1.11,0,0,1,1.24.94,19.33,19.33,0,0,1,.4,3.18c0,.91,0,1.81,0,2.72,0,1.11,0,2.27.08,3.4a6.53,6.53,0,0,0,.75,2.61,2.65,2.65,0,0,0,2,1.47,2.81,2.81,0,0,0,2.45-.94A6.12,6.12,0,0,0,125,80.28l0-.33c.08-.65.14-1.3.2-2s.1-1.12.16-1.68a3.1,3.1,0,0,1,1.3-2.37,11.12,11.12,0,0,0,4.85-7.33,24.92,24.92,0,0,1-1.25,6.55l-.23.83-.39,1.37a29.22,29.22,0,0,0-1.47,7.53c0,2.1,0,4.2.11,6a8.35,8.35,0,0,1-2.62,6.58c-1,1-2.07,2.14-3,3.21l-.12.13c-2.75,3-4.24,6.67-5.68,10.24l-.2.49a61.81,61.81,0,0,1-2.71,6.06,2.8,2.8,0,0,1-1.54,1.54,2.91,2.91,0,0,1-2.19-.6c-1.15-.72-2.28-1.55-3.37-2.35l-.83-.61a9.13,9.13,0,0,0-5.41-2.12A7.23,7.23,0,0,0,99.59,111.52ZM93,162.31a18,18,0,0,1,9.9,9.06Zm1.85,69.74a14.14,14.14,0,0,1-.34-1.8c-.16-1.52-.31-3-.47-4.54-.54-5.18-1.1-10.53-1.49-15.81a22,22,0,0,1,1.23-9.56,10.72,10.72,0,0,1,6-6.1,21.79,21.79,0,0,1,3.68-1.13c.54-.13,1.08-.26,1.61-.41l.13,0C105.49,198.89,98.26,226.18,94.88,232.05Zm84.83-20.14a1.72,1.72,0,0,1-1.48.39,120.3,120.3,0,0,1-21.5-5.16,65.66,65.66,0,0,1-20-10.81c-2.93-2.35-6.59-5.61-8.9-10a8.29,8.29,0,0,1-1.11-4.11h0A8.11,8.11,0,0,1,128,178a23.21,23.21,0,0,1,6.32-7.29,8.64,8.64,0,0,1,5.17-1.8A10.52,10.52,0,0,1,144,170a44.13,44.13,0,0,1,9.15,6.2l3.86,3.25q2.52,2.13,5.05,4.23a13.17,13.17,0,0,0,2.25,1.39,4.21,4.21,0,0,0,5.19-.73,15.1,15.1,0,0,0,1.1-1.17,13.76,13.76,0,0,1,1.1-1.17,11.94,11.94,0,0,1,2.39-1.76,2.59,2.59,0,0,1,2.79.2c1.14.83,2.21,1.73,3.4,2.75a6.34,6.34,0,0,0,4.14,1.64c2.7.2,3.05.56,3.18,3.24v.22a17,17,0,0,0,.18,2.12,3,3,0,0,0,2.37,2.58c.47.11.95.2,1.42.29l1,.2c.54.12.67.23.7.28s.06.2-.1.68a13.75,13.75,0,0,1-1.12,2.55A51.26,51.26,0,0,1,179.71,211.91Z"/></svg>