<svg id="Camada_1" data-name="Camada 1" xmlns="http://www.w3.org/2000/svg" viewBox="0 0 196.04 288.78"><defs><style>.cls-1{fill:#127e7b;}</style></defs><path class="cls-1" d="M171.33,241.76c-.23-.07-.48-.12-.73-.17a2.18,2.18,0,0,1-1-.34c-.47-.49-1-1-1.44-1.46a28.74,28.74,0,0,1-4.49-5.23c-2.26-3.71-4.52-6.1-7.3-7.7a13.66,13.66,0,0,0-1.34-9.71,10,10,0,0,0-6.38-5.1,39.21,39.21,0,0,0-10.41-1.51c-6,.21-12.15.88-18.07,1.52l-2.22.24c-2.24.24-4.5.58-6.69.9-2.49.37-5.08.76-7.63,1a4.87,4.87,0,0,1-3.7-.75,5,5,0,0,1-1.4-3.6,45.57,45.57,0,0,1,.22-8.17,12.44,12.44,0,0,1,.84-3c.12-.3.23-.62.34-.94l.17.12a10.54,10.54,0,0,0,1,.68,4.27,4.27,0,0,0,4.83.13,2.88,2.88,0,0,0,1-2.58,3.7,3.7,0,0,0-4-2.75,1.66,1.66,0,0,1-1.24-.33,2,2,0,0,1-.31-1.47c.07-1.53.15-3.05.22-4.58l.2-4.25c.27-5.94-1.56-10.48-5.58-13.86v-.05l1.46-.38c1.33-.34,2.68-.69,4-1l.36-.09c12.67-3,25.77-6.08,39.09-6.26,2.38,0,3.48-1.08,3.92-3.75.07-.44.13-.88.19-1.32a3.53,3.53,0,0,0,1.39,2.62c.94.58,2.22.45,4.3-.42a52.4,52.4,0,0,0,8-4C164,151,170,147,175.92,142.68a13.65,13.65,0,0,0,4-5.56l.09-.27,0,.08.12-.27s.11-.31.18-.46.08-.8.09-.89c.06-.66.14-1.29.25-1.89a13.54,13.54,0,0,0-.95-1.27c-3.84-4.59-8.64-6.22-15.81-6.36l-.18,0-12.37.92c-9.25.68-18.82,1.39-28.23,2.15A165.24,165.24,0,0,0,68,143.09a77.65,77.65,0,0,1-10,3.7c-3.64,1.07-5.65.22-7.7-3.25a11.86,11.86,0,0,1-1-1.83,79.65,79.65,0,0,1-5.64-31.47,10.14,10.14,0,0,1,.76-3.46c.33-.8.77-1.3,1.25-1.4a1.85,1.85,0,0,1,1.5.65,20.87,20.87,0,0,1,3.83,4.89c.93,1.68,1.75,3.46,2.54,5.19s1.53,3.3,2.4,4.91l.5.93a51.48,51.48,0,0,0,5.28,8.47c4.45,5.4,10.37,7.13,17.14,5a25.12,25.12,0,0,0,9.93-6.08c7.51-7.2,9.93-18.36,5.89-27.13a13.6,13.6,0,0,0-10.22-8.11L83,93.76h0l1.52-1.18a14.1,14.1,0,0,0,5.48-11.79A20.87,20.87,0,0,0,76.48,61.32a25.12,25.12,0,0,0-5.37-1.23L70.64,60l.71-.38a15.46,15.46,0,0,0,8.76-12.91,37.65,37.65,0,0,0-.29-9.45C78.34,28.17,75.1,25.06,66,24a98.68,98.68,0,0,0-28.16.86c-7.43,1.24-12.17,5.49-14.48,13a48.84,48.84,0,0,0-.71,24.9C24.84,73,27.67,83.34,30.4,93.33l1,3.46c2.29,8.24,4.65,16.76,5,25.48.16,3.54.17,7.16.18,10.65,0,2.48,0,5,.07,7.55.08,3.25.3,6.5.66,9.64.4,3.63,2.65,5.93,6.49,6.63a28.58,28.58,0,0,0,6.22.62l2.93-.1c5.89-.2,12-.4,18-1,14.37-1.4,28.34-2.94,41.53-4.59,5.81-.73,11.68-1.69,17.36-2.61,3.11-.51,6.23-1,9.34-1.49a9.08,9.08,0,0,1,2.21-.09c1.32.12,2.08.4,2.35.89a2,2,0,0,1-.06,1.58,29.85,29.85,0,0,0-1.21,5.83c-.34,2.48-.34,2.48-2.8,2.61l-2.28.11a59.53,59.53,0,0,0-8.71.81c-7.33,1.43-14.75,3-21.93,4.52q-6.06,1.29-12.13,2.55a5.38,5.38,0,0,1-2.8,0c-9.13-3.28-19.12-4.17-31.42-2.82a25.88,25.88,0,0,0-5.3,1.23c-2.46.82-5.11,2-5.37,5.32-.17,2.33,1.91,4.39,5.58,5.51a24,24,0,0,0,12.19.16c7.6-1.63,15.17-3.54,22.91-5.52a4,4,0,0,1,4,.78,11.87,11.87,0,0,1,4.59,9.39c.07,3.93,0,7.93-.14,11.8l0,1.83a2.79,2.79,0,0,1-.49,1.19l-.13.22c-2.8,4.95-3.38,10.5-1.79,17a5.59,5.59,0,0,0,5.81,4.45,49.71,49.71,0,0,0,5.38-.38c1.41-.16,2.78-.35,4.24-.56l.17,0-.12.09a6.24,6.24,0,0,0-2.44,2.75c-.51,1.74-1.5,2-3,2.4l-.22.06c-7.28,1.94-11.88,6.42-13.68,13.33a91.33,91.33,0,0,0-2.08,12.7c-.32,2.74-.44,5.54-.55,8.25,0,.91-.07,1.82-.12,2.73A1.75,1.75,0,0,1,88.34,260a4,4,0,0,0-3.22,2.48,4.56,4.56,0,0,0,1,4.39,2.74,2.74,0,0,0,2.37,1.27,2.66,2.66,0,0,0,2.06-1.6,18.07,18.07,0,0,0,1-2.36l.2-.53c.77.47,1.15.83,1.2,1.14s-.21.76-.83,1.45a5.33,5.33,0,0,1-4.26,2.1,5,5,0,0,1-3.68-2.55c-3.53-5.38-4.15-11-1.84-16.66a60.27,60.27,0,0,1,4.18-7.9l.31-.52c1.46-2.46,3-4.93,4.45-7.33,1.75-2.84,3.55-5.78,5.27-8.7l.26-.44c.92-1.54,2.08-3.46.73-5.33s-3.54-1.47-5.32-1.17l-.42.07-9.45,1.48c-9.82,1.53-20,3.12-29.92,5a124.65,124.65,0,0,0-19.38,5.34c-6.52,2.36-8.7,6.47-7.29,13.74.18.95.37,1.89.57,2.86l.2,1-.3.11c-1.8.67-3.85,1.42-3.95,4.06a5.67,5.67,0,0,0,3,5.33,5.75,5.75,0,0,0,2.49.66c.87,1.25,2.3,2.37,3.63,2.24s2.71-.39,4.06-.63a3.45,3.45,0,0,0,1.89-2.67c.72-4.22-1.59-7.9-5.38-8.56-2.39-.42-3-1.62-3.29-3.56-.07-.48-.15-1-.23-1.43-.11-.66-.23-1.32-.3-2-.43-3.73,1.15-6.44,4.69-8.07l.28-.13a36.24,36.24,0,0,1,5.6-2.22c18.1-5,36.84-7.71,54.4-9.92,1.51-.2,1.87.08,2,.2s.2.57-.54,1.9c-1.4,2.51-2.91,5-4.38,7.42-1.12,1.87-2.29,3.79-3.39,5.71-.6,1-1.22,2.07-1.84,3.11a77.09,77.09,0,0,0-5.25,9.83c-2.59,6.21-1.8,12.73,2.27,18.84a7.67,7.67,0,0,0,6.3,3.64h0a8,8,0,0,0,6.55-3.77,4.6,4.6,0,0,0,.86-3.59A2.53,2.53,0,0,0,94.39,262c-2.43-1.2-2.2-2.86-1.87-5.24a12.64,12.64,0,0,0,.08-1.62c0-.46,0-.9.06-1.34.19-1.68.35-3.38.5-5.07a121.54,121.54,0,0,1,1.56-12.13c1.43-7.16,6.08-11.57,13.82-13.08a5,5,0,0,1,2.6,0c5.44,2.25,11.23,3.15,16.84,4,1.46.23,2.92.46,4.38.71l1.47.25c7.19,1.22,14.62,2.49,21.63,5,5,1.8,7.25,4.72,7.39,9.45a32.67,32.67,0,0,0,1.22,6.8l.29,1.17a4.54,4.54,0,0,0,3.9,3.65c3.63.53,7.66-2,8.31-5.21S174.91,242.86,171.33,241.76Zm6.12-107.53a1.94,1.94,0,0,1-.09,1.94,18.66,18.66,0,0,1-4.27,5.46,105.23,105.23,0,0,1-22.67,13.82c-.68.31-1.95.9-2.24.72s-.4-1.55-.45-2.47-.17-1.79-.3-2.82c-.06-.48-.12-1-.18-1.54q.06-.12.12-.27a4.39,4.39,0,0,1,.81-1.27,54.5,54.5,0,0,1,5.18-4.51A66.48,66.48,0,0,1,170.89,134a14.38,14.38,0,0,1,4.54-.73A2.31,2.31,0,0,1,177.45,134.23ZM88.71,98.73c2.77,2.08,4.46,5.45,5,10a22.81,22.81,0,0,1-15.51,24c-5.55,1.81-10.26.54-14-3.76a39.82,39.82,0,0,1-4.77-7.26c-1-1.91-2-3.91-2.87-5.85s-2-4.15-3-6.17a21.17,21.17,0,0,0-4.29-5.61A6.68,6.68,0,0,0,47.67,103c1.57-.22,3.13-.57,4.64-.91l1.09-.25c2.52-.56,5-1.15,7.53-1.75,5.29-1.26,10.76-2.56,16.2-3.45C82,95.9,85.84,96.59,88.71,98.73ZM70.77,62.89c8.34.85,13.65,5.55,15.79,14,1.06,4.14.68,7.71-1.11,10.6-2,3.22-5.79,5.5-10.93,6.59l-4,.79c-2.06.4-4.2.82-6.28,1.31-5.76,1.37-8.6-.23-10.15-5.72-.62-2.21-1.09-4.52-1.55-6.75-.25-1.22-.5-2.45-.78-3.66-.43-1.91-.91-4-1.49-6a15.2,15.2,0,0,0-4.76-7.83l.52-.12C54.52,64,62.49,62,70.77,62.89ZM39.38,27.38c3-.37,6.07-.76,9.11-1a76.67,76.67,0,0,1,19.61.74c5,.88,7.85,3.72,8.77,8.67a31.55,31.55,0,0,1,.25,12.29A12.46,12.46,0,0,1,70.36,57C63.62,60.43,56,61.83,47,61.27c-2.67-.17-3.63-1.18-3.8-4C43,55.09,43,52.88,43,50.75s-.08-4.58-.23-6.87a61.17,61.17,0,0,0-1.24-9.58c-.75-3.35-2.65-5.59-5.5-6.5Zm-9.6,10.87,0-1a10.78,10.78,0,0,1,1.27-4.1,4,4,0,0,1,3.68-2.61h0a3.43,3.43,0,0,1,3.29,2.6,44.87,44.87,0,0,1,1.86,9c.26,3.32.31,6.73.37,10,0,1.73.05,3.47.11,5.2.11,3.33,1.59,5.45,4.42,6.33L43,64.07c-1.88.44-3.83.89-5.75,1.2-2.09.33-3.36-.53-4.12-2.77a56.75,56.75,0,0,1-2.92-11.25A97.27,97.27,0,0,1,29.78,38.25ZM28.93,77.5C25.29,64.76,22.86,53.83,25.06,42a22.41,22.41,0,0,1,2.4-7c-2.06,12.6.61,26.94,6.22,32.71C31.07,70.13,29.56,73.22,28.93,77.5ZM32,76.41c.63-4.34,3.5-7.69,7.32-8.53,3.21-.71,5,0,6.43,2.67a33.49,33.49,0,0,1,2.76,7.36c.6,2.32,1.09,4.71,1.57,7,.37,1.81.76,3.68,1.19,5.51.66,2.77,1.87,6.15,5.32,8h0l-3.29.62c-2.67.52-5.43,1.06-8.17,1.33-3.83.38-7-1.29-9.13-4.85A28.45,28.45,0,0,1,32,76.41Zm107.81,68.36a13.74,13.74,0,0,0-3.62.35l-.5.1a675.55,675.55,0,0,1-75.39,9.17,98.53,98.53,0,0,1-13.85,0c-5-.37-6.57-2-6.88-7.2-.26-4.2-.23-8.43-.17-12,.13-7.59,0-15.73-1.64-23.84-.69-3.36-1.52-6.75-2.32-10-.18-.76-.37-1.52-.55-2.28a12.87,12.87,0,0,0,9,4.16,5.57,5.57,0,0,0-2.08,3,18.49,18.49,0,0,0-.82,5.13,76.23,76.23,0,0,0,3.19,23.14A57.25,57.25,0,0,0,48,144.83c2.24,4.49,5.62,6,10.61,4.63a50.61,50.61,0,0,0,8.65-3.07c19.2-9.11,40.45-14.15,66.89-15.85,11.22-.72,21.18-1.39,30.47-2.06h0a22.41,22.41,0,0,1,9.67,2.17,24.15,24.15,0,0,0-7,1.78c-9.26,3.92-16.2,8.32-21.19,13.43l-1.87-.37A40.16,40.16,0,0,0,139.83,144.77Zm-55.72,24.5c-7.12,2-14.47,4-22,4.38a23.86,23.86,0,0,1-7.64-1.3,3.24,3.24,0,0,1-1.88-2.09c0-.62,1-1.79,1.88-2.13a27.32,27.32,0,0,1,7.05-1.93,80.67,80.67,0,0,1,8.8-.49,67.39,67.39,0,0,1,16.79,2.06,8.09,8.09,0,0,1,1.07.38Zm4.23,95.66-.28,0v-.11c0-.63.06-1.29.14-1.92h.37ZM29.23,257c1.17-.55,1.47-2.89,1.51-3.36a11.21,11.21,0,0,0-.18-2.83l-.09-.58c2.72.3,4.11,1.66,4.25,4.14.1,1.85,0,2.4-3.71,2.66l-2,.14-.42,0A2.8,2.8,0,0,0,29.23,257Zm-4.1-4.93c-.11-.35-.42-1.44,1.25-2a1.79,1.79,0,0,1,.56-.1.7.7,0,0,1,.37.09c.23.16.38.56.43,1.2.08.85.15,1.7.22,2.67l.07.8A3.77,3.77,0,0,1,25.13,252.11Zm128.17-31.7-4.8-5.54A7.06,7.06,0,0,1,153.3,220.41Zm-41.55-.34-.1-.23.79-.61a15.26,15.26,0,0,1,2.36-1.62c7.18-3.73,15-3.93,21.08-3.68.6,0,1.19.08,1.78.14l.87.08c5.54.48,9.43,2.82,11.9,7.13.59,1,1.19,2,1.87,3.18l.37.63A124.74,124.74,0,0,0,116.79,220Q114.29,220,111.75,220.07Zm21.44,5.53c-2.52-.39-5.12-.81-7.66-1.27-2.22-.41-4.46-.87-6.64-1.33a87.67,87.67,0,0,1,20,1.68,113.73,113.73,0,0,1,12.62,3.08,14.87,14.87,0,0,1,6.71,4C150,228.27,141.46,226.92,133.19,225.6Zm34.88,19.19.87,2.27-.1,0-.8-2.3Zm-2.34-1.44h0l-.1.15c-.08-.48-.16-.95-.23-1.42s-.17-1.05-.26-1.58c.63.44,1.17.85,1.24,1.36A2.11,2.11,0,0,1,165.73,243.35Zm6.83,7.24a3.75,3.75,0,0,1-4.33,1,4,4,0,0,1-1.55-2.41l-.12-.53a4.39,4.39,0,0,0,1.6,1.3A2.22,2.22,0,0,0,170,250c2.08-1,1.71-2.86,1.41-4.37l0-.15c0-.24-.1-.48-.16-.76a3.19,3.19,0,0,1,2.49,2.79A4.37,4.37,0,0,1,172.56,250.59Z"/></svg>